<svg width="96" height="96" viewBox="0 0 96 96" fill="none" xmlns="http://www.w3.org/2000/svg">
<g id="bx-mail-send.svg">
<path id="Vector" d="M80 16H24C19.588 16 16 19.588 16 24V44H24V32L49.6 51.2C50.2926 51.7187 51.1347 51.999 52 51.999C52.8653 51.999 53.7074 51.7187 54.4 51.2L80 32V68H48V76H80C84.412 76 88 72.412 88 68V24C88 19.588 84.412 16 80 16ZM52 43L26.664 24H77.336L52 43Z" fill="#666666"/>
<path id="Vector_2" d="M8 48H36V56H8V48ZM16 60H40V68H16V60ZM28 72H44V80H28V72Z" fill="#666666"/>
</g>
</svg>
