<svg width="96" height="96" viewBox="0 0 96 96" fill="none" xmlns="http://www.w3.org/2000/svg">
<g id="Image Group">
<rect id="Rectangle for Image" width="96" height="96" fill="white"/>
<path id="Phone" d="M22.2956 42.2189C29.1756 55.74 40.26 66.7767 53.7811 73.7044L64.2922 63.1933C65.5822 61.9033 67.4933 61.4733 69.1656 62.0467C74.5167 63.8144 80.2978 64.77 86.2222 64.77C88.85 64.77 91 66.92 91 69.5478V86.2222C91 88.85 88.85 91 86.2222 91C41.3589 91 5 54.6411 5 9.77778C5 7.15 7.15 5 9.77778 5H26.5C29.1278 5 31.2778 7.15 31.2778 9.77778C31.2778 15.75 32.2333 21.4833 34.0011 26.8344C34.5267 28.5067 34.1444 30.37 32.8067 31.7078L22.2956 42.2189Z" fill="#666666"/>
</g>
</svg>
