<svg width="96" height="96" viewBox="0 0 96 96" fill="none" xmlns="http://www.w3.org/2000/svg">
<g id="Image Group">
<rect id="Rectangle for Image" width="96" height="96" fill="white"/>
<path id="Network" d="M80.4211 8.40001C77.3509 8.40234 74.4072 9.56201 72.2362 11.6244C70.0653 13.6868 68.8446 16.4833 68.8421 19.4C68.8421 20.9708 69.2034 22.4624 69.8333 23.822L60.7785 33.4976C57.7025 31.4805 54.0534 30.4002 50.3158 30.4C46.8884 30.4 43.7204 31.3504 40.9646 32.8904L30.4324 22.8892L30.3259 22.9904C31.2337 21.2392 31.7895 19.29 31.7895 17.2C31.7895 14.5893 30.9746 12.0372 29.4478 9.86648C27.921 7.69575 25.751 6.00387 23.212 5.0048C20.6731 4.00572 17.8793 3.74432 15.184 4.25364C12.4887 4.76297 10.0129 6.02014 8.06968 7.8662C6.12647 9.71225 4.80312 12.0643 4.26699 14.6248C3.73086 17.1854 4.00602 19.8394 5.05768 22.2514C6.10934 24.6634 7.89026 26.725 10.1752 28.1754C12.4602 29.6258 15.1466 30.4 17.8947 30.4C20.0947 30.4 22.1419 29.872 23.9899 29.0096L23.8834 29.1108L34.4156 39.112C32.7141 41.7961 31.8068 44.8668 31.7895 48C31.7895 52.3868 33.5495 56.3556 36.3516 59.4444L24.416 70.7788C23.0783 70.2701 21.6515 70.0059 20.2105 70C13.8282 70 8.63159 74.9324 8.63159 81C8.63159 87.0676 13.8282 92 20.2105 92C26.5928 92 31.7895 87.0676 31.7895 81C31.7895 79.5876 31.4838 78.2456 30.9697 77.0004L44.1141 64.5132C46.064 65.1732 48.1297 65.6 50.3158 65.6C60.5331 65.6 68.8421 57.7064 68.8421 48C68.8421 45.2016 68.0872 42.5924 66.8598 40.2384L76.6648 29.7532C77.8505 30.1404 79.1011 30.4 80.4211 30.4C86.808 30.4 92 25.4676 92 19.4C92 13.3324 86.808 8.40001 80.4211 8.40001ZM50.3158 56.8C45.2072 56.8 41.0526 52.8532 41.0526 48C41.0526 43.1468 45.2072 39.2 50.3158 39.2C55.4244 39.2 59.5789 43.1468 59.5789 48C59.5789 52.8532 55.4244 56.8 50.3158 56.8Z" fill="#666666"/>
</g>
</svg>
