<svg width="142" height="25" viewBox="0 0 142 25" fill="none" xmlns="http://www.w3.org/2000/svg">
<path fill-rule="evenodd" clip-rule="evenodd" d="M13.8935 1.72286L17.9876 8.8486C18.4518 9.65641 18.7027 10.5501 18.7415 11.451C23.1247 12.6016 26.1494 15.0455 26.1494 17.8744C26.1494 21.8097 20.2957 25 13.0748 25C5.85373 25 0 21.8097 0 17.8744C0 15.0456 3.02507 12.6024 7.40788 11.4517C7.36191 12.5176 7.61281 13.5934 8.16197 14.5491L12.2559 21.675C12.5681 22.2183 12.7838 22.8005 12.9036 23.3977L13.0748 23.0999C14.0881 21.3361 14.0881 19.163 13.0748 17.3994L9.78959 11.6809C8.78652 9.92025 8.78965 7.75613 9.79952 5.99827L9.9705 5.70048C10.0905 6.29763 10.306 6.87991 10.6182 7.42335L15.5312 15.9743C15.8434 16.5178 16.0591 17.1 16.1789 17.6972L16.3501 17.3994C17.3632 15.6356 17.3632 13.4626 16.3501 11.6989L13.0746 5.9981C12.0614 4.23429 12.0614 2.06159 13.0748 0.297788L13.2458 0C13.3656 0.59715 13.5813 1.17943 13.8935 1.72286ZM31.0859 23.618C31.135 22.6061 31.2823 21.9152 31.5523 21.1254C32.9277 21.7672 34.696 22.0877 36.0468 22.0877C38.3308 22.0877 39.6079 21.3475 39.6079 19.8914C39.6079 18.46 38.6747 17.7936 36.3661 16.782L35.1135 16.2391C32.8049 15.2271 31.2332 13.919 31.2332 11.3032C31.2332 8.48993 33.1735 6.68815 37.152 6.68815C38.7483 6.68815 40.2464 6.91036 41.6463 7.40393C41.5726 8.39107 41.4008 9.15619 41.1551 9.87179C39.8289 9.37821 38.2571 9.15619 37.1273 9.15619C34.9908 9.15619 34.0084 9.99531 34.0084 11.3032C34.0084 12.5865 34.9662 13.3268 36.6852 14.0674L38.0116 14.6348C41.1306 15.9675 42.4321 17.3742 42.4321 19.7681C42.4321 22.6061 40.2955 24.5558 36.1204 24.5558C34.1066 24.5558 32.4612 24.2597 31.0859 23.618ZM76.9397 22.1372C77.7254 22.1372 78.4625 21.9891 79.0518 21.7672C78.9782 22.5073 78.8798 23.3466 78.7325 24.062C77.9957 24.3582 77.2099 24.4569 76.4485 24.4569C73.8207 24.4569 72.1506 23.2477 72.1506 20.237V7.2804C72.9857 7.00904 74.0171 6.88551 74.8524 6.88551V11.5499H79.1255C79.0764 12.389 79.0027 13.1541 78.8798 13.8697H74.8524V19.9163C74.8524 21.5203 75.6382 22.1372 76.9397 22.1372ZM118.962 6.88551V24.1611H116.482L116.335 22.5815C115.647 23.7415 114.591 24.4569 112.823 24.4569C109.581 24.4569 107.419 22.0877 107.419 17.942C107.419 13.5982 109.728 11.1305 114.272 11.1305C114.984 11.1305 115.647 11.2045 116.285 11.3278V7.25573C117.12 6.9597 118.078 6.88551 118.962 6.88551ZM132.544 18.8796H123.924C124.268 21.0761 125.545 22.1372 127.951 22.1372C129.425 22.1372 130.923 21.8164 132.274 21.1994C132.176 21.9152 132.028 22.8528 131.856 23.6671C130.628 24.2349 129.327 24.4569 127.878 24.4569C123.359 24.4569 121.173 21.9397 121.173 17.7198C121.173 14.0426 122.868 11.1305 127.166 11.1305C131.021 11.1305 132.691 13.6722 132.691 16.782C132.691 17.5471 132.642 18.164 132.544 18.8796ZM141.755 13.549C141.902 13.0308 142 12.0436 142 11.229C141.411 11.1551 140.477 11.1305 139.642 11.1305C138.12 11.1305 136.18 11.4265 135.025 11.8214V24.1611H137.727V13.5982C138.39 13.4997 139.053 13.4501 139.716 13.4501C140.477 13.4501 141.116 13.4748 141.755 13.549ZM129.966 16.6091H123.875C124.096 14.5115 125.103 13.4008 127.018 13.4008C128.885 13.4008 129.966 14.5855 129.966 16.6091ZM116.285 13.697V21.2979C115.549 21.8657 114.665 22.2361 113.584 22.2361C111.177 22.2361 110.17 20.459 110.17 17.942C110.17 15.1286 111.447 13.4501 114.124 13.4501C114.836 13.4501 115.573 13.549 116.285 13.697ZM105.257 24.1611V15.8688C105.257 12.8826 103.809 11.1305 99.2897 11.1305C97.988 11.1305 96.097 11.4018 94.3779 11.8214V24.1611H97.0795V13.6477C97.8162 13.5243 98.5776 13.4501 99.216 13.4501C101.918 13.4501 102.556 14.3881 102.556 16.3377V24.1611H105.257ZM88.7286 21.3475V13.5982C88.164 13.4997 87.5497 13.4501 86.7886 13.4501C83.9887 13.4501 82.6872 15.1779 82.6872 17.942C82.6872 20.459 83.6943 22.2361 86.1009 22.2361C87.1567 22.2361 88.0167 21.8906 88.7286 21.3475ZM91.4302 24.1611V11.8214C90.0059 11.3278 88.5568 11.1305 86.7886 11.1305C82.2451 11.1305 79.9367 13.5982 79.9367 17.942C79.9367 22.0877 82.0978 24.4569 85.3396 24.4569C87.0587 24.4569 88.1147 23.7662 88.8026 22.6803L88.9497 24.1611H91.4302ZM69.4484 24.1611V15.8688C69.4484 12.8826 67.9996 11.1305 63.4806 11.1305C62.1789 11.1305 60.2879 11.4018 58.5688 11.8214V24.1611H61.2702V13.6477C62.0071 13.5243 62.7683 13.4501 63.407 13.4501C66.1083 13.4501 66.747 14.3881 66.747 16.3377V24.1611H69.4484ZM52.9195 21.3475V13.5982C52.3547 13.4997 51.7408 13.4501 50.9794 13.4501C48.1796 13.4501 46.8781 15.1779 46.8781 17.942C46.8781 20.459 47.885 22.2361 50.2918 22.2361C51.3478 22.2361 52.2074 21.8906 52.9195 21.3475ZM55.6211 24.1611V11.8214C54.1966 11.3278 52.7477 11.1305 50.9793 11.1305C46.4358 11.1305 44.1274 13.5982 44.1274 17.942C44.1274 22.0877 46.2885 24.4569 49.5304 24.4569C51.2494 24.4569 52.3056 23.7662 52.9933 22.6803L53.1406 24.1611H55.6211Z" fill="#EC0000"/>
</svg>
