<?xml version="1.0" encoding="utf-8"?>
<!-- Generator: Adobe Illustrator 15.0.0, SVG Export Plug-In . SVG Version: 6.00 Build 0)  -->
<!DOCTYPE svg PUBLIC "-//W3C//DTD SVG 1.1//EN" "http://www.w3.org/Graphics/SVG/1.1/DTD/svg11.dtd">
<svg version="1.1" id="Layer_1" xmlns="http://www.w3.org/2000/svg" xmlns:xlink="http://www.w3.org/1999/xlink" x="0px" y="0px"
	 width="202.299px" height="80.813px" viewBox="0 0 202.299 80.813" enable-background="new 0 0 202.299 80.813"
	 xml:space="preserve">
<g>
	<path fill="#EC1C24" d="M137.599,10.093c2.82,7.283,6.041,22.053-1.517,38.281c-0.079,0.208,0.185,0.391,0.469,0.208
		c9.051-5.924,16.938-17.281,19.532-26.562c-9.004-4.612-14.424-9.377-17.7-12.43C137.945,9.169,137.41,9.627,137.599,10.093"/>
	<path fill="#404041" d="M30.545,61.023c-2.58-0.883-3.333-1.307-3.333-2.407c0-0.996,1.087-1.75,2.526-1.75
		c1.355,0,2.774,0.397,4.338,1.21c0.029,0.017,0.059,0.021,0.09,0.021c0.029,0,0.061-0.004,0.086-0.021
		c0.054-0.023,0.093-0.078,0.104-0.142l0.42-2.686c0.016-0.082-0.031-0.169-0.112-0.202c-1.424-0.638-3.135-0.988-4.831-0.988
		c-3.349,0-5.689,2.021-5.689,4.913c0,2.662,1.787,3.772,5.301,5c2.33,0.799,3.105,1.274,3.105,2.501c0,1.239-1.179,2.04-3.008,2.04
		c-1.514,0-3.575-0.562-5.243-1.435c-0.031-0.014-0.061-0.02-0.09-0.02c-0.033,0-0.059,0.006-0.085,0.02
		c-0.057,0.029-0.094,0.082-0.107,0.144l-0.424,2.613c-0.012,0.09,0.037,0.175,0.114,0.208c1.898,0.809,3.925,1.248,5.706,1.248
		c3.713,0,6.206-2.081,6.206-5.171C35.619,63.322,33.835,62.171,30.545,61.023"/>
	<path fill="#404041" d="M52.411,54.283h-2.94c-0.108,0-0.194,0.086-0.194,0.195v9.96c0,2.665-1.252,4.072-3.623,4.072
		c-2.314,0-3.588-1.47-3.588-4.138v-9.895c0-0.109-0.086-0.195-0.194-0.195h-2.909c-0.107,0-0.192,0.086-0.192,0.195v10.023
		c0,4.313,2.563,6.888,6.851,6.888c4.372,0,6.983-2.624,6.983-7.017v-9.895C52.604,54.369,52.517,54.283,52.411,54.283"/>
	<path fill="#404041" d="M62.236,61.982h-1.879V57.13h1.94c1.42,0,3.104,0.42,3.104,2.425
		C65.401,61.191,64.367,61.982,62.236,61.982 M62.588,54.283h-5.332c-0.107,0-0.192,0.086-0.192,0.195V70.87
		c0,0.107,0.085,0.196,0.192,0.196h2.907c0.108,0,0.194-0.089,0.194-0.196v-6.079h1.879c4.064,0,6.397-1.935,6.397-5.301
		C68.634,56.279,66.317,54.283,62.588,54.283"/>
	<path fill="#404041" d="M82.473,68.124h-7.309V63.82h6.044c0.059,0,0.113-0.025,0.148-0.066c0.035-0.042,0.057-0.101,0.045-0.159
		l-0.419-2.556c-0.019-0.093-0.097-0.159-0.19-0.159h-5.628v-3.656h7.079c0.106,0,0.194-0.085,0.194-0.194v-2.551
		c0-0.109-0.088-0.195-0.194-0.195H72.059c-0.104,0-0.19,0.086-0.19,0.195V70.87c0,0.107,0.087,0.196,0.19,0.196h10.414
		c0.104,0,0.192-0.089,0.192-0.196v-2.553C82.665,68.211,82.577,68.124,82.473,68.124"/>
	<path fill="#404041" d="M94.564,59.556c0,1.627-1.104,2.522-3.102,2.522h-1.942v-4.885h1.942
		C92.879,57.192,94.564,57.601,94.564,59.556 M94.549,64.271c2.138-0.825,3.313-2.501,3.313-4.749c0-3.279-2.383-5.239-6.369-5.239
		h-5.078c-0.103,0-0.188,0.086-0.188,0.191v16.397c0,0.105,0.086,0.194,0.188,0.194h2.915c0.105,0,0.191-0.089,0.191-0.194v-6.145
		h1.485l4.525,6.452c0.037,0.051,0.095,0.08,0.153,0.08c0.018,0,0.031-0.002,0.043-0.006l3.011-0.681
		c0.062-0.012,0.116-0.059,0.14-0.119c0.02-0.064,0.012-0.13-0.027-0.185L94.549,64.271z"/>
	<path fill="#404041" d="M115.485,54.299h-2.936c-0.084,0-0.156,0.049-0.184,0.125l-4.604,12.283l-4.514-12.287
		c-0.025-0.076-0.1-0.134-0.181-0.134H99.87c-0.059,0.014-0.105,0.049-0.129,0.099c-0.031,0.049-0.031,0.109-0.012,0.16
		l6.391,16.382c0.029,0.074,0.102,0.125,0.177,0.125h2.697c0.076,0,0.147-0.051,0.175-0.125l6.502-16.367
		c0.021-0.055,0.016-0.125-0.021-0.179C115.61,54.33,115.552,54.299,115.485,54.299"/>
	<path fill="#404041" d="M121.841,54.283h-2.94c-0.104,0-0.194,0.086-0.194,0.195V70.87c0,0.107,0.09,0.196,0.194,0.196h2.94
		c0.113,0,0.194-0.089,0.194-0.196V54.478C122.035,54.369,121.954,54.283,121.841,54.283"/>
	<path fill="#404041" d="M137.979,68.124h-7.309V63.82h6.048c0.055,0,0.105-0.025,0.146-0.066c0.037-0.042,0.054-0.101,0.044-0.159
		l-0.424-2.556c-0.012-0.093-0.093-0.159-0.19-0.159h-5.624v-3.656h7.081c0.108,0,0.194-0.085,0.194-0.194v-2.551
		c0-0.109-0.086-0.195-0.194-0.195h-10.185c-0.105,0-0.19,0.086-0.19,0.195V70.87c0,0.107,0.085,0.196,0.19,0.196h10.412
		c0.106,0,0.192-0.089,0.192-0.196v-2.553C138.171,68.211,138.085,68.124,137.979,68.124"/>
	<path fill="#404041" d="M164.602,68.153h-6.016V54.474c0-0.105-0.085-0.191-0.192-0.191h-2.909c-0.108,0-0.194,0.086-0.194,0.191
		v16.397c0,0.105,0.086,0.194,0.194,0.194h9.533c0.058,0,0.114-0.027,0.151-0.07c0.035-0.045,0.051-0.097,0.041-0.158l-0.414-2.522
		C164.776,68.223,164.698,68.153,164.602,68.153"/>
	<path fill="#404041" d="M178.514,68.124h-7.307V63.82h6.046c0.059,0,0.109-0.025,0.148-0.066c0.037-0.042,0.055-0.101,0.043-0.159
		l-0.42-2.556c-0.016-0.093-0.098-0.159-0.191-0.159h-5.626v-3.656h7.081c0.109,0,0.196-0.085,0.196-0.194v-2.551
		c0-0.109-0.087-0.195-0.196-0.195h-10.181c-0.11,0-0.196,0.086-0.196,0.195V70.87c0,0.107,0.086,0.196,0.196,0.196h10.406
		c0.108,0,0.194-0.089,0.194-0.196v-2.553C178.708,68.211,178.622,68.124,178.514,68.124"/>
	<path fill="#820040" d="M178.341,29.222c-7.493-1.181-14.786-3.64-19.543-5.895c-2.75,7.211-8.059,14.941-13.624,20.256
		c-0.302,0.261-0.059,0.71,0.436,0.354c11.88-8.209,24.246-12.15,32.743-13.795C178.815,30.033,178.825,29.35,178.341,29.222"/>
	<path fill="#404041" d="M151.816,68.153H145.8V54.474c0-0.105-0.084-0.191-0.194-0.191H142.7c-0.107,0-0.194,0.086-0.194,0.191
		v16.397c0,0.105,0.087,0.194,0.194,0.194h9.537c0.056,0,0.108-0.027,0.151-0.07c0.031-0.045,0.05-0.101,0.039-0.158l-0.425-2.522
		C151.991,68.223,151.91,68.153,151.816,68.153"/>
</g>
</svg>
