<svg width="1200" height="630" viewBox="0 0 1200 630" fill="none" xmlns="http://www.w3.org/2000/svg">
<g clip-path="url(#clip0_141924_3490)">
<path d="M636.531 1C637.768 1.66318 638.484 2.82976 639.313 2.91679C669.3 6.0649 697.949 14.2161 725.509 26.2228C746.122 35.2031 765.894 45.7502 783.972 59.2822C785.061 60.097 787.525 60.2545 788.71 59.5858C808.981 48.1442 835.535 55.114 849.394 70.9551C856.296 78.8443 860.38 87.9387 862.239 98.5002C864.038 108.715 861.333 117.711 857.516 126.556C856.115 129.801 857.036 131.6 858.462 133.938C866.72 147.471 875.474 160.737 883.026 174.654C888.835 185.361 893.119 196.895 898.499 209C893.957 209 890.072 209 886.186 209C877.689 209 869.184 208.79 860.697 209.095C856.91 209.232 855.362 207.643 853.676 204.501C845.631 189.516 837.26 174.706 828.929 159.876C827.983 158.192 826.562 156.774 825.209 155.037C805.632 161.288 788.297 156.772 773.99 142.311C759.781 127.95 756.136 110.382 761.013 90.6939C745.451 79.8644 729.11 70.4941 711.672 62.7761C695.895 55.7931 679.729 50.2344 662.96 46.6182C651.146 44.0706 639.096 42.3991 627.068 41.1324C617.536 40.1286 607.88 40.2339 598.276 40.0215C574.757 39.5017 551.811 43.3551 529.196 49.4458C510.663 54.4371 492.757 61.2097 475.785 70.1385C457.832 79.5833 441.207 91.0422 425.419 103.885C405.157 120.367 388.092 139.718 373.713 161.221C364.314 175.278 357.064 190.798 349.27 205.878C348.013 208.311 346.998 209.028 344.627 209.02C331.966 208.975 319.305 208.998 306.31 208.998C314.084 187.771 323.925 167.83 335.688 148.785C351.317 123.478 370.647 101.248 392.457 81.2266C408.296 66.6861 425.728 54.1279 444.333 43.231C463.739 31.8647 484.101 22.6889 505.5 15.8143C524.995 9.55141 544.79 4.64967 565.273 2.92901C565.977 2.86986 566.629 2.20169 567.153 1.40869C590.021 0.999999 613.042 0.999999 636.531 1ZM783.649 107.138C785.543 123.681 799.432 134.467 815.537 131.902C830.357 129.542 840.102 114.859 837.042 99.503C834.455 86.5254 822.162 77.4434 808.773 78.6193C793.807 79.9336 783.995 90.7239 783.649 107.138Z" fill="#007CC1"/>
<path d="M561.469 631C560.221 630.337 559.501 629.182 558.655 629.081C530.212 625.669 502.911 618.086 476.569 606.901C451.285 596.165 427.661 582.483 406.187 565.429C389.78 552.4 374.731 537.89 361.011 521.855C345.03 503.178 331.751 482.826 320.219 461.327C313.923 449.589 309.309 436.949 303.739 424.267C317.94 424.267 331.53 424.267 344.207 424.267C400.494 537.587 489.964 598.047 617.466 592.401C722.282 587.76 812.365 520.369 853.598 424.171C867.178 424.171 880.811 424.171 895.085 424.171C894.669 426.27 894.59 428.2 893.909 429.886C882.026 459.31 867.299 487.179 846.778 511.539C835.599 524.809 823.977 537.843 811.399 549.765C795.104 565.212 776.787 578.215 757.222 589.405C737.297 600.8 716.592 610.323 694.645 617.142C676.678 622.724 658.507 627.263 639.726 629.07C639.02 629.138 638.37 629.798 637.847 630.591C612.646 631 587.291 631 561.469 631Z" fill="#007CC1"/>
<path d="M1201 330.531C1200 332.497 1198.6 333.863 1198.06 335.511C1193.84 348.567 1187.37 360.308 1176.99 369.384C1165.99 379.003 1153.38 385.252 1138.52 387.16C1125.97 388.771 1113.98 387.667 1102.35 383.063C1077.76 373.329 1062.74 355.419 1056.93 329.577C1053.41 313.944 1055.04 298.738 1061.48 284.436C1067.56 270.929 1077.69 260.558 1090.5 252.746C1103.24 244.976 1116.84 241.474 1131.72 241.932C1142.86 242.275 1154.02 242 1165.75 242C1165.75 223.783 1165.75 205.742 1165.75 187C1177.56 187 1188.81 187 1200.53 187C1201 234.688 1201 282.375 1201 330.531ZM1151.43 345.043C1159.28 337.875 1165.52 329.738 1165.94 318.596C1166.24 310.946 1166 303.276 1166 295.616C1166 289.519 1166 283.423 1166 277.013C1151.2 277.013 1137.02 276.325 1122.96 277.337C1116.97 277.768 1110.36 280.618 1105.56 284.344C1093.11 294.026 1087.31 307.041 1091.06 323.051C1094.55 337.954 1105.25 348.715 1119.78 352.031C1131.2 354.637 1141.52 352.422 1151.43 345.043Z" fill="#007CC1"/>
<path d="M1 297.468C1.92408 295.834 3.293 294.808 3.70678 293.483C12.657 264.824 32.5704 248.374 61.5047 243.134C85.9192 238.712 107.128 246.355 124.957 263.476C128.321 266.705 131.453 270.182 134.904 273.312C137.06 275.268 136.717 276.788 134.927 278.587C127.776 285.775 120.645 292.983 112.798 300.899C108.871 296.761 105.314 292.859 101.592 289.121C87.4669 274.931 67.2831 272.94 50.8483 284.046C33.7056 295.63 30.081 320.877 42.6752 337.308C54.769 353.086 72.2444 357.014 89.4854 349.474C95.4312 346.874 100.186 341.451 105.309 337.109C107.94 334.88 110.182 332.194 112.768 329.542C114.249 330.912 115.354 331.874 116.391 332.903C123.341 339.802 130.277 346.716 137.176 353.584C123.506 370.562 107.352 382.893 85.8801 386.903C71.743 389.543 58.0718 387.48 44.9384 381.951C22.8599 372.657 8.70624 356.434 2.88518 333.08C2.74505 332.518 2.12207 332.076 1.36215 331.789C0.999997 320.646 0.999997 309.291 1 297.468Z" fill="#007CC1"/>
<path d="M840.864 297C860.283 297.936 876.326 304.086 885.524 322.066C894.402 339.422 891.463 357.724 879.241 372.32C870.326 382.968 858.764 387.838 845.234 387.936C816.427 388.145 787.617 388 758.405 388C758.405 376.418 758.405 365.042 758.405 353C760.121 353 761.886 353 763.651 353C790.303 353 816.957 353.171 843.604 352.79C847.064 352.741 851.139 350.541 853.742 348.081C856.482 345.492 856.863 341.592 854.412 337.692C851.927 333.737 848.573 332.041 844.226 332.027C825.403 331.966 806.581 331.995 787.758 332.001C764.137 332.01 744.947 310.938 744.807 289.349C744.714 274.951 748.5 262.754 759.369 253.21C766.826 246.662 775.791 242.343 785.596 242.179C815.071 241.686 844.56 242.002 874.044 242.013C874.843 242.014 875.643 242.132 876.711 242.216C876.711 253.699 876.711 264.956 876.711 276.999C875.017 276.999 873.269 276.999 871.52 276.999C844.702 276.999 817.883 277.055 791.065 276.946C786.515 276.927 782.957 278.078 780.881 282.368C778.779 286.71 779.807 290.954 782.421 294.405C783.626 295.996 786.682 296.865 788.912 296.891C806.066 297.089 823.225 297 840.864 297Z" fill="#007CC1"/>
<path d="M271.25 343.75C274.651 347.555 280.33 351.166 280.252 354.649C280.172 358.242 274.619 361.84 271.237 365.211C254.86 381.538 234.924 390.17 212.002 387.721C180.118 384.314 157.619 367.209 148.238 335.898C141.212 312.447 144.855 290.157 160.123 270.363C176.837 248.695 199.532 239.699 226 242.336C246.743 244.403 263.474 255.279 277.494 271.163C282.588 276.934 279.19 278.287 276.247 281.235C254.465 303.054 232.653 324.843 210.857 346.648C209.932 347.573 209.072 348.564 207.772 349.966C231.079 359.381 243.374 343.117 257.351 329.143C262.096 334.135 266.548 338.817 271.25 343.75ZM224.814 278.033C208.007 274.028 195.08 280.247 185.78 293.953C179.464 303.261 178.084 313.771 181.847 324.831C197.315 309.507 212.464 294.499 227.621 279.484C226.68 278.883 226.126 278.529 224.814 278.033Z" fill="#007CC1"/>
<path d="M636.43 246.261C647.332 242.119 658.328 241.119 669.391 242.1C682.148 243.232 694.051 247.477 704.35 255.173C715.824 263.747 725.312 274.073 730.454 287.853C736.528 304.128 737.219 320.695 731.922 337.081C724.364 360.464 708.355 376.427 685.202 384.174C660.7 392.371 637.221 388.625 617.137 372.289C601.124 359.265 590.893 342.451 589.798 320.749C589.175 308.393 590.261 296.576 595.156 285.338C597.477 280.009 600.407 274.529 604.413 270.442C611.588 263.122 619.654 256.643 627.637 250.168C629.941 248.299 633.234 247.649 636.43 246.261ZM694.061 335.537C704.57 319.078 701.971 296.902 684.485 283.858C670.432 273.375 646.54 274.498 632.681 290.557C618.762 306.686 622.639 333.945 640.547 346.453C656.56 357.638 682.974 354.148 694.061 335.537Z" fill="#007CC1"/>
<path d="M900.001 247.153C900.099 245.229 900.197 243.788 900.303 242.23C911.914 242.23 923.174 242.23 935 242.23C935 244.23 935 246.009 935 247.789C935 270.454 935.241 293.122 934.911 315.783C934.707 329.743 947.08 346.995 959.838 350.976C976.596 356.206 992.454 351.459 1002.48 338.172C1008.25 330.531 1011.16 322.241 1011.06 312.613C1010.86 291.117 1011 269.617 1011 248.118C1011 246.307 1011 244.496 1011 242.346C1022.71 242.346 1034.09 242.346 1046 242.346C1046 244.766 1046 247.05 1046 249.333C1046 270.665 1045.98 291.997 1046.01 313.329C1046.03 333.686 1038.82 351.521 1025.09 366.046C1013.89 377.9 999.701 385.029 982.953 387.157C957.419 390.402 936.147 382.332 918.81 364.072C908.692 353.416 901.829 340.277 901.208 325.432C900.125 299.528 900.333 273.571 900.001 247.153Z" fill="#007CC1"/>
<path d="M311.982 388C304.524 388 297.561 388 290 388C290 385.814 290 384.041 290 382.267C290 358.775 289.759 335.28 290.063 311.792C290.423 283.964 303.969 264.005 327.871 250.588C345.989 240.418 365.322 238.833 384.613 245.235C410.835 253.936 427.377 272.51 433.863 299.499C435.27 305.355 435.841 311.53 435.908 317.568C436.147 339.058 436.001 360.552 436.001 382.044C436.001 383.839 436.001 385.633 436.001 387.711C424.302 387.711 413.042 387.711 401 387.711C401 386.016 401 384.267 401 382.517C401 360.858 401.196 339.197 400.919 317.541C400.776 306.264 397.56 295.958 389.213 287.66C372.053 270.597 341.873 274.221 329.765 295.326C325.925 302.019 324.163 308.962 324.084 316.323C323.85 338.147 324 359.974 324 381.8C324 383.616 324 385.433 324 388C319.989 388 316.234 388 311.982 388Z" fill="#007CC1"/>
<path d="M539.3 283.645C526.222 274.225 506.336 275.366 494.055 285.11C484.079 293.025 480.158 303.224 479.196 314.788C477.932 329.982 493.026 348.471 508.577 351.956C522.627 355.105 534.933 351.875 545.086 341.406C548.889 337.485 552.638 333.511 556.586 329.378C558.001 330.66 558.87 331.386 559.669 332.181C566.848 339.325 574.016 346.481 581.239 353.686C569.333 369.323 554.696 380.413 535.982 385.474C516.075 390.858 497.237 387.504 479.69 377.1C462.133 366.689 451.047 351.295 446.759 331.335C442.116 309.721 445.47 289.445 458.988 271.6C475.601 249.67 498.376 239.711 525.329 242.348C545.382 244.31 562.939 253.314 575.562 270.018C575.661 270.15 575.797 270.255 575.902 270.383C577.562 272.416 580.617 274.54 580.494 276.461C580.367 278.469 577.188 280.288 575.335 282.181C569.411 288.231 563.483 294.276 557.424 300.458C551.177 294.645 545.385 289.256 539.3 283.645Z" fill="#007CC1"/>
<path d="M783.619 106.726C783.995 90.724 793.807 79.9337 808.773 78.6194C822.162 77.4436 834.456 86.5255 837.042 99.5032C840.102 114.859 830.357 129.542 815.537 131.902C799.432 134.468 785.543 123.681 783.619 106.726Z" fill="#F7A41F"/>
</g>
<defs>
<clipPath id="clip0_141924_3490">
<rect width="1200" height="630" fill="white"/>
</clipPath>
</defs>
</svg>
