<svg width="1024" height="1024" viewBox="0 0 1024 1024" fill="none" xmlns="http://www.w3.org/2000/svg">
<path d="M246.835 703.795C242.27 713.856 237.864 723.574 233.458 733.291C232.924 733.088 232.39 732.884 231.856 732.68C233.691 726.234 235.529 719.789 237.361 713.343C239.545 705.657 241.461 697.882 244.002 690.316C245.535 685.749 243.178 684.453 239.773 683.03C235.896 681.409 235.63 684.552 234.673 686.617C229.141 698.557 223.693 710.536 218.215 722.501C217.937 723.107 217.678 723.724 217.35 724.303C216.462 725.875 215.745 727.966 213.302 726.621C211.227 725.479 212.172 723.755 212.861 722.257C215.646 716.204 218.489 710.178 221.299 704.137C224.391 697.49 227.264 690.732 230.618 684.22C233.231 679.15 229.242 678.445 226.417 676.598C222.917 674.31 221.547 676.223 219.956 679.078C213.466 690.719 206.798 702.26 200.196 713.838C199.948 714.272 199.737 714.73 199.458 715.142C198.477 716.59 197.837 718.835 195.363 717.374C192.988 715.971 194.299 714.259 195.202 712.68C201.484 701.686 207.73 690.671 214.093 679.724C218.87 671.503 218.573 670.588 208.64 666.637C202.733 675.104 196.741 683.668 190.779 692.254C188.308 695.811 186.035 699.514 183.414 702.955C182.108 704.67 181.325 708.634 178.078 706.308C175.266 704.294 178.228 702.106 179.385 700.407C186.794 689.527 194.397 678.779 201.816 667.905C203.116 666 206.213 664.166 202.622 661.293C199.436 658.744 197.209 658.085 193.945 661.638C185.044 671.326 175.68 680.589 166.501 690.023C165.48 691.072 164.61 692.327 162.965 692.715C162.01 690.542 163.759 689.561 164.632 688.339C172.574 677.222 180.404 666.017 188.639 655.119C191.418 651.44 188.671 650.301 186.862 648.296C184.701 645.9 183.039 646.603 181.072 648.611C172.444 657.423 163.728 666.148 155.039 674.9C153.396 676.554 151.736 678.191 150.075 679.828C149.013 680.874 147.878 681.363 146.596 680.166C145.332 678.986 145.616 677.816 146.669 676.692C147.465 675.841 148.293 675.019 149.115 674.191C158.627 664.614 168.145 655.041 177.648 645.455C178.567 644.528 179.739 643.764 179.971 642.316C179.868 641.999 179.841 641.629 179.653 641.382C173.428 633.194 173.483 633.262 165.788 639.893C156.828 647.613 147.756 655.203 138.725 662.841C137.963 663.486 137.144 664.065 136.35 664.672C135.071 665.65 133.75 666.405 132.487 664.712C131.232 663.03 132.393 661.943 133.578 660.938C140.948 654.687 148.341 648.463 155.699 642.196C160.239 638.33 164.728 634.404 169.58 630.211C167.304 627.1 165.293 624.35 163.002 621.219C153.387 627.969 144.145 634.453 134.906 640.944C131.499 643.338 128.127 645.786 124.684 648.128C123.252 649.102 121.598 650.873 119.996 648.604C118.433 646.39 120.477 645.355 121.952 644.313C133.386 636.24 144.736 628.041 156.328 620.201C160.052 617.683 159.542 615.649 157.385 612.532C155.395 609.656 153.486 610.924 151.392 611.936C139.097 617.878 126.809 623.835 114.513 629.774C113.507 630.26 112.587 631.136 110.996 630.544C111.293 628.457 113.161 627.892 114.538 626.95C125.406 619.523 136.182 611.952 147.229 604.8C151.094 602.297 150.016 600.066 148.496 596.995C146.726 593.418 144.478 594.475 141.909 595.696C129.726 601.488 117.548 607.292 105.296 612.936C103.611 613.713 101.195 616.171 99.713 613.234C98.0088 609.857 101.712 609.614 103.507 608.745C115.504 602.942 127.584 597.312 139.626 591.602C141.11 590.898 142.53 590.059 143.798 589.379C143.886 588.704 144.044 588.343 143.952 588.064C140.773 578.389 140.795 578.457 131.195 582.075C119.668 586.418 108.106 590.669 96.5215 594.858C94.8396 595.466 92.4771 597.007 91.5914 593.893C90.837 591.24 93.3249 591.094 94.9279 590.499C107.419 585.861 119.935 581.286 132.423 576.641C134.415 575.9 136.648 575.595 138.254 573.861C138.254 573.388 138.395 572.849 138.233 572.426C134.741 563.303 137.315 563.467 126.676 566.334C114.468 569.624 102.289 573.02 90.0933 576.353C88.3979 576.816 86.3141 577.988 85.7066 575.108C85.1513 572.475 87.4237 572.254 89.1321 571.782C102.293 568.149 115.456 564.526 128.636 560.966C131.695 560.139 134.384 559.614 133.322 555.129C132.302 550.823 130.351 550.364 126.225 550.853C112.249 552.513 98.1985 553.545 83.5062 554.877C85.0518 551.997 87.4048 552.233 89.2391 551.766C101.659 548.603 114.1 545.523 126.555 542.502C129.776 541.721 130.696 540.212 130.06 536.789C129.474 533.642 128.719 531.91 125.143 532.253C111.728 533.542 98.2991 534.699 84.8756 535.91C83.8814 536 82.8921 536.176 81.8968 536.213C80.3724 536.27 78.6004 536.311 78.3129 534.381C77.9586 532.004 79.9392 531.799 81.6079 531.643C92.2106 530.651 102.818 529.707 113.423 528.739C117.067 528.407 120.709 527.774 124.352 527.774C129.43 527.775 128.67 524.356 128.717 521.214C128.766 517.975 128.605 515.258 124.103 515.311C111.605 515.46 99.1038 515.359 86.6039 515.356C86.1039 515.356 85.5662 515.476 85.1102 515.334C82.5658 514.541 77.7137 517.209 77.8251 513.031C77.9262 509.245 82.7426 511.003 85.425 510.96C97.9216 510.758 110.424 510.796 122.923 510.911C126.642 510.945 128.815 510.279 128.842 505.758C128.868 501.376 127.657 499.54 123.028 499.202C109.264 498.195 95.5339 496.739 81.7939 495.425C80.2139 495.273 78.0131 495.495 78.2528 493.016C78.4795 490.671 80.4964 491.028 82.1602 491.175C95.0925 492.314 108.029 493.413 120.954 494.625C129.301 495.408 129.476 495.34 130.071 486.446C114.643 482.46 99.0203 478.423 83.398 474.386C83.452 473.909 83.506 473.432 83.5601 472.954C88.64 472.259 93.7021 473.841 98.7338 474.239C108.84 475.04 118.912 476.284 128.994 477.385C132.965 477.819 132.302 474.629 133.078 472.439C134.109 469.529 133.017 468.103 130.208 467.36C117.658 464.041 105.124 460.662 92.5891 457.284C90.6624 456.765 88.7506 456.182 86.8572 455.552C85.6341 455.145 84.8009 454.364 85.3019 452.922C85.7444 451.648 86.6386 451.068 88.0205 451.406C91.4159 452.237 94.8266 453.011 98.2068 453.9C110.256 457.068 122.295 460.276 133.969 463.371C134.726 462.855 135.134 462.732 135.248 462.477C139.382 453.262 139.362 453.307 129.821 449.9C118.371 445.812 106.938 441.675 95.5382 437.451C93.7565 436.791 90.3492 436.91 91.4393 433.754C92.6222 430.329 95.4679 432.522 97.3917 433.198C109.643 437.501 121.816 442.028 134.05 446.382C139.848 448.446 142.499 446.626 143.467 440.421C143.908 437.598 141.796 437.06 140.063 436.253C129.188 431.193 118.283 426.199 107.39 421.177C105.575 420.34 103.734 419.546 101.975 418.602C100.45 417.785 98.1079 417.243 99.2336 414.727C100.389 412.146 102.283 413.585 103.877 414.314C115.389 419.577 126.887 424.871 138.389 430.158C139.448 430.645 140.494 431.162 141.555 431.645C143.972 432.746 146.112 434.29 148.106 430.52C149.884 427.157 149.57 425.206 146.432 423.112C135.484 415.803 124.637 408.342 113.781 400.898C112.325 399.9 110.462 399.306 109.165 395.967C125.018 403.505 139.825 410.547 154.508 417.529C160.776 410.814 160.743 410.55 153.864 405.768C143.191 398.35 132.523 390.926 121.884 383.459C120.497 382.486 118.139 381.699 119.573 379.309C121.224 376.558 123.027 378.525 124.572 379.586C136.107 387.511 147.604 395.491 159.123 403.439C160.198 404.18 161.341 404.823 162.316 405.428C162.885 405.189 163.284 405.146 163.474 404.924C169.469 397.955 169.487 397.926 162.51 392.105C152.914 384.098 143.26 376.161 133.688 368.126C132.3 366.961 129.699 365.848 131.601 363.414C133.544 360.926 135.192 363.231 136.596 364.378C146.916 372.813 157.206 381.287 167.429 389.839C170.248 392.198 172.429 394.545 175.898 390.254C180.316 384.788 180.675 384.97 175.949 380.248C166.637 370.943 157.237 361.727 147.915 352.431C146.795 351.313 144.769 350.281 145.523 348.407C146.946 344.869 148.983 346.358 150.828 348.205C160.72 358.107 170.708 367.918 180.436 377.979C183.27 380.909 185.109 380.568 187.773 377.928C189.995 375.724 188.972 374.224 187.623 372.366C179.695 361.445 171.775 350.517 163.918 339.544C162.942 338.181 161.061 337.126 161.698 334.899C163.674 334.502 164.328 336.109 165.296 337.112C175.012 347.179 184.81 357.172 194.338 367.414C197.226 370.519 198.834 368.31 200.986 366.866C203.71 365.039 204.3 363.193 202.201 360.292C194.391 349.493 186.675 338.622 179.162 327.615C177.93 325.811 173.92 323.525 177.392 321.119C181.047 318.587 181.887 323.119 183.32 325.116C191.751 336.865 200.032 348.72 208.22 360.336C209.056 360.253 209.425 360.308 209.704 360.176C218.508 356.002 218.501 355.862 213.649 347.657C207.289 336.904 201.025 326.094 194.743 315.295C193.756 313.599 192.185 311.618 194.59 310.073C197.197 308.399 198.083 310.993 199.019 312.597C206.654 325.679 214.217 338.803 221.871 352.033C225.229 351.81 227.543 349.753 230.084 348.331C232.496 346.979 230.968 345.084 230.255 343.55C225.271 332.828 220.206 322.143 215.17 311.445C214.177 309.335 213.161 307.235 212.229 305.098C211.487 303.399 210.569 301.508 213.075 300.48C215.349 299.548 215.98 301.538 216.661 302.961C220.614 311.226 224.494 319.525 228.39 327.817C230.374 332.04 232.29 336.294 234.33 340.489C235.461 342.814 236.169 345.676 240.081 343.91C243.301 342.457 245.384 341.295 244.074 336.968C240.217 324.229 236.803 311.355 233.237 298.528C232.816 297.015 231.728 295.534 233.399 292.74C240.382 308.301 247.05 323.162 253.654 337.878C261.824 336.756 261.903 336.668 260.027 329.715C256.863 317.984 253.527 306.296 250.61 294.504C250.019 292.112 246.596 288.076 251.04 287.029C255 286.096 254.465 291.111 255.207 293.641C258.72 305.615 261.925 317.679 265.233 329.712C266.006 332.523 266.507 335.413 270.769 333.851C274.147 332.614 278.38 333.246 276.992 326.983C274.295 314.818 272.444 302.466 270.244 290.19C270.068 289.207 269.752 288.219 269.769 287.237C269.799 285.409 268.492 282.699 271.383 282.254C274.288 281.807 273.997 284.676 274.332 286.492C276.712 299.419 279.134 312.341 281.292 325.306C281.947 329.24 283.275 331.319 287.694 330.746C291.612 330.238 294.3 329.438 293.754 324.458C292.377 311.893 291.277 299.295 290.235 286.697C290.036 284.291 288.123 280.437 291.579 279.755C295.938 278.895 294.434 283.58 294.665 285.581C296.116 298.135 297.173 310.737 298.183 323.337C298.46 326.789 299.199 328.982 303.362 328.967C307.171 328.954 308.594 327.729 308.739 323.779C309.204 311.135 310.057 298.505 310.777 285.871C310.813 285.232 311.001 284.602 311.254 283.237C312.781 285.676 312.918 287.731 312.934 289.805C313.025 301.303 313.108 312.801 313.18 324.299C313.195 326.787 313.393 329.215 310.644 330.817C308.846 331.865 309.448 334.103 309.3 335.894C307.285 360.273 305.268 384.653 303.236 409.031C303.17 409.818 303.179 410.736 301.964 411.027C300.172 410.264 300.816 408.532 300.81 407.22C300.792 403.34 299.44 400.042 296.827 397.266C292.75 392.934 291.496 387.833 292.359 382.057C293.031 377.562 291.45 374.42 285.894 372.648C288.972 379.764 286.674 384.987 282.75 390.229C279.816 394.147 281.176 398.54 284.065 402.245C285.616 404.235 287.051 406.233 287.768 408.691C289.559 414.832 288.111 417.031 281.924 418.49C278.75 419.238 275.743 420.692 271.645 422.201C274.641 423.151 276.593 423.77 278.546 424.39C278.665 424.778 278.784 425.167 278.902 425.556C272.427 428.421 263.869 426.991 258.963 434.12C262.696 435.625 266.854 433.386 270.459 436.749C261.736 436.251 256.753 441.614 251.328 447.856C258.482 447.986 264.911 445.325 271.504 446.854C266.921 451.289 259.567 448.925 254.962 454.201C258.635 455.515 262.298 453.827 265.758 455.687C263.685 459.089 259.512 458.32 256.975 461.161C260.996 461.877 264.771 462.55 269.605 463.411C264.851 468.576 257.364 463.75 253.956 469.589C256.133 472.222 260.13 471.057 262.409 473.736C261.394 477.254 257.036 476.437 254.486 479.876C258.238 479.876 261.143 479.867 264.047 479.879C265.546 479.886 267.423 479.354 268.486 480.049C278.044 486.294 292.173 484.806 297.59 498.619C299.192 502.704 304.302 506.551 308.174 509.808C314.859 515.43 312.671 521.803 312.543 528.466C309.471 528.399 308.267 526.358 306.6 525.128C303.218 522.633 301.127 523.267 300.258 527.348C299.068 532.931 298.549 538.681 299.666 544.235C300.652 549.142 300.137 553.491 297.709 557.684C295.85 560.894 295.917 563.394 299.871 564.661C311.072 568.25 314.978 575.683 313.422 587.334C312.373 595.193 313.244 603.307 313.236 611.307C313.234 613.737 313.16 616.07 309.746 616.19C306.056 616.321 305.841 613.944 305.844 611.24C305.847 608.907 305.769 606.574 305.712 604.242C305.56 597.932 302.702 595.795 296.695 597.543C295.42 597.914 294.003 598.344 293.927 599.998C293.864 601.353 294.942 601.963 296.01 602.524C300.202 604.726 300.197 604.736 303.726 609.043C301.936 613.259 298.815 614.345 294.941 612.127C291.027 609.886 289.416 611.196 288.182 615.083C286.566 620.173 285.643 625.012 288.568 629.988C291.467 634.919 290.308 639.931 288.374 644.905C286.903 648.685 286.539 652.299 292.028 655.809C290.274 647.673 294.788 643.878 299.666 639.8C303.902 636.259 303.221 631.235 301.083 626.425C299.435 622.715 298.592 618.921 301.673 615.409C304.183 615.957 304.015 617.846 304.108 619.411C305.212 637.863 306.266 656.317 307.329 674.771C307.674 680.75 308.007 686.73 308.347 692.71C308.413 693.875 308.279 695.569 309.352 695.889C314.736 697.497 313.13 701.846 313.179 705.384C313.324 715.882 313.289 726.383 313.255 736.882C313.247 739.456 313.589 742.141 311.297 745.953C310.748 739.231 310.315 733.939 309.882 728.646C309.164 719.855 308.214 711.074 307.828 702.267C307.643 698.077 305.073 698.088 302.216 697.613C298.529 696.999 297.939 699.425 297.686 702.032C296.835 710.805 296.088 719.588 295.325 728.369C294.879 733.506 294.551 738.654 294.021 743.781C293.844 745.492 293.886 747.875 291.132 747.498C288.677 747.163 289.374 745.17 289.503 743.538C290.585 729.936 291.718 716.338 292.677 702.727C293.011 697.992 288.957 695.087 284.356 696.303C282.122 696.893 282.322 698.71 282.048 700.254C279.782 713.027 277.566 725.81 275.343 738.591C275.172 739.573 275.196 740.61 274.892 741.544C274.41 743.021 274.475 745.271 272.089 744.96C269.421 744.612 269.908 742.525 270.23 740.679C272.202 729.379 274.183 718.081 276.135 706.777C276.475 704.811 276.383 702.717 277.025 700.868C278.527 696.538 277.194 694.493 272.696 693.522C268.022 692.512 266.57 694.623 265.563 698.65C262.493 710.924 259.202 723.144 255.815 735.335C255.234 737.429 255.633 741.541 252.108 740.565C248.272 739.502 250.818 736.022 251.39 733.762C254.575 721.181 257.938 708.644 261.322 696.114C262.085 693.286 262.517 691.116 258.729 690.004C255.53 689.064 253.34 688.975 251.926 692.521C250.447 696.23 248.652 699.813 246.835 703.795ZM280.213 574.083C284.77 569.082 288.006 563.008 286.177 556.528C284.403 550.246 284.937 542.679 278.633 538.063C277.93 537.548 277.957 535.917 277.808 534.783C277.156 529.813 276.053 529.111 271.948 532.126C267.263 535.567 262.808 535.658 258.119 532.569C255.372 530.759 252.368 531.063 249.424 531.493C247.082 531.835 245.94 533.1 247.096 535.735C249.263 540.677 251.627 545.328 256.743 547.999C259.687 549.537 262.338 551.602 264.627 554.055C267.792 557.444 269.251 561.189 267.607 565.896C265.383 572.259 266.736 574.175 273.536 574.612C275.513 574.739 277.513 574.495 280.213 574.083ZM253.852 660.242C251.992 668.261 248.847 675.975 247.681 683.981C251.331 686.602 253.345 685.946 254.947 682.215C258.62 673.662 262.609 665.244 266.446 656.76C272.2 644.033 277.943 631.3 283.668 618.56C284.623 616.434 286.059 613.817 282.7 612.778C278.153 611.371 273.831 609.081 268.435 608.588C263.629 625.627 258.858 642.545 253.852 660.242ZM206.863 646.365C222.038 630.805 237.212 615.245 252.7 599.363C247.841 595.474 243.488 591.991 238.884 588.306C234.962 592.172 232.457 596.685 229.475 600.809C218.072 616.574 206.734 632.386 195.39 648.193C194.143 649.931 192.507 651.618 195.223 653.652C197.627 655.452 199.187 654.25 200.795 652.59C202.648 650.679 204.508 648.775 206.863 646.365ZM265.64 368.785C262.105 360.891 258.574 352.995 255.032 345.105C253.993 342.792 253.086 340.259 249.645 341.625C246.212 342.988 248.337 345.513 248.394 347.594C248.408 348.077 248.649 348.553 248.781 349.033C252.708 363.291 256.624 377.552 260.566 391.805C262.894 400.222 265.263 408.627 267.681 417.276C273.708 415.744 279.086 414.377 285.266 412.806C278.635 397.948 272.282 383.716 265.64 368.785ZM184.441 581.008C175.233 587.306 166.021 593.599 156.82 599.906C154.91 601.214 152.644 602.236 154.634 605.339C156.523 608.284 158.407 606.988 160.565 605.946C177.655 597.688 194.77 589.482 211.866 581.235C216.461 579.018 221.013 576.714 226.059 574.216C222.825 568.931 219.93 564.199 216.712 558.94C205.856 566.362 195.445 573.479 184.441 581.008ZM193.248 526.949C173.901 531.793 154.553 536.637 135.206 541.48C132.698 542.108 132.294 543.525 132.969 545.971C133.897 549.338 136.235 548.709 138.519 548.418C150.883 546.842 163.261 545.475 175.703 544.605C185.815 543.898 195.89 542.655 205.98 541.638C207.916 541.443 209.898 541.009 209.389 538.447C208.432 533.631 207.233 528.862 206.05 523.708C201.72 524.782 197.874 525.737 193.248 526.949ZM191.727 500.657C193.016 500.975 194.315 501.255 195.591 501.617C205.784 504.5 205.783 504.505 207.63 494.452C208.999 487 208.998 487.007 201.68 486.097C199.87 485.872 198.073 485.523 196.259 485.34C177.106 483.42 157.949 481.534 138.798 479.601C136.235 479.342 133.643 478.84 132.864 482.301C131.988 486.196 135.169 486.094 137.423 486.681C155.244 491.33 173.081 495.92 191.727 500.657ZM237.37 437.36C240.249 435.114 242.982 432.641 246.043 430.679C250.105 428.074 249.976 426.09 246.558 422.681C230.991 407.159 215.709 391.351 200.315 375.656C198.925 374.239 198.045 371.534 195.193 373.575C192.243 375.686 193.53 377.771 195.089 379.951C204.294 392.822 213.393 405.77 222.708 418.561C227.3 424.867 231.334 431.602 237.37 437.36ZM219.167 461.699C220.485 458.749 223.239 456.475 223.492 453.028C222.934 452.585 222.589 452.193 222.154 451.984C201.489 442.035 180.818 432.098 160.142 422.171C158.048 421.166 155.969 419.785 154.19 422.827C152.307 426.046 154.988 426.933 156.777 428.166C174.43 440.336 192.113 452.461 209.79 464.596C215.498 468.514 215.501 468.509 219.167 461.699ZM178.37 564.132C182.529 562.077 186.691 562.008 190.817 564.195C195.132 566.484 199.5 566.186 202.904 562.993C206.495 559.625 209.659 555.846 214.929 554.17C212.307 550.385 213.476 544.485 209.074 543.765C204.571 543.029 199.979 545.627 197.256 549.887C194.101 554.824 189.544 557.01 183.905 557.357C180.705 557.554 178.068 558.801 176.42 561.591C175.663 562.872 174.862 564.62 178.37 564.132ZM248.991 620.866C247.835 624.609 245.533 627.629 243.094 630.621C240.721 633.533 240.096 636.669 243.615 640.89C244.813 632.999 250.123 630.83 256.019 628.716C260.812 626.997 262.955 622.588 262.424 617.434C262.158 614.853 262.089 612.319 263.335 610.145C266.373 604.847 261.354 604.581 258.925 602.746C256.057 600.579 254.12 601.519 251.896 604.266C247.927 609.171 249.446 614.698 248.991 620.866ZM213.042 595.523C211.112 597.407 208.719 598.548 206.401 599.863C202.189 602.252 201.233 605.189 203.359 609.614C206.659 603.266 212.037 602.275 218.281 602.858C222.754 603.276 226.152 600.74 227.757 596.829C229.594 592.356 231.332 587.969 236.011 584.589C231.939 582.296 231.174 576.423 226.552 577.315C222.125 578.168 218.995 581.952 217.553 586.572C217.504 586.73 217.446 586.891 217.429 587.054C217.098 590.168 215.549 592.691 213.042 595.523ZM193.104 522.674C196.282 520.909 199.277 518.707 203.16 518.684C204.425 518.677 205.254 518.066 205.722 516.765C208.313 509.549 205.072 505.302 197.524 506.255C195.919 506.457 194.085 506.822 192.867 507.769C187.342 512.065 181.414 512.185 174.944 510.527C170.619 509.419 167.306 511.118 165.211 516.733C172.768 513.186 177.617 516.112 182.239 520.931C184.84 523.643 188.575 524.462 193.104 522.674ZM207.247 428.743C207.301 439.215 211.959 445.693 222.865 446.758C223.024 446.774 223.176 446.874 223.328 446.942C227.486 448.797 230.776 447.245 233.536 441.77C235.428 438.014 231.724 437.003 229.821 435.276C228.882 434.423 227.461 433.625 226.255 433.62C218.358 433.587 213.444 429.12 209.143 423.126C206.966 420.093 203.679 419.447 199.469 421.846C202.95 423.645 205.492 425.23 207.247 428.743ZM190.029 466.875C187.711 465.576 185.465 464.118 183.055 463.022C180.777 461.985 178.359 461.463 176.283 464.983C182.75 466.392 185.901 470.693 188.108 476.234C189.329 479.302 192.432 480.909 195.739 481.163C200.173 481.503 204.612 480.054 209.099 481.09C210.181 481.34 210.817 480.209 211.196 479.27C212.303 476.529 213.352 473.764 214.431 470.989C210.241 467.591 205.832 466.53 201.052 467.658C197.517 468.493 194.152 468.433 190.029 466.875ZM261.475 412.034C253.974 407.645 248.192 402.035 246.189 393.04C245.563 390.229 242.673 388.819 239.351 389.588C242.767 396.722 242.725 396.717 241.392 406.41C240.774 410.906 242.318 414.66 246.105 417.194C249.13 419.218 252.125 421.22 254.207 424.162C266.51 418.618 265.674 418.808 261.475 412.034ZM247.282 512.738C246.182 513.964 244.857 515.113 246.08 517.695C255.801 516.729 265.498 514.754 275.473 512.314C270.585 506.491 258.116 506.728 247.282 512.738ZM253.338 499.832C259.577 503.493 266.383 501.314 273.727 502.979C268.283 494.423 260.537 493.442 253.338 499.832ZM301.105 584.685C302.858 584.471 303.769 583.518 303.641 581.718C303.565 580.641 303.032 579.612 301.932 579.661C299.127 579.787 296.698 580.787 295.045 583.353C296.732 585.035 298.607 584.652 301.105 584.685ZM190.32 390.182C188.644 388.027 186.967 385.872 185.291 383.717C184.954 384.069 184.618 384.421 184.281 384.773C188.434 389.091 192.587 393.408 196.739 397.726C197.074 397.403 197.408 397.08 197.743 396.758C195.428 394.736 193.113 392.714 190.32 390.182ZM143.958 513.827C145.444 513.716 146.93 513.605 148.416 513.494C142.769 512.27 137.221 511.834 131.724 513.833C135.518 513.833 139.311 513.833 143.958 513.827ZM143.706 499.332C145.354 499.599 147.025 500.064 149.744 498.712C143.229 497.794 137.97 496.603 132.596 498.481C136.023 498.699 139.449 498.917 143.706 499.332ZM214.187 655.72C215.742 653.177 217.933 650.977 217.932 647.538C214.563 652.466 211.193 657.395 207.824 662.323C208.232 662.601 208.639 662.88 209.047 663.159C210.637 660.882 212.227 658.605 214.187 655.72ZM295.663 693.949C295.862 694.184 296.061 694.419 296.26 694.655C296.376 694.537 296.588 694.422 296.592 694.3C296.8 688.844 298.504 683.438 297.028 677.903C296.666 683.086 294.703 688.093 295.663 693.949ZM226.307 664.846C227.635 662.097 229.769 659.679 229.915 656.421C226.998 661.118 223.385 665.398 222.464 671.205C223.624 669.292 224.783 667.379 226.307 664.846ZM268.602 681.143C269.142 678.251 270.411 675.449 269.233 672.294C267.844 677.883 266.456 683.472 265.067 689.061C267.449 687.073 267.492 684.341 268.602 681.143ZM195.456 631.653C195.664 631.013 196.906 630.811 196.184 629.531C191.469 633.154 187.459 637.236 184.02 641.864C184.311 642.153 184.602 642.443 184.892 642.732C188.282 639.185 191.672 635.639 195.456 631.653ZM215.67 373.742C213.108 370.914 211.677 367.126 207.861 365.318C211.315 370.195 214.768 375.073 218.221 379.951C218.539 379.728 218.857 379.504 219.175 379.281C218.136 377.625 217.096 375.969 215.67 373.742ZM281.908 690.355C283.023 685.417 284.226 680.489 283.889 675.361C281.743 680.413 281.098 685.726 280.951 691.123C280.938 691.61 281.265 691.698 281.587 691.343C281.69 691.229 281.715 691.044 281.908 690.355ZM222.304 356.49C222.145 356.451 221.97 356.352 221.831 356.389C221.694 356.425 221.471 356.65 221.494 356.704C223.769 362.026 226.68 366.968 229.897 371.724C230.256 371.519 230.615 371.314 230.974 371.11C228.204 366.362 225.434 361.614 222.304 356.49ZM184.226 620.183C180.897 623.471 176.637 625.756 174.009 629.812C178.991 627.127 183.024 623.365 186.332 618.751C185.78 619.098 185.228 619.445 184.226 620.183ZM283.82 348.089C282.984 343.611 282.149 339.132 281.313 334.654C280.839 334.76 280.365 334.866 279.89 334.972C281.03 340.587 282.169 346.201 283.309 351.816C283.708 351.739 284.108 351.661 284.508 351.584C284.324 350.657 284.14 349.73 283.82 348.089ZM265.755 338.793C265.495 338.335 265.22 337.894 264.735 338.576C264.657 338.686 264.681 338.905 264.721 339.057C266.115 344.47 267.517 349.881 268.918 355.292C269.409 349.626 267.386 344.554 265.755 338.793ZM176.943 607.694C172.442 610.803 167.942 613.912 163.442 617.021C163.72 617.395 163.999 617.768 164.278 618.141C168.525 614.462 174.35 612.914 176.943 607.694ZM145.141 453.578C149.265 454.762 152.992 457.336 157.679 456.61C152.655 454.877 147.631 453.144 142.607 451.411C142.506 451.718 142.405 452.025 142.303 452.332C143.047 452.651 143.791 452.97 145.141 453.578ZM146.999 468.585C143.995 467.826 140.99 467.067 137.985 466.308C142.89 469.209 148.114 470.692 153.775 470.548C151.764 469.981 149.752 469.413 146.999 468.585ZM157.483 570.336C157.524 570.175 157.628 569.996 157.588 569.858C157.549 569.721 157.323 569.505 157.25 569.53C152.269 571.249 147.295 572.989 142.32 574.728C147.79 574.938 152.286 572.401 157.483 570.336ZM163.062 583.782C163.411 583.471 163.945 583.165 163.145 582.778C163.025 582.72 162.816 582.798 162.666 582.857C157.664 584.821 152.709 586.877 148.646 590.759C153.297 588.529 157.949 586.299 163.062 583.782ZM150.221 556.567C145.884 557.881 141.547 559.196 137.21 560.51C142.289 560.738 146.989 559.377 151.458 557.529C153.521 556.677 151.721 556.444 150.221 556.567ZM235.727 350.679C237.747 354.958 239.766 359.236 241.786 363.514C242.161 363.319 242.535 363.125 242.91 362.93C240.611 357.966 238.312 353.001 235.871 347.731C234.776 349.001 235.298 349.568 235.727 350.679ZM297.297 333.626C297.072 333.411 296.848 333.197 296.623 332.983C296.525 333.087 296.347 333.187 296.341 333.297C296.067 338.633 296.989 343.808 298.767 348.885C298.343 343.995 297.919 339.105 297.297 333.626ZM165.019 409.959C164.767 410.046 164.514 410.133 164.262 410.221C164.317 410.372 164.328 410.572 164.434 410.666C168.538 414.326 173.192 417.128 178.463 419.01C174.132 416.07 169.801 413.129 165.019 409.959ZM149.593 438.752C154.091 440.675 158.327 443.275 163.27 444.087C159.108 441.68 154.761 439.711 150.397 437.782C149.831 437.531 149.149 437.177 148.605 437.84C148.551 437.905 148.92 438.318 149.593 438.752ZM242.52 664.79C242.415 664.662 242.333 664.474 242.199 664.423C242.065 664.373 241.774 664.409 241.732 664.495C239.604 668.866 237.496 673.246 235.386 677.625C235.828 677.833 236.27 678.04 236.712 678.248C238.65 673.937 240.587 669.626 242.52 664.79ZM183.191 406.978C184.179 407.423 184.633 409.189 186.353 408.129C183.71 405.184 180.74 402.772 176.914 401.358C178.832 403.105 180.751 404.853 183.191 406.978ZM140.259 528.057C137.716 528.194 135.068 527.751 131.555 529.563C136.901 530.432 140.783 528.744 144.782 528.041C143.541 528.041 142.299 528.041 140.259 528.057Z" fill="#EE3838"/>
<path d="M436.423 472.443C434.656 460.571 432.986 449.123 431.316 437.675C431.046 437.649 430.775 437.622 430.504 437.595C426.088 452.86 421.612 468.107 417.292 483.399C415.878 488.403 413.09 491.631 407.761 492.235C401.719 492.919 397.533 490.047 395.628 483.565C391.876 470.794 388.296 457.972 384.612 445.18C384.025 443.141 383.264 441.151 382.128 439.162C379.554 448.129 378.639 457.289 377.281 466.37C376.371 472.453 375.699 478.589 374.407 484.592C373.116 490.591 368.763 493.199 362.948 492.163C357.784 491.243 354.329 486.706 355.239 481.085C358.982 457.949 362.863 434.834 366.859 411.741C367.825 406.157 372.894 402.163 378.553 401.787C384.717 401.377 390.272 405.009 392.242 411.257C396.042 423.311 399.594 435.444 403.263 447.539C404.07 450.199 404.936 452.841 406.949 455.59C409.513 447.264 412.086 438.94 414.64 430.61C416.591 424.247 418.38 417.83 420.496 411.523C422.674 405.03 428.407 401.226 434.527 401.837C440.691 402.451 445.226 406.801 446.35 413.483C449.991 435.118 453.641 456.751 457.106 478.415C458.564 487.523 454.932 492.482 447.482 492.268C442.991 492.139 439.703 490.155 438.677 485.634C437.724 481.432 437.222 477.128 436.423 472.443Z" fill="black"/>
<path d="M708.354 524.885C710.576 523.813 712.55 523.657 714.57 523.662C723.23 523.684 731.892 523.606 740.552 523.694C751.365 523.805 760.236 529.686 763.691 538.872C767.505 549.012 765.108 558.128 756.622 565.805C756.383 566.022 756.237 566.34 756.041 566.62C756.118 567.956 757.353 567.997 758.163 568.393C769.28 573.819 774.421 582.516 773.218 593.958C771.948 606.032 764.116 615.251 752.676 618.272C746.439 619.919 740.091 619.261 733.782 619.348C727.288 619.438 720.79 619.426 714.296 619.327C707.431 619.223 702.955 615.395 702.908 608.727C702.732 583.912 702.807 559.095 702.914 534.28C702.93 530.466 704.491 527.145 708.354 524.885ZM729.722 579.935C725.694 579.504 723.917 581.125 724.221 585.34C724.496 589.149 724.334 592.997 724.241 596.824C724.174 599.55 725.281 600.787 728.08 600.711C732.406 600.593 736.754 600.889 741.062 600.58C746.984 600.154 750.914 595.77 750.972 590.053C751.026 584.713 747.658 581.028 741.63 580.34C738.005 579.927 734.319 580.048 729.722 579.935ZM737.345 542.835C736.536 542.678 735.728 542.395 734.917 542.383C721.822 542.194 724.439 541.594 724.296 552.21C724.174 561.32 724.273 561.291 734.238 560.866C738.799 560.671 742.349 559.061 743.587 554.309C744.988 548.932 743.429 545.902 737.345 542.835Z" fill="black"/>
<path d="M424.654 535.332C442.862 552.399 442.862 591.006 426.126 606.788C417.733 614.703 407.919 618.964 396.491 619.301C387.675 619.56 378.844 619.406 370.021 619.342C361.704 619.282 358.059 615.631 357.939 606.955C357.799 596.968 357.919 586.977 357.921 576.988C357.924 563.835 357.876 550.682 357.937 537.529C357.985 527.231 361.575 523.548 371.726 523.708C381.532 523.862 391.363 522.948 401.144 524.393C409.949 525.694 417.689 529.253 424.654 535.332ZM379.332 572.5C379.332 577.489 379.22 582.481 379.354 587.466C379.727 601.439 376.302 600.004 392.132 599.752C405.638 599.538 413.061 592.769 415.844 579.444C417.253 572.699 416.576 566.224 414.731 559.773C411.935 549.996 404.08 543.825 393.887 543.351C390.568 543.197 387.231 543.436 383.913 543.274C380.407 543.102 379.236 544.691 379.294 548.052C379.428 555.866 379.334 563.684 379.332 572.5Z" fill="black"/>
<path d="M867.879 557.468C870.846 572.334 870.214 586.389 862.36 599.341C852.337 615.87 837.06 622.753 818.354 620.862C798.492 618.854 785.35 607.374 779.511 588.369C774.126 570.843 776.109 553.912 787.495 539.158C798.97 524.288 814.8 519.334 832.857 523.091C851.374 526.944 862.546 539.135 867.879 557.468ZM803.108 553.684C797.82 564.836 797.595 576.206 802.223 587.532C805.99 596.754 814.084 601.996 823.776 601.614C833.693 601.222 840.777 596.264 844.594 587.071C848.294 578.159 848.63 569.024 845.904 559.726C842.952 549.662 836.633 543.03 826.151 541.684C816.38 540.43 808.642 544.495 803.108 553.684Z" fill="black"/>
<path d="M689.738 548.458C698.572 570.449 696.976 590.877 680.464 608.086C667.047 622.068 649.88 624.584 632.036 618.17C614.607 611.905 605.445 598.201 602.794 580.265C600.458 564.465 603.227 549.548 614.107 537.299C636.06 512.581 674.53 518.229 689.738 548.458ZM662.307 546.13C646.783 536.416 630.015 543.036 625.421 560.742C623.505 568.127 623.513 575.625 625.522 582.928C628.181 592.592 633.996 599.586 644.361 601.306C653.219 602.777 660.83 599.972 666.454 592.797C676.372 580.142 674.576 557.665 662.307 546.13Z" fill="black"/>
<path d="M575.392 417.637C584.833 430.163 594.058 442.404 603.294 454.637C603.482 454.887 603.795 455.044 604.499 455.597C604.587 453.718 604.721 452.153 604.724 450.588C604.751 438.422 604.692 426.257 604.784 414.092C604.844 406.272 608.219 402.076 614.33 401.851C620.718 401.616 624.496 405.657 624.828 413.688C625.11 420.51 624.961 427.35 624.968 434.183C624.983 449.348 625.004 464.513 624.966 479.678C624.953 484.965 623.771 489.706 618.073 491.763C613.63 493.368 608.903 491.252 604.884 485.948C594.621 472.402 584.378 458.84 574.09 445.312C572.697 443.48 571.503 441.431 569.411 440.126C567.611 441.099 568.384 442.78 568.376 444.09C568.3 456.255 568.357 468.421 568.296 480.586C568.259 488.05 564.478 492.377 558.284 492.255C552.316 492.138 548.74 487.892 548.726 480.641C548.684 458.143 548.718 435.645 548.693 413.148C548.688 408.25 550.095 404.259 555.13 402.447C559.375 400.919 563.871 402.563 567.338 406.985C570.01 410.394 572.568 413.893 575.392 417.637Z" fill="black"/>
<path d="M888.019 489.231C869.645 480.926 861.147 460.428 863.178 441.773C864.701 427.792 870.168 416.01 882.07 408.155C908.833 390.493 944.046 407.033 948.364 438.868C950.069 451.436 948.23 463.198 941.459 473.799C929.968 491.789 909.247 497.66 888.019 489.231ZM888.685 428.271C882.093 439.425 881.553 450.98 886.905 462.665C890.486 470.485 896.92 474.558 905.546 474.669C914.353 474.783 920.924 470.815 924.883 462.912C929.269 454.156 929.666 445.082 926.772 435.751C920.655 416.027 898.014 414.877 888.685 428.271Z" fill="black"/>
<path d="M889.525 574.662C879.733 570.205 874.655 562.883 874.85 552.491C875.071 540.722 880.392 531.561 890.927 526.163C903.369 519.788 916.097 520.717 928.445 526.618C934.478 529.501 936.43 534.516 934.453 539.706C932.392 545.113 927.983 547.347 921.956 545.814C918.736 544.995 915.605 543.829 912.423 542.856C909.978 542.109 907.458 542.031 905.018 542.692C901.497 543.647 898.392 545.18 898.086 549.491C897.79 553.672 900.596 555.452 903.87 556.614C909.674 558.673 915.592 560.409 921.39 562.483C935.838 567.653 942.704 577.041 942.222 590.728C941.742 604.384 932.748 615.521 919.128 619.403C906.731 622.936 894.692 621.234 882.97 616.661C878.057 614.744 874.571 611.272 874.669 605.372C874.771 599.197 878.639 595.458 884.841 595.702C889.43 595.882 893.507 597.99 897.805 599.257C902.68 600.694 907.546 601.574 912.468 599.565C916.559 597.895 918.846 594.894 918.991 590.395C919.126 586.18 916.371 584.123 913.025 582.629C905.554 579.295 897.236 578.458 889.525 574.662Z" fill="black"/>
<path d="M500.408 574.11C498.301 579.304 494.352 580.987 489.509 581.063C484.512 581.141 479.508 581.211 474.518 581.019C470.768 580.875 469.231 582.071 469.203 586.126C469.106 599.914 468.96 599.908 482.778 599.893C486.442 599.889 490.124 599.71 493.767 600.004C499.933 600.502 503.467 604.387 503.292 610.036C503.115 615.744 499.402 619.283 493.149 619.338C482.322 619.434 471.493 619.388 460.665 619.351C451.743 619.321 447.884 615.56 447.859 606.622C447.803 586.465 447.854 566.308 447.874 546.151C447.878 542.487 447.684 538.799 448.029 535.164C448.796 527.091 452.678 523.692 460.788 523.67C470.95 523.643 481.112 523.614 491.274 523.696C498.047 523.75 502.224 527.557 502.186 533.395C502.148 539.244 497.974 543.117 491.281 543.257C485.453 543.379 479.618 543.371 473.79 543.233C470.705 543.16 469.365 544.122 469.216 547.469C468.61 561.11 468.508 561.073 482.067 561.126C485.223 561.139 488.395 561.296 491.529 561.655C498.545 562.459 501.496 566.514 500.408 574.11Z" fill="black"/>
<path d="M488.475 468.473C494.377 474.668 501.192 476.354 508.75 473.385C517.29 470.029 520.414 462.751 520.585 454.242C520.863 440.429 520.693 426.606 520.658 412.787C520.648 408.474 521.893 404.863 525.976 402.846C532.595 399.576 540.049 403.957 540.148 411.541C540.356 427.521 540.669 443.525 540.026 459.483C539.292 477.728 522.06 492.896 502.926 493.138C482.965 493.391 466.347 479.184 464.644 460.417C463.226 444.796 464.245 429.147 464.114 413.511C464.101 412.032 464.423 410.526 464.758 409.072C465.848 404.335 469.219 401.754 474.131 401.793C478.988 401.83 482.312 404.487 483.417 409.219C484.223 412.669 483.925 416.179 483.953 419.668C484.052 431.819 484.147 443.971 484.178 456.123C484.189 460.628 485.575 464.611 488.475 468.473Z" fill="black"/>
<path d="M803.713 402.714C824.963 405.395 836.871 422.476 831.242 441.546C827.827 453.112 817.011 461.514 804.542 462.259C802.879 462.359 801.21 462.364 799.544 462.389C788.123 462.561 788.138 462.559 788.101 474.236C788.091 477.399 788.239 480.599 787.82 483.716C787.098 489.097 783.563 492.11 778.388 492.269C773.308 492.425 769.661 489.532 768.509 484.226C768.124 482.454 767.997 480.595 767.993 478.776C767.954 458.11 767.947 437.444 767.98 416.778C767.983 414.792 768.125 412.769 768.517 410.826C769.623 405.348 772.61 402.794 778.249 402.717C786.581 402.602 794.915 402.697 803.713 402.714ZM788.123 439.263C787.485 443.729 789.557 445.304 793.834 444.824C795.803 444.603 797.817 444.819 799.809 444.76C807.331 444.54 811.861 439.9 811.837 432.482C811.813 425.037 807.285 420.461 799.717 420.285C797.227 420.227 794.73 420.371 792.245 420.244C789.244 420.091 788.055 421.407 788.124 424.371C788.232 429.018 788.135 433.671 788.123 439.263Z" fill="black"/>
<path d="M725.763 423.14C721.712 425.228 718.268 423.856 714.835 422.5C709.121 420.244 703.234 419.349 697.24 420.922C687.118 423.578 681.027 432.596 680.354 445.4C680.141 449.445 680.704 453.383 681.822 457.23C685.651 470.412 696.255 476.425 709.656 472.977C712.219 472.317 714.703 471.298 717.163 470.295C722.976 467.927 727.07 468.88 729.753 473.338C732.499 477.904 731.222 483.458 726.368 486.929C720.327 491.248 713.245 492.632 706.068 493.054C682.848 494.42 663.856 478.676 660.699 455.597C658.354 438.442 662.03 423.163 675.25 411.106C687.645 399.802 710.314 397.511 723.887 406.058C731.17 410.644 731.998 416.903 725.763 423.14Z" fill="black"/>
<path d="M547.739 549.001C547.739 543.84 547.644 539.176 547.763 534.517C547.951 527.142 552.119 522.696 558.573 522.785C564.965 522.873 569.02 527.233 569.102 534.819C569.27 550.301 569.172 565.785 569.188 581.267C569.193 586.095 569.29 590.925 569.19 595.75C569.128 598.742 570.422 599.949 573.367 599.905C579.192 599.819 585.021 599.808 590.847 599.903C597.999 600.018 602.361 603.803 602.294 609.655C602.226 615.581 597.856 619.34 590.846 619.363C580.525 619.398 570.203 619.394 559.881 619.336C551.744 619.291 547.829 615.44 547.775 606.937C547.652 587.792 547.738 568.646 547.739 549.001Z" fill="black"/>
<path d="M836.768 471.988C836.768 452.167 836.786 432.844 836.757 413.52C836.751 409.697 837.386 406.147 840.69 403.751C843.934 401.4 847.512 401.159 851.097 402.886C855.011 404.771 856.346 408.2 856.345 412.335C856.339 430.992 856.346 449.649 856.345 468.306C856.344 472.97 856.43 477.637 856.299 482.298C856.133 488.225 852.2 492.207 846.683 492.261C841.14 492.315 837.173 488.477 836.829 482.479C836.639 479.158 836.778 475.818 836.768 471.988Z" fill="black"/>
<path d="M738.689 459C738.691 443.343 738.688 428.186 738.699 413.029C738.703 408.365 740.097 404.486 744.815 402.575C751.684 399.793 758.243 404.431 758.307 412.361C758.425 427.017 758.344 441.675 758.345 456.332C758.345 464.66 758.413 472.989 758.319 481.316C758.243 488.014 754.429 492.198 748.598 492.26C742.72 492.322 738.847 488.228 738.727 481.485C738.595 474.159 738.692 466.829 738.689 459Z" fill="black"/>
<path d="M653.346 474.961C653.326 478.118 653.475 480.797 653.248 483.444C652.834 488.279 649.212 491.815 644.539 492.232C639.442 492.686 635.449 489.842 634.164 484.822C634 484.181 633.848 483.512 633.847 482.856C633.829 459.039 633.794 435.221 633.866 411.403C633.877 407.881 635.461 404.956 638.639 403.136C645.057 399.46 652.742 403.506 653.25 411.013C653.563 415.656 653.345 420.336 653.347 425C653.351 441.489 653.347 457.979 653.346 474.961Z" fill="black"/>
</svg>
