<svg version="1.1" id="Layer_1" xmlns="http://www.w3.org/2000/svg" xmlns:xlink="http://www.w3.org/1999/xlink" x="0px" y="0px"
	 width="100%" viewBox="0 0 1015 549" enable-background="new 0 0 1015 549" xml:space="preserve">
<path fill="#FEFEFF" opacity="1.000000" stroke="none" 
	d="
M737.000000,550.000000 
	C491.333344,550.000000 246.166672,550.000000 1.000000,550.000000 
	C1.000000,367.000000 1.000000,184.000000 1.000000,1.000000 
	C339.333344,1.000000 677.666687,1.000000 1016.000000,1.000000 
	C1016.000000,184.000000 1016.000000,367.000000 1016.000000,550.000000 
	C923.166687,550.000000 830.333313,550.000000 737.000000,550.000000 
M850.257080,268.755981 
	C858.068665,276.001740 866.549255,282.191467 877.421021,285.921844 
	C882.951965,287.167969 888.482971,288.414124 894.919617,289.894989 
	C900.307800,289.777435 905.696045,289.659912 911.964722,289.563995 
	C917.776855,288.116821 923.588989,286.669617 930.118408,285.140045 
	C935.105713,282.837677 940.093018,280.535309 945.776367,278.079407 
	C950.926941,274.423553 956.077515,270.767670 961.851990,266.880005 
	C966.589600,261.931488 971.327209,256.983002 976.653076,251.715759 
	C981.810730,242.828705 986.968384,233.941666 992.667358,224.595673 
	C1008.534546,187.727798 1011.625000,148.897385 1010.877747,109.165443 
	C1003.912292,109.165443 997.458191,109.165443 990.081421,109.017967 
	C984.719727,109.311005 979.358093,109.604050 973.090698,109.744942 
	C968.727783,110.182999 964.364868,110.621056 959.139954,110.959496 
	C954.095398,111.693443 949.050903,112.427391 943.201904,113.085869 
	C936.522156,114.281624 929.842407,115.477379 923.133484,115.921097 
	C922.106201,112.941307 921.078918,109.961525 920.035583,106.239319 
	C918.779785,103.462921 917.523987,100.686523 916.179077,97.153435 
	C915.602539,95.607979 915.130188,94.013824 914.434143,92.524239 
	C900.062317,61.770424 878.674744,36.264004 854.664368,12.728008 
	C853.062073,11.157439 851.341980,9.707112 849.030029,7.615931 
	C838.214417,19.455227 827.417419,30.540661 817.468689,42.341217 
	C803.501770,58.907658 791.380737,76.764946 782.778870,97.617294 
	C781.592468,100.747437 780.406128,103.877571 778.897949,107.688133 
	C777.923950,110.746521 776.949951,113.804909 775.199219,116.993797 
	C773.132263,116.646004 771.065369,116.298210 768.358521,115.521484 
	C763.906799,114.724228 759.455078,113.926979 754.218689,112.872406 
	C749.480042,112.279915 744.741394,111.687424 739.183838,110.861069 
	C734.139282,110.498642 729.094666,110.136208 723.325134,109.393814 
	C718.218567,109.317574 713.112061,109.241333 707.076965,109.025513 
	C701.143921,109.025513 695.210938,109.025513 689.112854,109.025513 
	C688.401367,133.281586 688.386230,156.949707 693.628296,180.114792 
	C696.834778,194.284363 701.815979,208.052322 706.040710,222.726532 
	C711.584167,232.205017 717.127625,241.683502 722.925049,251.799210 
	C728.303467,257.158478 733.681885,262.517731 739.412842,268.448883 
	C744.263672,271.638702 749.114502,274.828491 754.399841,278.554321 
	C759.267883,280.670044 764.135925,282.785797 769.633545,285.310089 
	C774.090515,286.465607 778.547424,287.621124 783.826416,289.000946 
	C788.885925,289.277954 793.945435,289.554932 799.895569,289.967407 
	C805.930725,288.967560 811.965881,287.967712 818.756226,286.987213 
	C830.421570,283.301361 840.756104,277.450653 849.495117,268.249390 
	C849.495117,268.249390 849.909302,268.196808 850.257080,268.755981 
M175.410538,474.069550 
	C185.349960,474.069122 185.719025,473.902618 185.722733,467.615448 
	C185.752274,417.619080 185.750320,367.622742 185.725464,317.626373 
	C185.722702,312.072754 184.666504,311.126587 178.841949,311.113373 
	C167.176193,311.086884 155.506485,311.280762 143.846268,311.025299 
	C138.628830,310.910950 135.611191,312.899658 133.401581,317.623077 
	C122.052155,341.884308 110.464241,366.033997 98.945023,390.215698 
	C98.215973,391.746155 97.363213,393.217712 96.251228,395.313782 
	C94.928635,392.567047 93.918892,390.491058 92.926895,388.406647 
	C81.630730,364.671234 70.298340,340.952942 59.084450,317.178711 
	C57.370239,313.544464 55.183720,311.086060 50.883915,311.097260 
	C38.051609,311.130737 25.219118,311.127838 12.386797,311.097382 
	C8.673409,311.088593 6.963406,312.705170 6.967162,316.549835 
	C7.016659,367.212738 7.021200,417.875793 6.959455,468.538666 
	C6.954450,472.645386 8.669555,474.181488 12.681505,474.112671 
	C21.178377,473.966888 29.679508,474.075195 38.178883,474.067657 
	C45.309616,474.061340 45.791149,473.590912 45.793530,466.385681 
	C45.803047,437.554443 45.797478,408.723236 45.797493,379.891998 
	C45.797493,378.172272 45.797497,376.452515 45.797497,374.732788 
	C47.452183,376.030396 48.212791,377.432770 48.898083,378.871033 
	C59.704002,401.550446 70.571114,424.201324 81.230034,446.949677 
	C83.040764,450.814148 85.404022,452.542999 89.679298,452.216064 
	C93.490021,451.924652 97.377861,451.818665 101.165077,452.235626 
	C106.874428,452.864197 109.923767,450.432251 112.280373,445.338318 
	C122.408691,423.445465 132.863495,401.703613 143.212769,379.913116 
	C144.174713,377.887756 145.231186,375.907257 146.243774,373.905945 
	C146.495346,373.968903 146.746933,374.031860 146.998505,374.094849 
	C146.998505,375.682953 146.998505,377.271057 146.998505,378.859161 
	C146.998505,408.023712 146.997116,437.188232 146.999420,466.352783 
	C147.000031,474.027405 147.041672,474.064911 154.933319,474.068787 
	C161.432846,474.071991 167.932373,474.069519 175.410538,474.069550 
M659.086548,324.414246 
	C657.434937,322.114258 655.593079,319.925354 654.171875,317.490814 
	C651.338135,312.636658 647.313599,310.798096 641.705383,311.022125 
	C633.385864,311.354523 625.041870,311.201141 616.711182,311.070007 
	C612.573547,311.004852 610.621582,312.497070 610.627747,316.888184 
	C610.699036,367.384491 610.702881,417.880951 610.623169,468.377197 
	C610.616211,472.757904 612.378052,474.232758 616.624023,474.128296 
	C625.118286,473.919281 633.621277,474.074188 642.120667,474.064392 
	C648.910156,474.056549 649.146729,473.834320 649.149353,466.997589 
	C649.159851,439.499542 649.153625,412.001526 649.153625,384.503479 
	C649.153625,382.943085 649.153625,381.382690 649.153625,378.466553 
	C651.107117,381.059265 652.208008,382.464447 653.250244,383.911804 
	C673.494385,412.026672 693.778748,440.112854 713.917297,468.303162 
	C716.794922,472.331299 720.035095,474.356659 725.146973,474.158722 
	C733.800049,473.823639 742.478027,473.942322 751.140442,474.119415 
	C755.283630,474.204102 757.216003,472.913361 757.208069,468.430511 
	C757.118408,417.934265 757.122314,367.437744 757.205627,316.941498 
	C757.212891,312.554291 755.352295,311.010773 751.194275,311.072113 
	C742.863342,311.195007 734.529358,311.099457 726.196594,311.110779 
	C719.037903,311.120514 718.676025,311.487305 718.674072,318.872070 
	C718.666687,346.036804 718.671143,373.201538 718.671143,400.366272 
	C718.671143,402.058624 718.671143,403.750977 718.671143,405.443329 
	C718.303650,405.499176 717.936157,405.555023 717.568665,405.610870 
	C698.218567,378.736176 678.868469,351.861481 659.086548,324.414246 
M920.155518,437.619995 
	C931.771301,418.613495 935.844727,398.080475 931.370056,376.281158 
	C921.929077,330.287598 878.931274,301.409393 832.805603,310.384888 
	C801.078613,316.558563 779.059570,335.339813 769.459290,366.169525 
	C759.521057,398.084534 765.381287,427.837860 789.157043,452.169403 
	C826.069519,489.945007 889.968384,482.820557 920.155518,437.619995 
M200.281418,358.840790 
	C192.662201,377.518738 191.514191,396.705444 196.735291,416.071167 
	C206.994431,454.123566 240.714859,477.826996 281.646881,476.200439 
	C330.633423,474.253845 367.505524,430.197083 360.770447,381.659363 
	C355.355286,342.633698 327.252472,314.623962 286.525085,309.546112 
	C249.756271,304.961761 215.577087,324.179657 200.281418,358.840790 
M408.110138,449.499969 
	C408.110138,440.090179 408.110138,430.680389 408.110138,421.355103 
	C417.653320,420.679474 417.638428,420.688721 421.984802,427.683624 
	C430.508362,441.401123 438.953003,455.169708 447.683685,468.754333 
	C449.080231,470.927216 451.731506,473.647369 453.905457,473.741516 
	C465.715759,474.252960 477.559540,474.089783 489.386993,473.884979 
	C490.169037,473.871460 491.426392,471.624512 491.515778,470.350037 
	C491.592194,469.259796 490.323456,468.064850 489.623840,466.932159 
	C479.049591,449.812714 468.471130,432.695862 457.687134,415.244293 
	C466.962921,410.169525 474.746307,403.623016 480.050293,394.775665 
	C491.169464,376.228333 491.169159,356.927765 481.331329,338.092224 
	C471.729797,319.709045 455.314331,311.515564 434.982971,311.182739 
	C416.155518,310.874512 397.319214,311.107208 378.486786,311.104980 
	C369.713409,311.103943 369.328125,311.493896 369.327637,320.468781 
	C369.325104,368.633148 369.326355,416.797546 369.327332,464.961914 
	C369.327362,466.295135 369.302368,467.629761 369.352905,468.961304 
	C369.479370,472.292786 370.853210,474.160461 374.568726,474.109863 
	C384.066498,473.980591 393.568054,473.995575 403.066345,474.104248 
	C406.714905,474.145966 408.187958,472.562164 408.132812,468.998627 
	C408.037445,462.833740 408.108765,456.666321 408.110138,449.499969 
M597.495789,436.781982 
	C595.517273,436.607941 593.539185,436.287659 591.560242,436.282867 
	C574.894043,436.242462 558.227661,436.259796 541.561340,436.259735 
	C539.790771,436.259735 538.020142,436.259735 536.143677,436.259735 
	C536.143677,427.560272 536.143677,419.508057 536.143677,411.069275 
	C538.281494,411.069275 540.087524,411.069305 541.893555,411.069244 
	C556.393250,411.068878 570.894104,410.965485 585.391907,411.130798 
	C589.736450,411.180359 591.354126,409.526215 591.259094,405.242310 
	C591.074341,396.913239 591.054626,388.573425 591.264282,380.245544 
	C591.379578,375.664612 589.489136,374.050171 585.027100,374.095551 
	C570.528870,374.242859 556.028259,374.149750 541.528564,374.149261 
	C539.756653,374.149200 537.984741,374.149231 536.136475,374.149231 
	C536.136475,365.456604 536.136475,357.403656 536.136475,349.001160 
	C538.278015,349.001160 540.083618,349.001160 541.889282,349.001160 
	C559.055603,349.001007 576.222351,348.934204 593.387817,349.052399 
	C597.190247,349.078583 599.568054,348.053040 599.567749,343.860718 
	C599.566956,334.694519 599.584595,325.528259 599.560364,316.362122 
	C599.550537,312.641968 597.665527,311.066376 593.909424,311.074036 
	C563.410217,311.136139 532.910828,311.118591 502.411499,311.097351 
	C498.694977,311.094788 496.968781,312.716461 496.972076,316.546570 
	C497.015381,367.212128 497.019897,417.877716 496.964417,468.543243 
	C496.959961,472.636078 498.695679,474.123108 502.705994,474.112427 
	C533.205078,474.031281 563.704712,474.020447 594.203674,474.121796 
	C598.606506,474.136414 600.088562,472.267426 600.015564,468.090393 
	C599.864258,459.426544 600.057068,450.756592 599.894104,442.093201 
	C599.862854,440.429718 598.849060,438.784698 597.495789,436.781982 
M597.787781,529.544373 
	C597.787781,526.202148 597.787781,522.859863 597.787781,519.517639 
	C601.366821,524.789856 604.039001,530.096497 606.446777,535.520508 
	C607.579346,538.071777 608.913696,539.354553 611.976624,539.296265 
	C614.836975,539.241760 616.051270,538.042419 617.113831,535.669739 
	C619.659546,529.985291 622.447632,524.409485 625.137817,518.789795 
	C625.456238,518.849182 625.774597,518.908569 626.092957,518.967957 
	C626.092957,527.648926 626.092957,536.329895 626.092957,544.980225 
	C629.916199,544.980225 633.174316,544.980225 636.680176,544.980225 
	C636.680176,529.922974 636.680176,515.186218 636.680176,499.826050 
	C633.823975,499.826050 631.173706,500.113403 628.611145,499.761902 
	C624.245605,499.163025 622.066162,501.013855 620.450439,504.973328 
	C618.027893,510.909760 614.975464,516.589172 611.810303,523.168945 
	C608.331482,515.917175 605.371643,509.490509 602.137024,503.205231 
	C601.426514,501.824615 599.833862,500.150299 598.483704,499.989899 
	C594.765198,499.548096 590.959900,499.837250 587.080933,499.837250 
	C587.080933,515.231995 587.080933,529.985535 587.080933,544.866760 
	C590.692932,544.866760 594.038635,544.866760 597.787781,544.866760 
	C597.787781,539.803711 597.787781,535.165588 597.787781,529.544373 
M560.237610,518.500488 
	C560.237610,512.395691 560.237610,506.290955 560.237610,500.121399 
	C556.322815,500.121399 553.081116,500.121399 549.075928,500.121399 
	C549.075928,508.509247 549.075928,516.618042 549.075928,525.987793 
	C543.620789,518.422974 539.049866,512.079773 534.474060,505.740143 
	C529.635193,499.036133 528.081848,498.499329 519.342468,500.587677 
	C519.342468,515.297180 519.342468,530.046387 519.342468,544.984680 
	C522.977966,544.984680 526.369263,544.984680 530.303345,544.984680 
	C530.303345,536.477539 530.303345,528.311646 530.303345,519.068176 
	C535.496460,526.260681 540.511658,532.154907 544.302002,538.752686 
	C548.081787,545.332153 553.159302,546.404114 560.237671,544.743835 
	C560.237671,536.419067 560.237671,527.959717 560.237610,518.500488 
M323.108154,269.629211 
	C324.251038,267.363251 325.393951,265.097321 326.536835,262.831390 
	C326.940735,262.927826 327.344635,263.024261 327.748535,263.120697 
	C327.748535,270.471924 327.748535,277.823181 327.748535,285.359894 
	C331.271118,285.359894 334.133575,285.359894 337.116089,285.359894 
	C337.116089,271.600189 337.116089,258.240295 337.116089,244.712692 
	C335.404266,244.617477 334.072266,244.671432 332.787750,244.449966 
	C326.982239,243.449081 323.601837,245.726242 321.671692,251.388351 
	C320.115051,255.954865 317.529510,260.170654 314.959991,265.446411 
	C312.332275,260.037262 309.810944,255.885284 308.262695,251.397598 
	C306.322510,245.773895 302.985016,243.951721 297.125092,244.283569 
	C292.980347,244.518265 292.159668,245.879593 292.240051,249.593063 
	C292.448853,259.241547 292.309143,268.897522 292.310333,278.550537 
	C292.311279,286.226593 292.313293,286.238556 300.096985,285.693451 
	C300.705536,285.650848 301.290985,285.278381 302.154877,284.960815 
	C302.154877,277.321442 302.154877,269.753265 302.154877,262.185089 
	C305.453674,266.906219 307.637146,272.034485 310.355408,276.861603 
	C311.185974,278.336426 313.448151,279.703766 315.124420,279.791718 
	C316.574036,279.867767 318.535736,278.364410 319.529327,277.013580 
	C320.979584,275.041931 321.765625,272.581726 323.108154,269.629211 
M114.787811,526.702026 
	C114.787811,524.620911 114.787811,522.539795 114.787811,520.458618 
	C120.340652,526.556580 124.962524,532.951111 129.582947,539.346741 
	C134.480011,546.125305 135.827866,546.599121 144.716553,544.562134 
	C144.716553,529.861877 144.716553,515.123901 144.716553,500.186523 
	C141.087814,500.186523 137.722092,500.186523 133.874756,500.186523 
	C133.874756,508.720490 133.874756,516.905212 133.874756,526.208923 
	C128.616226,518.922729 123.557854,512.912292 119.658020,506.226196 
	C115.845863,499.690338 110.797577,498.697021 104.244873,500.321686 
	C104.244873,515.288147 104.244873,530.166382 104.244873,544.916504 
	C107.859406,544.916504 111.102165,544.916504 114.787766,544.916504 
	C114.787766,538.911438 114.787766,533.281128 114.787811,526.702026 
M189.704605,535.092773 
	C197.816330,520.179871 190.923950,502.855988 175.273346,500.373138 
	C168.023010,499.222900 160.438873,500.176819 152.817703,500.176819 
	C152.817703,515.212341 152.817703,530.069214 152.817703,545.344604 
	C158.808899,545.344604 164.431717,545.334534 170.054489,545.346985 
	C178.093643,545.364807 184.538361,542.232239 189.704605,535.092773 
M62.817993,502.151947 
	C52.054619,509.546173 48.342655,521.470459 53.354137,532.553467 
	C57.874954,542.551392 69.013664,548.053711 79.799309,545.499451 
	C89.213821,543.269775 95.506310,537.444397 97.623550,528.039856 
	C99.708214,518.779968 97.342979,510.371552 89.664909,504.359589 
	C81.638344,498.074768 72.741821,497.266693 62.817993,502.151947 
M345.527435,499.758545 
	C335.586517,497.619232 327.201904,500.425262 321.254913,508.587189 
	C315.341461,516.703064 315.075836,525.676086 319.880737,534.482727 
	C324.831543,543.556824 335.394196,547.883789 345.534637,545.406006 
	C356.277771,542.781006 363.424255,534.108765 363.814117,523.223938 
	C364.201111,512.419983 357.590912,503.620514 345.527435,499.758545 
M822.725281,530.943359 
	C825.760986,521.223938 824.276428,512.386475 816.683228,505.370697 
	C809.642456,498.865356 801.195435,497.337921 792.131653,500.617157 
	C782.307617,504.171448 776.219360,514.089050 777.162659,524.585510 
	C778.141113,535.473022 785.815857,543.901306 796.454712,545.771545 
	C807.287354,547.675964 817.248596,542.239685 822.725281,530.943359 
M35.318436,543.023499 
	C44.614849,537.651672 49.119450,529.223816 47.853447,519.571106 
	C46.637283,510.298401 40.391193,502.252838 31.095352,500.791199 
	C23.409201,499.582581 15.381809,500.544128 7.376029,500.544128 
	C7.376029,515.280151 7.376029,529.988159 7.376029,546.157288 
	C16.704218,545.194336 25.653313,544.270508 35.318436,543.023499 
M395.391541,501.835968 
	C386.959473,497.899780 378.193085,500.697754 369.359680,499.669495 
	C369.359680,515.281860 369.359680,530.009705 369.359680,545.032043 
	C372.965576,545.032043 376.360413,545.032043 380.206055,545.032043 
	C380.206055,540.153687 380.206055,535.577393 380.206055,530.351013 
	C385.092438,531.679260 385.872284,535.871704 387.793335,538.761230 
	C392.625854,546.030029 394.151459,546.781921 403.582825,544.559326 
	C400.461029,539.408325 397.395630,534.350403 394.362854,529.346313 
	C404.766388,519.344421 405.288422,510.060913 395.391541,501.835968 
M857.528076,533.894043 
	C856.619568,532.343933 855.711060,530.793762 854.756104,529.164429 
	C856.375549,527.675537 857.950439,526.457458 859.250061,524.994751 
	C866.665894,516.648743 862.553223,502.007263 851.832947,500.354279 
	C844.748108,499.261810 837.358276,500.147430 829.975342,500.147430 
	C829.975342,515.271240 829.975342,530.041931 829.975342,544.926819 
	C833.571289,544.926819 836.948730,544.926819 840.916992,544.926819 
	C840.916992,539.981689 840.916992,535.439514 840.916992,530.897339 
	C841.430908,530.670959 841.944824,530.444580 842.458740,530.218201 
	C844.223755,532.748108 846.090637,535.213806 847.735229,537.819702 
	C853.208557,546.492493 853.284729,546.558655 864.143982,544.707092 
	C862.013550,541.214722 859.969604,537.864075 857.528076,533.894043 
M400.651001,277.867920 
	C406.899261,286.702850 407.699646,287.081848 415.879150,284.931549 
	C415.879150,271.714600 415.879150,258.444855 415.879150,244.898102 
	C412.633575,244.898102 409.590607,244.898102 405.891541,244.898102 
	C405.891541,252.440536 405.891541,259.565765 405.891541,267.952057 
	C400.973419,261.114990 396.891815,255.450653 392.820862,249.778687 
	C388.518982,243.785004 387.013702,243.270874 379.052979,245.335434 
	C379.052979,256.374420 379.052399,267.510651 379.053192,278.646881 
	C379.053741,286.268433 379.148224,286.364319 386.895081,285.663513 
	C387.514221,285.607513 388.101929,285.204803 389.218872,284.756775 
	C389.218872,277.668610 389.218872,270.496460 389.218872,262.027039 
	C393.426025,267.876343 396.815704,272.589081 400.651001,277.867920 
M894.135803,499.823730 
	C885.824585,499.823730 877.513306,499.823730 868.975342,499.823730 
	C868.975342,515.132080 868.975342,530.028564 868.975342,545.041565 
	C878.535645,545.041565 887.781860,545.041565 897.125549,545.041565 
	C897.125549,541.538574 897.125549,538.337952 897.125549,534.656860 
	C891.115112,534.656860 885.517456,534.656860 879.761292,534.656860 
	C879.761292,532.229614 879.761292,530.291809 879.761292,527.746704 
	C884.861084,527.746704 889.764648,527.746704 894.749451,527.746704 
	C894.749451,524.043640 894.749451,520.951294 894.749451,517.210938 
	C889.611572,517.210938 884.717163,517.210938 879.892395,517.210938 
	C879.892395,514.623413 879.892395,512.705200 879.892395,510.250122 
	C885.794739,510.250122 891.373962,510.250122 897.335754,510.250122 
	C897.335754,507.736176 897.622070,505.707245 897.241638,503.812195 
	C896.957275,502.395569 895.812744,501.151642 894.135803,499.823730 
M510.644653,521.652466 
	C511.187775,518.042480 509.481201,516.991943 506.079620,517.224060 
	C502.503601,517.468140 498.898041,517.278748 495.378967,517.278748 
	C495.378967,514.611572 495.378967,512.571594 495.378967,510.130524 
	C501.355896,510.130524 506.965912,510.130524 512.691956,510.130524 
	C512.691956,506.625854 512.691956,503.532593 512.691956,500.208313 
	C503.096466,500.208313 493.752167,500.208313 484.287048,500.208313 
	C484.287048,515.333557 484.287048,530.072571 484.287048,545.008606 
	C493.905426,545.008606 503.294617,545.008606 512.760620,545.008606 
	C512.760620,541.584229 512.760620,538.490173 512.760620,534.836975 
	C506.803589,534.836975 501.072235,534.836975 495.325378,534.836975 
	C495.325378,532.209656 495.325378,530.152649 495.325378,527.849182 
	C498.947357,527.849182 502.286377,527.561890 505.554810,527.919678 
	C509.945038,528.400208 511.219208,526.459473 510.644653,521.652466 
M419.010986,532.309937 
	C419.098450,530.885742 419.185883,529.461487 419.284943,527.847839 
	C423.494812,527.847839 427.319885,527.665649 431.120148,527.895020 
	C435.650787,528.168335 434.656982,525.023926 434.701508,522.529663 
	C434.747589,519.948486 435.471680,516.954468 431.032318,517.229919 
	C427.124573,517.472351 423.189850,517.280579 419.242035,517.280579 
	C419.242035,514.662109 419.242035,512.726196 419.242035,510.229126 
	C425.192322,510.229126 430.926208,510.229126 436.726440,510.229126 
	C436.726440,506.567535 436.726440,503.471741 436.726440,500.237732 
	C427.124695,500.237732 417.778046,500.237732 408.387146,500.237732 
	C408.387146,515.383911 408.387146,530.113586 408.387146,544.949097 
	C418.041382,544.949097 427.405182,544.949097 436.736084,544.949097 
	C436.736084,541.462402 436.736084,538.370850 436.736084,534.822754 
	C432.017792,534.822754 427.554626,534.945374 423.105469,534.749756 
	C421.728607,534.689270 420.389832,533.763062 419.010986,532.309937 
M217.431747,517.278442 
	C215.002518,517.278442 212.573288,517.278442 210.206360,517.278442 
	C210.206360,514.610962 210.206360,512.578308 210.206360,510.026886 
	C216.182571,510.026886 221.753296,510.026886 227.306458,510.026886 
	C227.306458,506.405823 227.306458,503.317352 227.306458,500.120056 
	C217.740891,500.120056 208.516800,500.120056 199.209656,500.120056 
	C199.209656,515.268921 199.209656,530.118103 199.209656,545.039673 
	C208.795563,545.039673 218.044968,545.039673 227.370697,545.039673 
	C227.370697,541.539856 227.370697,538.343750 227.370697,534.704956 
	C221.361221,534.704956 215.767410,534.704956 210.141418,534.704956 
	C210.141418,532.193848 210.141418,530.150452 210.141418,527.658691 
	C215.232513,527.658691 219.980423,527.658691 224.945068,527.658691 
	C224.945068,524.103699 224.945068,521.011047 224.945068,517.278503 
	C222.612076,517.278503 220.500443,517.278503 217.431747,517.278442 
M598.988953,244.484955 
	C593.740356,244.484955 588.491821,244.484955 583.145874,244.484955 
	C583.145874,258.546722 583.145874,271.792755 583.145874,286.280945 
	C590.972656,285.643463 598.687988,285.925476 605.921814,284.194855 
	C614.908081,282.044861 620.514954,272.412994 619.582336,263.436066 
	C618.459473,252.629211 611.653137,246.102829 598.988953,244.484955 
M527.866638,253.511124 
	C521.423035,265.562958 525.100037,278.848907 536.339233,284.124695 
	C547.614929,289.417633 560.788025,284.332428 565.351196,272.925232 
	C569.232117,263.223602 565.502747,252.121704 556.622314,246.940186 
	C546.891296,241.262405 535.899902,243.558975 527.866638,253.511124 
M919.002747,535.257080 
	C914.901123,534.439880 910.799561,533.622620 906.089966,532.684265 
	C905.748840,533.159058 904.848083,534.325134 904.044373,535.554565 
	C903.163452,536.902100 902.372131,538.308105 901.593872,539.601990 
	C907.293335,545.127319 914.721680,547.260925 921.526123,545.536133 
	C927.919434,543.915527 932.152771,539.245361 932.817017,533.080261 
	C933.432739,527.365356 930.550110,522.244019 924.876404,519.264648 
	C922.823425,518.186523 920.435059,517.666626 918.543579,516.384644 
	C916.715637,515.145630 915.330505,513.253418 913.750854,511.648224 
	C915.976562,511.072021 918.189331,510.434113 920.436829,509.961548 
	C921.022339,509.838409 921.806091,510.082703 922.345215,510.410645 
	C925.179810,512.134827 926.924805,511.086029 928.296204,508.389374 
	C929.106873,506.795349 930.226379,505.358368 931.299194,503.709106 
	C926.618774,499.963654 921.588928,498.687897 916.117004,499.128357 
	C909.124329,499.691254 903.887146,504.025330 902.803955,509.912537 
	C901.537231,516.796875 904.205444,521.746338 911.157959,525.186768 
	C913.833435,526.510681 916.715881,527.449341 919.292542,528.931274 
	C922.093201,530.541992 923.175049,532.693726 919.002747,535.257080 
M621.471191,268.496704 
	C621.474792,273.158844 621.269531,277.837128 621.628235,282.471771 
	C621.718384,283.636536 623.577332,285.554382 624.690918,285.603790 
	C631.337891,285.898651 638.009827,285.875824 644.659668,285.613220 
	C645.700745,285.572113 647.305054,283.888275 647.535706,282.740295 
	C647.939697,280.730286 647.480713,278.546844 647.356934,275.866180 
	C641.857178,275.866180 636.800598,275.866180 631.706421,275.866180 
	C631.706421,273.659576 631.706421,272.049622 631.706421,269.919189 
	C636.202209,269.919189 640.459778,269.919189 644.887817,269.919189 
	C645.116272,268.310852 645.265198,267.187805 645.436707,266.068207 
	C646.111694,261.660767 644.629639,259.518646 639.803589,260.181274 
	C637.235107,260.533966 634.578308,260.243805 631.775085,260.243805 
	C631.775085,257.891907 631.775085,256.171753 631.775085,254.009430 
	C637.015259,254.009430 641.946838,254.009430 647.130859,254.009430 
	C647.130859,250.685242 647.130859,247.809509 647.130859,244.816528 
	C638.500793,244.816528 630.271851,244.816528 621.471802,244.816528 
	C621.471802,252.598206 621.471802,260.048004 621.471191,268.496704 
M441.602203,527.629883 
	C445.934143,544.492615 465.152100,551.908997 477.971039,541.328308 
	C476.197479,538.638489 474.403076,535.917114 472.665375,533.281677 
	C463.552124,536.461670 458.701477,535.684326 454.719452,530.606628 
	C451.365723,526.330017 451.053741,520.254456 453.952454,515.672485 
	C457.572021,509.951111 462.166321,508.908936 472.825745,511.597076 
	C474.470581,508.989227 476.187653,506.266815 478.134033,503.180878 
	C469.390869,497.957306 460.939178,497.475220 452.659363,502.203461 
	C443.222382,507.592499 440.085052,516.289185 441.602203,527.629883 
M351.034912,268.927429 
	C351.034912,260.982483 351.034912,253.037506 351.034912,244.965912 
	C347.453308,244.965912 344.423981,244.965912 341.104614,244.965912 
	C341.104614,252.418640 341.100586,259.400879 341.107819,266.383118 
	C341.109375,267.881439 341.052246,269.389008 341.191315,270.876495 
	C342.004425,279.572327 347.917664,285.490082 356.275208,286.037506 
	C365.950256,286.671295 373.975739,282.010529 374.717865,273.854279 
	C375.583618,264.339935 374.920044,254.686401 374.920044,244.938385 
	C371.734741,244.938385 368.847198,244.938385 365.460876,244.938385 
	C365.460876,253.004227 365.529938,260.639221 365.433289,268.272125 
	C365.380798,272.416016 364.174683,275.976288 359.273254,276.510132 
	C354.352631,277.046143 351.864960,274.428040 351.034912,268.927429 
M732.515991,518.925659 
	C729.747437,518.925659 726.978882,518.925659 724.392029,518.925659 
	C724.392029,515.681152 724.392029,513.118896 724.392029,510.075073 
	C731.023132,510.075073 737.274048,510.075073 743.648376,510.075073 
	C743.648376,506.494385 743.648376,503.425446 743.648376,500.306641 
	C733.344604,500.306641 723.332642,500.306641 713.523315,500.306641 
	C713.523315,515.512695 713.523315,530.238098 713.523315,544.956909 
	C717.187134,544.956909 720.430298,544.956909 724.192688,544.956909 
	C724.192688,539.563599 724.192688,534.502075 724.192688,528.938904 
	C730.124939,528.938904 735.533508,528.938904 740.796753,528.938904 
	C740.796753,525.334167 740.796753,522.268494 740.796753,518.925659 
	C738.115173,518.925659 735.801147,518.925659 732.515991,518.925659 
M272.463562,499.826019 
	C266.037994,499.826019 259.612427,499.826019 253.209152,499.826019 
	C253.209152,515.337463 253.209152,530.200134 253.209152,544.896240 
	C256.831451,544.896240 260.064667,544.896240 263.728882,544.896240 
	C263.728882,539.574036 263.728882,534.644714 263.728882,528.976074 
	C269.679047,528.976074 275.201385,528.976074 280.600494,528.976074 
	C280.600494,525.285706 280.600494,522.356323 280.600494,518.917236 
	C274.912750,518.917236 269.504303,518.917236 264.054047,518.917236 
	C264.054047,515.828735 264.054047,513.268555 264.054047,510.127960 
	C270.592712,510.127960 276.809784,510.127960 283.141479,510.127960 
	C283.141479,506.436310 283.141479,503.336823 283.141479,499.825958 
	C279.720367,499.825958 276.583466,499.825958 272.463562,499.826019 
M511.009583,258.460449 
	C510.562958,251.091614 507.330872,245.859970 501.363251,245.183258 
	C494.866699,244.446564 488.222015,245.016006 481.146515,245.016006 
	C481.146515,257.745453 481.090057,270.326294 481.259277,282.904083 
	C481.272095,283.857239 482.770142,285.410095 483.783234,285.602570 
	C485.971008,286.018097 488.292328,285.730347 491.017670,285.730347 
	C491.017670,280.978027 491.017670,276.901520 491.017670,272.313995 
	C501.229797,272.994812 509.527161,271.066589 511.009583,258.460449 
M437.528137,279.954529 
	C446.151306,287.544250 457.210693,288.401764 464.765564,281.926575 
	C462.557007,278.070160 461.370056,273.501160 454.727448,276.128265 
	C450.440094,277.823914 446.163483,275.694763 443.566956,271.572388 
	C440.944275,267.408447 440.920135,263.009521 443.438782,258.813263 
	C445.931091,254.660934 449.840179,253.210922 454.568298,253.802841 
	C461.552917,254.677292 461.987732,254.407669 464.430084,247.661316 
	C456.127258,241.884674 444.460938,242.989822 437.543945,250.208176 
	C430.112183,257.963745 429.905945,270.071014 437.528137,279.954529 
M753.588135,499.816284 
	C751.980286,499.889618 750.372437,499.962952 748.699829,500.039246 
	C748.699829,515.302734 748.699829,530.144165 748.699829,544.928833 
	C757.509399,544.928833 765.882690,544.928833 774.225647,544.928833 
	C774.225647,541.406311 774.225647,538.304810 774.225647,534.711365 
	C769.147095,534.711365 764.392029,534.711365 759.062500,534.711365 
	C759.062500,522.849121 759.062500,511.471405 759.062500,499.816193 
	C757.158386,499.816193 755.847168,499.816193 753.588135,499.816284 
M295.547089,545.297241 
	C301.617950,545.297241 307.688782,545.297241 313.729614,545.297241 
	C313.729614,541.433411 313.729614,538.353333 313.729614,534.771362 
	C308.736084,534.771362 303.999695,534.771362 298.714508,534.771362 
	C298.714508,522.896423 298.714508,511.525757 298.714508,500.118225 
	C294.891479,500.118225 291.643616,500.118225 288.316895,500.118225 
	C288.316895,515.261841 288.316895,530.114502 288.316895,545.297302 
	C290.610077,545.297302 292.584686,545.297302 295.547089,545.297241 
M670.548767,545.297241 
	C676.621521,545.297241 682.694214,545.297241 688.740112,545.297241 
	C688.740112,541.443176 688.740112,538.360779 688.740112,534.780884 
	C683.759705,534.780884 679.022949,534.780884 673.739624,534.780884 
	C673.739624,522.910461 673.739624,511.538910 673.739624,500.111481 
	C669.920166,500.111481 666.672729,500.111481 663.319824,500.111481 
	C663.319824,515.247375 663.319824,530.098877 663.319824,545.297302 
	C665.614563,545.297302 667.588074,545.297302 670.548767,545.297241 
M644.345459,524.499634 
	C644.345459,531.266357 644.345459,538.033020 644.345459,544.962158 
	C648.322693,544.962158 651.678284,544.962158 655.066345,544.962158 
	C655.066345,529.812500 655.066345,515.047241 655.066345,500.223022 
	C651.490356,500.223022 648.123108,500.223022 644.345520,500.223022 
	C644.345520,508.249268 644.345520,515.874512 644.345459,524.499634 
M477.344971,246.306778 
	C474.545929,245.729141 471.752716,244.884293 468.942444,244.823425 
	C468.444183,244.812637 467.436859,248.059296 467.411194,249.812698 
	C467.262970,259.936066 467.606812,270.072815 467.223053,280.183777 
	C467.038300,285.051239 468.874390,286.441589 473.240295,285.794189 
	C474.486359,285.609406 475.739807,285.474335 477.384766,285.266632 
	C477.384766,272.345612 477.384766,259.758972 477.344971,246.306778 
M522.756042,266.499084 
	C522.756042,261.684540 522.756226,256.869995 522.756042,252.055435 
	C522.755676,243.888702 522.754883,243.880905 514.446777,244.615570 
	C514.002808,244.654816 513.586426,245.006607 513.285706,245.151138 
	C513.285706,258.641632 513.285706,271.986511 513.285706,285.489044 
	C514.644653,285.598419 515.626526,285.619049 516.589478,285.764893 
	C521.140015,286.454224 523.376587,285.047058 522.842773,279.940460 
	C522.413574,275.834839 522.755920,271.648560 522.756042,266.499084 
M429.904724,282.105438 
	C429.904724,269.822449 429.904724,257.539459 429.904724,244.865967 
	C426.471344,244.865967 423.421478,244.865967 420.193359,244.865967 
	C420.193359,258.435944 420.193359,271.685150 420.193359,285.618744 
	C423.633270,284.638458 427.696167,288.442230 429.904724,282.105438 
z"/>
<path fill="#1A9DD8" opacity="1.000000" stroke="none" 
	d="
M174.921219,474.069580 
	C167.932373,474.069519 161.432846,474.071991 154.933319,474.068787 
	C147.041672,474.064911 147.000031,474.027405 146.999420,466.352783 
	C146.997116,437.188232 146.998505,408.023712 146.998505,378.859161 
	C146.998505,377.271057 146.998505,375.682953 146.998505,374.094849 
	C146.746933,374.031860 146.495346,373.968903 146.243774,373.905945 
	C145.231186,375.907257 144.174713,377.887756 143.212769,379.913116 
	C132.863495,401.703613 122.408691,423.445465 112.280373,445.338318 
	C109.923767,450.432251 106.874428,452.864197 101.165077,452.235626 
	C97.377861,451.818665 93.490021,451.924652 89.679298,452.216064 
	C85.404022,452.542999 83.040764,450.814148 81.230034,446.949677 
	C70.571114,424.201324 59.704002,401.550446 48.898083,378.871033 
	C48.212791,377.432770 47.452183,376.030396 45.797497,374.732788 
	C45.797497,376.452515 45.797493,378.172272 45.797493,379.891998 
	C45.797478,408.723236 45.803047,437.554443 45.793530,466.385681 
	C45.791149,473.590912 45.309616,474.061340 38.178883,474.067657 
	C29.679508,474.075195 21.178377,473.966888 12.681505,474.112671 
	C8.669555,474.181488 6.954450,472.645386 6.959455,468.538666 
	C7.021200,417.875793 7.016659,367.212738 6.967162,316.549835 
	C6.963406,312.705170 8.673409,311.088593 12.386797,311.097382 
	C25.219118,311.127838 38.051609,311.130737 50.883915,311.097260 
	C55.183720,311.086060 57.370239,313.544464 59.084450,317.178711 
	C70.298340,340.952942 81.630730,364.671234 92.926895,388.406647 
	C93.918892,390.491058 94.928635,392.567047 96.251228,395.313782 
	C97.363213,393.217712 98.215973,391.746155 98.945023,390.215698 
	C110.464241,366.033997 122.052155,341.884308 133.401581,317.623077 
	C135.611191,312.899658 138.628830,310.910950 143.846268,311.025299 
	C155.506485,311.280762 167.176193,311.086884 178.841949,311.113373 
	C184.666504,311.126587 185.722702,312.072754 185.725464,317.626373 
	C185.750320,367.622742 185.752274,417.619080 185.722733,467.615448 
	C185.719025,473.902618 185.349960,474.069122 174.921219,474.069580 
z"/>
<path fill="#199CD8" opacity="1.000000" stroke="none" 
	d="
M659.302490,324.700500 
	C678.868469,351.861481 698.218567,378.736176 717.568665,405.610870 
	C717.936157,405.555023 718.303650,405.499176 718.671143,405.443329 
	C718.671143,403.750977 718.671143,402.058624 718.671143,400.366272 
	C718.671143,373.201538 718.666687,346.036804 718.674072,318.872070 
	C718.676025,311.487305 719.037903,311.120514 726.196594,311.110779 
	C734.529358,311.099457 742.863342,311.195007 751.194275,311.072113 
	C755.352295,311.010773 757.212891,312.554291 757.205627,316.941498 
	C757.122314,367.437744 757.118408,417.934265 757.208069,468.430511 
	C757.216003,472.913361 755.283630,474.204102 751.140442,474.119415 
	C742.478027,473.942322 733.800049,473.823639 725.146973,474.158722 
	C720.035095,474.356659 716.794922,472.331299 713.917297,468.303162 
	C693.778748,440.112854 673.494385,412.026672 653.250244,383.911804 
	C652.208008,382.464447 651.107117,381.059265 649.153625,378.466553 
	C649.153625,381.382690 649.153625,382.943085 649.153625,384.503479 
	C649.153625,412.001526 649.159851,439.499542 649.149353,466.997589 
	C649.146729,473.834320 648.910156,474.056549 642.120667,474.064392 
	C633.621277,474.074188 625.118286,473.919281 616.624023,474.128296 
	C612.378052,474.232758 610.616211,472.757904 610.623169,468.377197 
	C610.702881,417.880951 610.699036,367.384491 610.627747,316.888184 
	C610.621582,312.497070 612.573547,311.004852 616.711182,311.070007 
	C625.041870,311.201141 633.385864,311.354523 641.705383,311.022125 
	C647.313599,310.798096 651.338135,312.636658 654.171875,317.490814 
	C655.593079,319.925354 657.434937,322.114258 659.302490,324.700500 
z"/>
<path fill="#199DD8" opacity="1.000000" stroke="none" 
	d="
M919.982910,437.938782 
	C889.968384,482.820557 826.069519,489.945007 789.157043,452.169403 
	C765.381287,427.837860 759.521057,398.084534 769.459290,366.169525 
	C779.059570,335.339813 801.078613,316.558563 832.805603,310.384888 
	C878.931274,301.409393 921.929077,330.287598 931.370056,376.281158 
	C935.844727,398.080475 931.771301,418.613495 919.982910,437.938782 
M836.138184,348.378510 
	C816.050354,355.052765 803.732178,372.068146 804.047546,393.350067 
	C804.319885,411.728119 812.489624,425.982727 828.957703,434.109314 
	C845.339050,442.193115 861.784424,440.676880 876.417542,429.387756 
	C891.381409,417.843475 896.810974,402.013031 893.319397,383.705627 
	C888.248352,357.117554 864.829651,342.660553 836.138184,348.378510 
z"/>
<path fill="#199DD8" opacity="1.000000" stroke="none" 
	d="
M200.459534,358.504822 
	C215.577087,324.179657 249.756271,304.961761 286.525085,309.546112 
	C327.252472,314.623962 355.355286,342.633698 360.770447,381.659363 
	C367.505524,430.197083 330.633423,474.253845 281.646881,476.200439 
	C240.714859,477.826996 206.994431,454.123566 196.735291,416.071167 
	C191.514191,396.705444 192.662201,377.518738 200.459534,358.504822 
M287.050751,437.839050 
	C309.616119,433.214081 327.750336,409.757385 321.489960,382.127197 
	C315.778137,356.917969 290.989685,341.921753 265.713715,348.059509 
	C242.432007,353.713013 227.650208,379.461060 233.607315,403.984833 
	C239.491806,428.209625 259.584900,441.188873 287.050751,437.839050 
z"/>
<path fill="#1A9DD8" opacity="1.000000" stroke="none" 
	d="
M408.110168,449.999939 
	C408.108765,456.666321 408.037445,462.833740 408.132812,468.998627 
	C408.187958,472.562164 406.714905,474.145966 403.066345,474.104248 
	C393.568054,473.995575 384.066498,473.980591 374.568726,474.109863 
	C370.853210,474.160461 369.479370,472.292786 369.352905,468.961304 
	C369.302368,467.629761 369.327362,466.295135 369.327332,464.961914 
	C369.326355,416.797546 369.325104,368.633148 369.327637,320.468781 
	C369.328125,311.493896 369.713409,311.103943 378.486786,311.104980 
	C397.319214,311.107208 416.155518,310.874512 434.982971,311.182739 
	C455.314331,311.515564 471.729797,319.709045 481.331329,338.092224 
	C491.169159,356.927765 491.169464,376.228333 480.050293,394.775665 
	C474.746307,403.623016 466.962921,410.169525 457.687134,415.244293 
	C468.471130,432.695862 479.049591,449.812714 489.623840,466.932159 
	C490.323456,468.064850 491.592194,469.259796 491.515778,470.350037 
	C491.426392,471.624512 490.169037,473.871460 489.386993,473.884979 
	C477.559540,474.089783 465.715759,474.252960 453.905457,473.741516 
	C451.731506,473.647369 449.080231,470.927216 447.683685,468.754333 
	C438.953003,455.169708 430.508362,441.401123 421.984802,427.683624 
	C417.638428,420.688721 417.653320,420.679474 408.110138,421.355103 
	C408.110138,430.680389 408.110138,440.090179 408.110168,449.999939 
M425.381897,386.100739 
	C427.044739,386.041199 428.718231,386.081451 430.368713,385.905884 
	C440.934052,384.782257 447.984680,378.300659 448.947693,368.889221 
	C450.037445,358.239410 445.136383,349.698883 435.087128,347.724426 
	C426.444397,346.026306 417.423645,346.252136 408.352631,345.611908 
	C408.352631,359.740723 408.352631,372.645172 408.352631,386.106201 
	C413.862396,386.106201 419.137939,386.106201 425.381897,386.100739 
z"/>
<path fill="#1A9DD8" opacity="1.000000" stroke="none" 
	d="
M597.892151,436.956573 
	C598.849060,438.784698 599.862854,440.429718 599.894104,442.093201 
	C600.057068,450.756592 599.864258,459.426544 600.015564,468.090393 
	C600.088562,472.267426 598.606506,474.136414 594.203674,474.121796 
	C563.704712,474.020447 533.205078,474.031281 502.705994,474.112427 
	C498.695679,474.123108 496.959961,472.636078 496.964417,468.543243 
	C497.019897,417.877716 497.015381,367.212128 496.972076,316.546570 
	C496.968781,312.716461 498.694977,311.094788 502.411499,311.097351 
	C532.910828,311.118591 563.410217,311.136139 593.909424,311.074036 
	C597.665527,311.066376 599.550537,312.641968 599.560364,316.362122 
	C599.584595,325.528259 599.566956,334.694519 599.567749,343.860718 
	C599.568054,348.053040 597.190247,349.078583 593.387817,349.052399 
	C576.222351,348.934204 559.055603,349.001007 541.889282,349.001160 
	C540.083618,349.001160 538.278015,349.001160 536.136475,349.001160 
	C536.136475,357.403656 536.136475,365.456604 536.136475,374.149231 
	C537.984741,374.149231 539.756653,374.149200 541.528564,374.149261 
	C556.028259,374.149750 570.528870,374.242859 585.027100,374.095551 
	C589.489136,374.050171 591.379578,375.664612 591.264282,380.245544 
	C591.054626,388.573425 591.074341,396.913239 591.259094,405.242310 
	C591.354126,409.526215 589.736450,411.180359 585.391907,411.130798 
	C570.894104,410.965485 556.393250,411.068878 541.893555,411.069244 
	C540.087524,411.069305 538.281494,411.069275 536.143677,411.069275 
	C536.143677,419.508057 536.143677,427.560272 536.143677,436.259735 
	C538.020142,436.259735 539.790771,436.259735 541.561340,436.259735 
	C558.227661,436.259796 574.894043,436.242462 591.560242,436.282867 
	C593.539185,436.287659 595.517273,436.607941 597.892151,436.956573 
z"/>
<path fill="#29A8DF" opacity="1.000000" stroke="none" 
	d="
M783.174561,97.009262 
	C791.380737,76.764946 803.501770,58.907658 817.468689,42.341217 
	C827.417419,30.540661 838.214417,19.455227 849.030029,7.615931 
	C851.341980,9.707112 853.062073,11.157439 854.664368,12.728008 
	C878.674744,36.264004 900.062317,61.770424 914.434143,92.524239 
	C915.130188,94.013824 915.602539,95.607979 915.735596,97.558578 
	C873.367004,97.975700 831.441833,98.002090 789.516785,97.957481 
	C787.402344,97.955238 785.288635,97.339409 783.174561,97.009262 
z"/>
<path fill="#2A68AE" opacity="1.000000" stroke="none" 
	d="
M923.162659,116.673126 
	C929.842407,115.477379 936.522156,114.281624 943.664673,113.527328 
	C944.418335,116.254860 944.959961,118.540581 944.963196,120.827072 
	C945.037720,173.295639 945.053528,225.764297 945.080322,278.232941 
	C940.093018,280.535309 935.105713,282.837677 929.401367,284.909332 
	C928.456177,282.736938 928.031616,280.795502 928.029297,278.853546 
	C927.988770,245.137177 928.069763,211.420410 927.898865,177.704865 
	C927.880493,174.086777 926.461121,170.475815 925.715027,166.545197 
	C925.586060,165.183533 925.433716,164.138214 925.509521,162.775391 
	C926.151672,156.307098 926.565613,150.156296 926.999268,143.546021 
	C926.329407,137.395920 925.639709,131.705322 924.977417,125.606377 
	C924.300293,122.715965 923.595825,120.233894 922.957275,117.481689 
	C923.069702,117.032074 923.116211,116.852600 923.162659,116.673126 
z"/>
<path fill="#2A85C4" opacity="1.000000" stroke="none" 
	d="
M740.002747,111.094925 
	C744.741394,111.687424 749.480042,112.279915 754.609863,113.460892 
	C755.000671,166.818451 755.011108,219.587540 754.956360,272.356567 
	C754.954407,274.244110 754.310181,276.131042 753.965332,278.018280 
	C749.114502,274.828491 744.263672,271.638702 739.401001,267.788513 
	C739.592834,265.167664 739.972900,263.207336 739.974182,261.246735 
	C740.007812,211.196152 740.001831,161.145538 740.002747,111.094925 
z"/>
<path fill="#2A5EA7" opacity="1.000000" stroke="none" 
	d="
M945.428345,278.156189 
	C945.053528,225.764297 945.037720,173.295639 944.963196,120.827072 
	C944.959961,118.540581 944.418335,116.254860 944.066895,113.565063 
	C949.050903,112.427391 954.095398,111.693443 959.570068,111.473938 
	C960.000122,161.677856 959.985657,211.367340 960.051941,261.056732 
	C960.054688,263.075592 960.818787,265.093445 961.228149,267.111786 
	C956.077515,270.767670 950.926941,274.423553 945.428345,278.156189 
z"/>
<path fill="#298ECB" opacity="1.000000" stroke="none" 
	d="
M739.593262,110.977997 
	C740.001831,161.145538 740.007812,211.196152 739.974182,261.246735 
	C739.972900,263.207336 739.592834,265.167664 739.224731,267.502563 
	C733.681885,262.517731 728.303467,257.158478 723.147949,251.210968 
	C723.580505,248.668106 723.971313,246.713684 723.973511,244.758850 
	C724.024597,199.763855 724.033447,154.768814 724.050171,109.773773 
	C729.094666,110.136208 734.139282,110.498642 739.593262,110.977997 
z"/>
<path fill="#297CBE" opacity="1.000000" stroke="none" 
	d="
M754.182556,278.286316 
	C754.310181,276.131042 754.954407,274.244110 754.956360,272.356567 
	C755.011108,219.587540 755.000671,166.818451 755.002197,113.589554 
	C759.455078,113.926979 763.906799,114.724228 768.679199,116.208298 
	C769.001221,172.897247 769.002625,228.899384 769.003967,284.901520 
	C764.135925,282.785797 759.267883,280.670044 754.182556,278.286316 
z"/>
<path fill="#2B4C99" opacity="1.000000" stroke="none" 
	d="
M973.996399,109.897095 
	C979.358093,109.604050 984.719727,109.311005 990.541321,109.549530 
	C991.000793,146.533875 990.983704,182.986664 991.047852,219.439316 
	C991.051147,221.311707 991.750732,223.182877 992.126038,225.054611 
	C986.968384,233.941666 981.810730,242.828705 976.061279,251.626495 
	C974.979736,248.793335 974.068481,246.050278 974.062927,243.305405 
	C973.972778,198.836090 973.997559,154.366577 973.996399,109.897095 
z"/>
<path fill="#2A55A0" opacity="1.000000" stroke="none" 
	d="
M973.543579,109.821014 
	C973.997559,154.366577 973.972778,198.836090 974.062927,243.305405 
	C974.068481,246.050278 974.979736,248.793335 975.767212,251.785858 
	C971.327209,256.983002 966.589600,261.931488 961.540039,266.995911 
	C960.818787,265.093445 960.054688,263.075592 960.051941,261.056732 
	C959.985657,211.367340 960.000122,161.677856 960.001038,111.523750 
	C964.364868,110.621056 968.727783,110.182999 973.543579,109.821014 
z"/>
<path fill="#2998D3" opacity="1.000000" stroke="none" 
	d="
M723.687622,109.583794 
	C724.033447,154.768814 724.024597,199.763855 723.973511,244.758850 
	C723.971313,246.713684 723.580505,248.668106 723.020874,250.892365 
	C717.127625,241.683502 711.584167,232.205017 706.366333,222.167694 
	C707.127930,219.582687 707.939636,217.557373 707.944153,215.530258 
	C708.023315,180.075333 708.003662,144.620193 708.005493,109.165092 
	C713.112061,109.241333 718.218567,109.317574 723.687622,109.583794 
z"/>
<path fill="#2A72B6" opacity="1.000000" stroke="none" 
	d="
M925.691711,166.861542 
	C926.461121,170.475815 927.880493,174.086777 927.898865,177.704865 
	C928.069763,211.420410 927.988770,245.137177 928.029297,278.853546 
	C928.031616,280.795502 928.456177,282.736938 929.042725,284.950531 
	C923.588989,286.669617 917.776855,288.116821 911.504395,289.041382 
	C911.029358,263.130005 911.052917,237.741104 910.948059,212.352707 
	C910.935974,209.420334 910.209534,206.490921 909.894470,203.249664 
	C913.329590,196.296509 916.684570,189.653809 920.306396,182.768066 
	C922.279480,177.303833 923.985596,172.082687 925.691711,166.861542 
z"/>
<path fill="#2974B8" opacity="1.000000" stroke="none" 
	d="
M769.318726,285.105804 
	C769.002625,228.899384 769.001221,172.897247 768.999146,116.422768 
	C771.065369,116.298210 773.132263,116.646004 775.603027,117.162628 
	C776.006775,117.331459 776.015076,117.800232 775.871338,118.176971 
	C774.547241,127.045135 773.366882,135.536560 772.142334,144.480927 
	C772.750000,151.290298 773.401855,157.646744 774.038635,164.412720 
	C775.633789,170.273422 777.244141,175.724564 778.884949,181.550629 
	C780.684998,186.255325 782.454529,190.585129 783.890869,195.186737 
	C783.371765,197.253082 783.025818,199.047409 783.023804,200.842148 
	C782.991638,230.153610 783.002930,259.465118 783.004395,288.776642 
	C778.547424,287.621124 774.090515,286.465607 769.318726,285.105804 
z"/>
<path fill="#2D4292" opacity="1.000000" stroke="none" 
	d="
M992.396729,224.825134 
	C991.750732,223.182877 991.051147,221.311707 991.047852,219.439316 
	C990.983704,182.986664 991.000793,146.533875 991.002686,109.623276 
	C997.458191,109.165443 1003.912292,109.165443 1010.877747,109.165443 
	C1011.625000,148.897385 1008.534546,187.727798 992.396729,224.825134 
z"/>
<path fill="#29A2DA" opacity="1.000000" stroke="none" 
	d="
M707.541260,109.095306 
	C708.003662,144.620193 708.023315,180.075333 707.944153,215.530258 
	C707.939636,217.557373 707.127930,219.582687 706.346069,221.804749 
	C701.815979,208.052322 696.834778,194.284363 693.628296,180.114792 
	C688.386230,156.949707 688.401367,133.281586 689.112854,109.025513 
	C695.210938,109.025513 701.143921,109.025513 707.541260,109.095306 
z"/>
<path fill="#27376B" opacity="1.000000" stroke="none" 
	d="
M597.787781,530.035889 
	C597.787781,535.165588 597.787781,539.803711 597.787781,544.866760 
	C594.038635,544.866760 590.692932,544.866760 587.080933,544.866760 
	C587.080933,529.985535 587.080933,515.231995 587.080933,499.837250 
	C590.959900,499.837250 594.765198,499.548096 598.483704,499.989899 
	C599.833862,500.150299 601.426514,501.824615 602.137024,503.205231 
	C605.371643,509.490509 608.331482,515.917175 611.810303,523.168945 
	C614.975464,516.589172 618.027893,510.909760 620.450439,504.973328 
	C622.066162,501.013855 624.245605,499.163025 628.611145,499.761902 
	C631.173706,500.113403 633.823975,499.826050 636.680176,499.826050 
	C636.680176,515.186218 636.680176,529.922974 636.680176,544.980225 
	C633.174316,544.980225 629.916199,544.980225 626.092957,544.980225 
	C626.092957,536.329895 626.092957,527.648926 626.092957,518.967957 
	C625.774597,518.908569 625.456238,518.849182 625.137817,518.789795 
	C622.447632,524.409485 619.659546,529.985291 617.113831,535.669739 
	C616.051270,538.042419 614.836975,539.241760 611.976624,539.296265 
	C608.913696,539.354553 607.579346,538.071777 606.446777,535.520508 
	C604.039001,530.096497 601.366821,524.789856 597.787781,519.517639 
	C597.787781,522.859863 597.787781,526.202148 597.787781,530.035889 
z"/>
<path fill="#2996D1" opacity="1.000000" stroke="none" 
	d="
M776.015076,117.800232 
	C776.015076,117.800232 776.006775,117.331459 775.991333,117.097382 
	C776.949951,113.804909 777.923950,110.746521 779.512146,107.345993 
	C826.768127,106.996490 873.409851,106.989120 920.051636,106.981750 
	C921.078918,109.961525 922.106201,112.941307 923.148071,116.297104 
	C923.116211,116.852600 923.069702,117.032074 922.571106,117.541931 
	C920.082336,118.255051 918.045776,118.637794 915.716492,118.719620 
	C914.614258,118.279678 913.804688,118.019417 912.995056,118.019020 
	C871.345520,117.998680 829.695923,117.989510 788.046448,118.048050 
	C786.676575,118.049973 785.307800,118.764160 783.535767,119.120911 
	C780.760376,118.663742 778.387695,118.231979 776.015076,117.800232 
z"/>
<path fill="#28386C" opacity="1.000000" stroke="none" 
	d="
M560.237671,519.000488 
	C560.237671,527.959717 560.237671,536.419067 560.237671,544.743835 
	C553.159302,546.404114 548.081787,545.332153 544.302002,538.752686 
	C540.511658,532.154907 535.496460,526.260681 530.303345,519.068176 
	C530.303345,528.311646 530.303345,536.477539 530.303345,544.984680 
	C526.369263,544.984680 522.977966,544.984680 519.342468,544.984680 
	C519.342468,530.046387 519.342468,515.297180 519.342468,500.587677 
	C528.081848,498.499329 529.635193,499.036133 534.474060,505.740143 
	C539.049866,512.079773 543.620789,518.422974 549.075928,525.987793 
	C549.075928,516.618042 549.075928,508.509247 549.075928,500.121399 
	C553.081116,500.121399 556.322815,500.121399 560.237610,500.121399 
	C560.237610,506.290955 560.237610,512.395691 560.237671,519.000488 
z"/>
<path fill="#2A6AB1" opacity="1.000000" stroke="none" 
	d="
M783.415405,288.888794 
	C783.002930,259.465118 782.991638,230.153610 783.023804,200.842148 
	C783.025818,199.047409 783.371765,197.253082 784.092773,195.197571 
	C784.627991,194.936600 785.033020,194.984634 785.136719,195.314819 
	C788.335388,199.806488 791.430481,203.968002 794.669189,208.454529 
	C796.708191,211.114716 798.603516,213.449905 800.130127,216.038574 
	C799.507629,218.223557 799.037354,220.154587 799.033081,222.086655 
	C798.983215,244.668320 799.003296,267.250153 799.004944,289.831940 
	C793.945435,289.554932 788.885925,289.277954 783.415405,288.888794 
z"/>
<path fill="#1E9FD9" opacity="1.000000" stroke="none" 
	d="
M322.971497,269.979492 
	C321.765625,272.581726 320.979584,275.041931 319.529327,277.013580 
	C318.535736,278.364410 316.574036,279.867767 315.124420,279.791718 
	C313.448151,279.703766 311.185974,278.336426 310.355408,276.861603 
	C307.637146,272.034485 305.453674,266.906219 302.154877,262.185089 
	C302.154877,269.753265 302.154877,277.321442 302.154877,284.960815 
	C301.290985,285.278381 300.705536,285.650848 300.096985,285.693451 
	C292.313293,286.238556 292.311279,286.226593 292.310333,278.550537 
	C292.309143,268.897522 292.448853,259.241547 292.240051,249.593063 
	C292.159668,245.879593 292.980347,244.518265 297.125092,244.283569 
	C302.985016,243.951721 306.322510,245.773895 308.262695,251.397598 
	C309.810944,255.885284 312.332275,260.037262 314.959991,265.446411 
	C317.529510,260.170654 320.115051,255.954865 321.671692,251.388351 
	C323.601837,245.726242 326.982239,243.449081 332.787750,244.449966 
	C334.072266,244.671432 335.404266,244.617477 337.116089,244.712692 
	C337.116089,258.240295 337.116089,271.600189 337.116089,285.359894 
	C334.133575,285.359894 331.271118,285.359894 327.748535,285.359894 
	C327.748535,277.823181 327.748535,270.471924 327.748535,263.120697 
	C327.344635,263.024261 326.940735,262.927826 326.536835,262.831390 
	C325.393951,265.097321 324.251038,267.363251 322.971497,269.979492 
z"/>
<path fill="#27376B" opacity="1.000000" stroke="none" 
	d="
M114.787788,527.176453 
	C114.787766,533.281128 114.787766,538.911438 114.787766,544.916504 
	C111.102165,544.916504 107.859406,544.916504 104.244873,544.916504 
	C104.244873,530.166382 104.244873,515.288147 104.244873,500.321686 
	C110.797577,498.697021 115.845863,499.690338 119.658020,506.226196 
	C123.557854,512.912292 128.616226,518.922729 133.874756,526.208923 
	C133.874756,516.905212 133.874756,508.720490 133.874756,500.186523 
	C137.722092,500.186523 141.087814,500.186523 144.716553,500.186523 
	C144.716553,515.123901 144.716553,529.861877 144.716553,544.562134 
	C135.827866,546.599121 134.480011,546.125305 129.582947,539.346741 
	C124.962524,532.951111 120.340652,526.556580 114.787811,520.458618 
	C114.787811,522.539795 114.787811,524.620911 114.787788,527.176453 
z"/>
<path fill="#297CBE" opacity="1.000000" stroke="none" 
	d="
M909.814331,203.560120 
	C910.209534,206.490921 910.935974,209.420334 910.948059,212.352707 
	C911.052917,237.741104 911.029358,263.130005 911.064148,289.030579 
	C905.696045,289.659912 900.307800,289.777435 894.463623,289.332031 
	C893.982910,265.755554 893.958130,242.741989 894.104492,219.459595 
	C899.455261,213.980530 904.634766,208.770309 909.814331,203.560120 
z"/>
<path fill="#2A60A9" opacity="1.000000" stroke="none" 
	d="
M799.450256,289.899658 
	C799.003296,267.250153 798.983215,244.668320 799.033081,222.086655 
	C799.037354,220.154587 799.507629,218.223557 800.426086,216.133148 
	C806.719666,219.698578 812.348511,223.422913 817.983582,227.606628 
	C817.993530,247.699951 817.997314,267.333893 818.001038,286.967834 
	C811.965881,287.967712 805.930725,288.967560 799.450256,289.899658 
z"/>
<path fill="#2B3A6E" opacity="1.000000" stroke="none" 
	d="
M189.483276,535.383423 
	C184.538361,542.232239 178.093643,545.364807 170.054489,545.346985 
	C164.431717,545.334534 158.808899,545.344604 152.817703,545.344604 
	C152.817703,530.069214 152.817703,515.212341 152.817703,500.176819 
	C160.438873,500.176819 168.023010,499.222900 175.273346,500.373138 
	C190.923950,502.855988 197.816330,520.179871 189.483276,535.383423 
M168.441498,534.842712 
	C174.236557,534.981750 179.033783,533.034424 181.394730,527.482239 
	C183.249207,523.121033 182.912949,518.600037 179.708923,514.827637 
	C175.417557,509.774902 169.726166,509.827240 163.376099,510.695160 
	C163.376099,518.060181 163.413803,525.167664 163.359512,532.274414 
	C163.333969,535.615234 165.744858,534.685669 168.441498,534.842712 
z"/>
<path fill="#2A396D" opacity="1.000000" stroke="none" 
	d="
M63.158669,501.999939 
	C72.741821,497.266693 81.638344,498.074768 89.664909,504.359589 
	C97.342979,510.371552 99.708214,518.779968 97.623550,528.039856 
	C95.506310,537.444397 89.213821,543.269775 79.799309,545.499451 
	C69.013664,548.053711 57.874954,542.551392 53.354137,532.553467 
	C48.342655,521.470459 52.054619,509.546173 63.158669,501.999939 
M85.375710,529.552734 
	C88.258125,524.417969 88.158821,519.364441 84.623146,514.623413 
	C81.397324,510.297821 76.812744,509.004944 71.744164,510.135223 
	C66.535736,511.296722 63.569790,514.979004 62.418602,520.091309 
	C61.208580,525.464844 64.041191,531.422729 68.912361,534.006165 
	C74.197128,536.808960 80.055565,535.422546 85.375710,529.552734 
z"/>
<path fill="#2A396D" opacity="1.000000" stroke="none" 
	d="
M345.929169,499.854401 
	C357.590912,503.620514 364.201111,512.419983 363.814117,523.223938 
	C363.424255,534.108765 356.277771,542.781006 345.534637,545.406006 
	C335.394196,547.883789 324.831543,543.556824 319.880737,534.482727 
	C315.075836,525.676086 315.341461,516.703064 321.254913,508.587189 
	C327.201904,500.425262 335.586517,497.619232 345.929169,499.854401 
M349.052094,513.423706 
	C343.082733,508.771454 336.663269,508.574951 331.881287,512.898132 
	C327.420105,516.931274 326.356934,524.147461 329.460815,529.327454 
	C333.043671,535.306763 341.050446,537.241821 346.879150,533.537231 
	C353.501801,529.328064 354.614380,521.224060 349.052094,513.423706 
z"/>
<path fill="#2A396D" opacity="1.000000" stroke="none" 
	d="
M822.538452,531.291016 
	C817.248596,542.239685 807.287354,547.675964 796.454712,545.771545 
	C785.815857,543.901306 778.141113,535.473022 777.162659,524.585510 
	C776.219360,514.089050 782.307617,504.171448 792.131653,500.617157 
	C801.195435,497.337921 809.642456,498.865356 816.683228,505.370697 
	C824.276428,512.386475 825.760986,521.223938 822.538452,531.291016 
M788.232544,520.105591 
	C787.417053,525.948059 789.295105,530.748779 794.401062,533.725220 
	C798.719666,536.242615 803.344543,536.067383 807.614319,533.268250 
	C812.319458,530.183655 814.379272,524.207886 812.773865,518.772156 
	C811.308289,513.809814 806.513306,510.063507 801.357605,509.852753 
	C794.997559,509.592834 791.079773,512.469360 788.232544,520.105591 
z"/>
<path fill="#289FD8" opacity="1.000000" stroke="none" 
	d="
M920.043579,106.610535 
	C873.409851,106.989120 826.768127,106.996490 779.673035,107.005783 
	C780.406128,103.877571 781.592468,100.747437 782.976685,97.313278 
	C785.288635,97.339409 787.402344,97.955238 789.516785,97.957481 
	C831.441833,98.002090 873.367004,97.975700 915.780151,97.936920 
	C917.523987,100.686523 918.779785,103.462921 920.043579,106.610535 
z"/>
<path fill="#27376B" opacity="1.000000" stroke="none" 
	d="
M34.960419,543.185059 
	C25.653313,544.270508 16.704218,545.194336 7.376029,546.157288 
	C7.376029,529.988159 7.376029,515.280151 7.376029,500.544128 
	C15.381809,500.544128 23.409201,499.582581 31.095352,500.791199 
	C40.391193,502.252838 46.637283,510.298401 47.853447,519.571106 
	C49.119450,529.223816 44.614849,537.651672 34.960419,543.185059 
M35.038040,515.684998 
	C30.630079,509.734863 24.568941,509.857025 18.410896,510.614929 
	C18.410896,518.967712 18.410896,526.828857 18.410896,534.647400 
	C33.656990,535.439758 40.331207,528.087891 35.038040,515.684998 
z"/>
<path fill="#2A396D" opacity="1.000000" stroke="none" 
	d="
M395.728516,502.020203 
	C405.288422,510.060913 404.766388,519.344421 394.362854,529.346313 
	C397.395630,534.350403 400.461029,539.408325 403.582825,544.559326 
	C394.151459,546.781921 392.625854,546.030029 387.793335,538.761230 
	C385.872284,535.871704 385.092438,531.679260 380.206055,530.351013 
	C380.206055,535.577393 380.206055,540.153687 380.206055,545.032043 
	C376.360413,545.032043 372.965576,545.032043 369.359680,545.032043 
	C369.359680,530.009705 369.359680,515.281860 369.359680,499.669495 
	C378.193085,500.697754 386.959473,497.899780 395.728516,502.020203 
M388.711182,510.377502 
	C385.990662,510.084595 383.270172,509.791656 380.348633,509.477081 
	C380.348633,513.578247 380.348633,516.981445 380.348633,521.969421 
	C384.277435,520.497314 387.848053,519.806213 390.444885,517.833374 
	C391.346405,517.148499 389.835449,513.288086 388.711182,510.377502 
z"/>
<path fill="#28386C" opacity="1.000000" stroke="none" 
	d="
M857.726807,534.203735 
	C859.969604,537.864075 862.013550,541.214722 864.143982,544.707092 
	C853.284729,546.558655 853.208557,546.492493 847.735229,537.819702 
	C846.090637,535.213806 844.223755,532.748108 842.458740,530.218201 
	C841.944824,530.444580 841.430908,530.670959 840.916992,530.897339 
	C840.916992,535.439514 840.916992,539.981689 840.916992,544.926819 
	C836.948730,544.926819 833.571289,544.926819 829.975342,544.926819 
	C829.975342,530.041931 829.975342,515.271240 829.975342,500.147430 
	C837.358276,500.147430 844.748108,499.261810 851.832947,500.354279 
	C862.553223,502.007263 866.665894,516.648743 859.250061,524.994751 
	C857.950439,526.457458 856.375549,527.675537 854.756104,529.164429 
	C855.711060,530.793762 856.619568,532.343933 857.726807,534.203735 
M845.927063,520.754333 
	C849.923279,520.214844 852.593811,518.350647 851.816650,513.905701 
	C851.155212,510.122528 847.665466,509.027496 840.923340,510.225189 
	C840.923340,513.577515 840.923340,516.953979 840.923340,520.786133 
	C842.508545,520.786133 843.789734,520.786133 845.927063,520.754333 
z"/>
<path fill="#1E9FD9" opacity="1.000000" stroke="none" 
	d="
M400.428192,277.584900 
	C396.815704,272.589081 393.426025,267.876343 389.218872,262.027039 
	C389.218872,270.496460 389.218872,277.668610 389.218872,284.756775 
	C388.101929,285.204803 387.514221,285.607513 386.895081,285.663513 
	C379.148224,286.364319 379.053741,286.268433 379.053192,278.646881 
	C379.052399,267.510651 379.052979,256.374420 379.052979,245.335434 
	C387.013702,243.270874 388.518982,243.785004 392.820862,249.778687 
	C396.891815,255.450653 400.973419,261.114990 405.891541,267.952057 
	C405.891541,259.565765 405.891541,252.440536 405.891541,244.898102 
	C409.590607,244.898102 412.633575,244.898102 415.879150,244.898102 
	C415.879150,258.444855 415.879150,271.714600 415.879150,284.931549 
	C407.699646,287.081848 406.899261,286.702850 400.428192,277.584900 
z"/>
<path fill="#2A55A0" opacity="1.000000" stroke="none" 
	d="
M818.378662,286.977539 
	C817.997314,267.333893 817.993530,247.699951 818.327576,227.696411 
	C822.410889,228.610260 826.156433,229.893707 830.025513,231.376770 
	C830.374207,231.805481 830.640747,231.965469 830.977905,232.449005 
	C833.560425,246.444244 840.827576,257.646057 849.087952,268.341980 
	C840.756104,277.450653 830.421570,283.301361 818.378662,286.977539 
z"/>
<path fill="#28386C" opacity="1.000000" stroke="none" 
	d="
M894.593506,499.827271 
	C895.812744,501.151642 896.957275,502.395569 897.241638,503.812195 
	C897.622070,505.707245 897.335754,507.736176 897.335754,510.250122 
	C891.373962,510.250122 885.794739,510.250122 879.892395,510.250122 
	C879.892395,512.705200 879.892395,514.623413 879.892395,517.210938 
	C884.717163,517.210938 889.611572,517.210938 894.749451,517.210938 
	C894.749451,520.951294 894.749451,524.043640 894.749451,527.746704 
	C889.764648,527.746704 884.861084,527.746704 879.761292,527.746704 
	C879.761292,530.291809 879.761292,532.229614 879.761292,534.656860 
	C885.517456,534.656860 891.115112,534.656860 897.125549,534.656860 
	C897.125549,538.337952 897.125549,541.538574 897.125549,545.041565 
	C887.781860,545.041565 878.535645,545.041565 868.975342,545.041565 
	C868.975342,530.028564 868.975342,515.132080 868.975342,499.823730 
	C877.513306,499.823730 885.824585,499.823730 894.593506,499.827271 
z"/>
<path fill="#2A85C4" opacity="1.000000" stroke="none" 
	d="
M893.933350,219.728424 
	C893.958130,242.741989 893.982910,265.755554 894.010803,289.214661 
	C888.482971,288.414124 882.951965,287.167969 877.168091,285.238403 
	C876.943481,268.029144 877.003479,251.503189 876.953552,234.977554 
	C876.948242,233.218277 876.300171,231.460938 876.187012,229.474762 
	C882.260254,226.074020 888.096802,222.901230 893.933350,219.728424 
z"/>
<path fill="#28386C" opacity="1.000000" stroke="none" 
	d="
M510.644714,522.086060 
	C511.219208,526.459473 509.945038,528.400208 505.554810,527.919678 
	C502.286377,527.561890 498.947357,527.849182 495.325378,527.849182 
	C495.325378,530.152649 495.325378,532.209656 495.325378,534.836975 
	C501.072235,534.836975 506.803589,534.836975 512.760620,534.836975 
	C512.760620,538.490173 512.760620,541.584229 512.760620,545.008606 
	C503.294617,545.008606 493.905426,545.008606 484.287048,545.008606 
	C484.287048,530.072571 484.287048,515.333557 484.287048,500.208313 
	C493.752167,500.208313 503.096466,500.208313 512.691956,500.208313 
	C512.691956,503.532593 512.691956,506.625854 512.691956,510.130524 
	C506.965912,510.130524 501.355896,510.130524 495.378967,510.130524 
	C495.378967,512.571594 495.378967,514.611572 495.378967,517.278748 
	C498.898041,517.278748 502.503601,517.468140 506.079620,517.224060 
	C509.481201,516.991943 511.187775,518.042480 510.644714,522.086060 
z"/>
<path fill="#28386C" opacity="1.000000" stroke="none" 
	d="
M419.022308,532.771545 
	C420.389832,533.763062 421.728607,534.689270 423.105469,534.749756 
	C427.554626,534.945374 432.017792,534.822754 436.736084,534.822754 
	C436.736084,538.370850 436.736084,541.462402 436.736084,544.949097 
	C427.405182,544.949097 418.041382,544.949097 408.387146,544.949097 
	C408.387146,530.113586 408.387146,515.383911 408.387146,500.237732 
	C417.778046,500.237732 427.124695,500.237732 436.726440,500.237732 
	C436.726440,503.471741 436.726440,506.567535 436.726440,510.229126 
	C430.926208,510.229126 425.192322,510.229126 419.242035,510.229126 
	C419.242035,512.726196 419.242035,514.662109 419.242035,517.280579 
	C423.189850,517.280579 427.124573,517.472351 431.032318,517.229919 
	C435.471680,516.954468 434.747589,519.948486 434.701508,522.529663 
	C434.656982,525.023926 435.650787,528.168335 431.120148,527.895020 
	C427.319885,527.665649 423.494812,527.847839 419.284943,527.847839 
	C419.185883,529.461487 419.098450,530.885742 419.022308,532.771545 
z"/>
<path fill="#28386C" opacity="1.000000" stroke="none" 
	d="
M217.910278,517.278442 
	C220.500443,517.278503 222.612076,517.278503 224.945068,517.278503 
	C224.945068,521.011047 224.945068,524.103699 224.945068,527.658691 
	C219.980423,527.658691 215.232513,527.658691 210.141418,527.658691 
	C210.141418,530.150452 210.141418,532.193848 210.141418,534.704956 
	C215.767410,534.704956 221.361221,534.704956 227.370697,534.704956 
	C227.370697,538.343750 227.370697,541.539856 227.370697,545.039673 
	C218.044968,545.039673 208.795563,545.039673 199.209656,545.039673 
	C199.209656,530.118103 199.209656,515.268921 199.209656,500.120056 
	C208.516800,500.120056 217.740891,500.120056 227.306458,500.120056 
	C227.306458,503.317352 227.306458,506.405823 227.306458,510.026886 
	C221.753296,510.026886 216.182571,510.026886 210.206360,510.026886 
	C210.206360,512.578308 210.206360,514.610962 210.206360,517.278442 
	C212.573288,517.278442 215.002518,517.278442 217.910278,517.278442 
z"/>
<path fill="#1E9FD9" opacity="1.000000" stroke="none" 
	d="
M599.430420,244.510666 
	C611.653137,246.102829 618.459473,252.629211 619.582336,263.436066 
	C620.514954,272.412994 614.908081,282.044861 605.921814,284.194855 
	C598.687988,285.925476 590.972656,285.643463 583.145874,286.280945 
	C583.145874,271.792755 583.145874,258.546722 583.145874,244.484955 
	C588.491821,244.484955 593.740356,244.484955 599.430420,244.510666 
M598.181519,254.037277 
	C596.448730,254.037277 594.716003,254.037277 593.085205,254.037277 
	C593.085205,261.749207 593.085205,268.662872 593.085205,275.532379 
	C602.919983,276.878784 608.687744,273.669006 609.733032,266.461609 
	C610.641418,260.198059 606.596558,255.506653 598.181519,254.037277 
z"/>
<path fill="#1E9FD9" opacity="1.000000" stroke="none" 
	d="
M528.051392,253.191177 
	C535.899902,243.558975 546.891296,241.262405 556.622314,246.940186 
	C565.502747,252.121704 569.232117,263.223602 565.351196,272.925232 
	C560.788025,284.332428 547.614929,289.417633 536.339233,284.124695 
	C525.100037,278.848907 521.423035,265.562958 528.051392,253.191177 
M550.360352,254.598389 
	C542.193115,252.439453 536.534302,255.225525 534.816467,262.251099 
	C533.177429,268.954834 537.070068,275.148376 543.727600,276.429352 
	C548.624084,277.371490 553.768921,274.667389 555.974487,269.992462 
	C558.538208,264.558258 556.857239,259.398651 550.360352,254.598389 
z"/>
<path fill="#2A396D" opacity="1.000000" stroke="none" 
	d="
M919.399780,535.134033 
	C923.175049,532.693726 922.093201,530.541992 919.292542,528.931274 
	C916.715881,527.449341 913.833435,526.510681 911.157959,525.186768 
	C904.205444,521.746338 901.537231,516.796875 902.803955,509.912537 
	C903.887146,504.025330 909.124329,499.691254 916.117004,499.128357 
	C921.588928,498.687897 926.618774,499.963654 931.299194,503.709106 
	C930.226379,505.358368 929.106873,506.795349 928.296204,508.389374 
	C926.924805,511.086029 925.179810,512.134827 922.345215,510.410645 
	C921.806091,510.082703 921.022339,509.838409 920.436829,509.961548 
	C918.189331,510.434113 915.976562,511.072021 913.750854,511.648193 
	C915.330505,513.253418 916.715637,515.145630 918.543579,516.384644 
	C920.435059,517.666626 922.823425,518.186523 924.876404,519.264648 
	C930.550110,522.244019 933.432739,527.365356 932.817017,533.080261 
	C932.152771,539.245361 927.919434,543.915527 921.526123,545.536133 
	C914.721680,547.260925 907.293335,545.127319 901.593872,539.601990 
	C902.372131,538.308105 903.163452,536.902100 904.044373,535.554565 
	C904.848083,534.325134 905.748840,533.159058 906.089966,532.684265 
	C910.799561,533.622620 914.901123,534.439880 919.399780,535.134033 
z"/>
<path fill="#1E9FD9" opacity="1.000000" stroke="none" 
	d="
M621.471497,267.997253 
	C621.471802,260.048004 621.471802,252.598206 621.471802,244.816528 
	C630.271851,244.816528 638.500793,244.816528 647.130859,244.816528 
	C647.130859,247.809509 647.130859,250.685242 647.130859,254.009430 
	C641.946838,254.009430 637.015259,254.009430 631.775085,254.009430 
	C631.775085,256.171753 631.775085,257.891907 631.775085,260.243805 
	C634.578308,260.243805 637.235107,260.533966 639.803589,260.181274 
	C644.629639,259.518646 646.111694,261.660767 645.436707,266.068207 
	C645.265198,267.187805 645.116272,268.310852 644.887817,269.919189 
	C640.459778,269.919189 636.202209,269.919189 631.706421,269.919189 
	C631.706421,272.049622 631.706421,273.659576 631.706421,275.866180 
	C636.800598,275.866180 641.857178,275.866180 647.356934,275.866180 
	C647.480713,278.546844 647.939697,280.730286 647.535706,282.740295 
	C647.305054,283.888275 645.700745,285.572113 644.659668,285.613220 
	C638.009827,285.875824 631.337891,285.898651 624.690918,285.603790 
	C623.577332,285.554382 621.718384,283.636536 621.628235,282.471771 
	C621.269531,277.837128 621.474792,273.158844 621.471497,267.997253 
z"/>
<path fill="#2B3A6E" opacity="1.000000" stroke="none" 
	d="
M441.486542,527.220093 
	C440.085052,516.289185 443.222382,507.592499 452.659363,502.203461 
	C460.939178,497.475220 469.390869,497.957306 478.134033,503.180878 
	C476.187653,506.266815 474.470581,508.989227 472.825745,511.597076 
	C462.166321,508.908936 457.572021,509.951111 453.952454,515.672485 
	C451.053741,520.254456 451.365723,526.330017 454.719452,530.606628 
	C458.701477,535.684326 463.552124,536.461670 472.665375,533.281677 
	C474.403076,535.917114 476.197479,538.638489 477.971039,541.328308 
	C465.152100,551.908997 445.934143,544.492615 441.486542,527.220093 
z"/>
<path fill="#1A9DD8" opacity="1.000000" stroke="none" 
	d="
M351.072021,269.363098 
	C351.864960,274.428040 354.352631,277.046143 359.273254,276.510132 
	C364.174683,275.976288 365.380798,272.416016 365.433289,268.272125 
	C365.529938,260.639221 365.460876,253.004227 365.460876,244.938385 
	C368.847198,244.938385 371.734741,244.938385 374.920044,244.938385 
	C374.920044,254.686401 375.583618,264.339935 374.717865,273.854279 
	C373.975739,282.010529 365.950256,286.671295 356.275208,286.037506 
	C347.917664,285.490082 342.004425,279.572327 341.191315,270.876495 
	C341.052246,269.389008 341.109375,267.881439 341.107819,266.383118 
	C341.100586,259.400879 341.104614,252.418640 341.104614,244.965912 
	C344.423981,244.965912 347.453308,244.965912 351.034912,244.965912 
	C351.034912,253.037506 351.034912,260.982483 351.072021,269.363098 
z"/>
<path fill="#26366B" opacity="1.000000" stroke="none" 
	d="
M733.001526,518.925659 
	C735.801147,518.925659 738.115173,518.925659 740.796753,518.925659 
	C740.796753,522.268494 740.796753,525.334167 740.796753,528.938904 
	C735.533508,528.938904 730.124939,528.938904 724.192688,528.938904 
	C724.192688,534.502075 724.192688,539.563599 724.192688,544.956909 
	C720.430298,544.956909 717.187134,544.956909 713.523315,544.956909 
	C713.523315,530.238098 713.523315,515.512695 713.523315,500.306641 
	C723.332642,500.306641 733.344604,500.306641 743.648376,500.306641 
	C743.648376,503.425446 743.648376,506.494385 743.648376,510.075073 
	C737.274048,510.075073 731.023132,510.075073 724.392029,510.075073 
	C724.392029,513.118896 724.392029,515.681152 724.392029,518.925659 
	C726.978882,518.925659 729.747437,518.925659 733.001526,518.925659 
z"/>
<path fill="#27376B" opacity="1.000000" stroke="none" 
	d="
M272.955048,499.825989 
	C276.583466,499.825958 279.720367,499.825958 283.141479,499.825958 
	C283.141479,503.336823 283.141479,506.436310 283.141479,510.127960 
	C276.809784,510.127960 270.592712,510.127960 264.054047,510.127960 
	C264.054047,513.268555 264.054047,515.828735 264.054047,518.917236 
	C269.504303,518.917236 274.912750,518.917236 280.600494,518.917236 
	C280.600494,522.356323 280.600494,525.285706 280.600494,528.976074 
	C275.201385,528.976074 269.679047,528.976074 263.728882,528.976074 
	C263.728882,534.644714 263.728882,539.574036 263.728882,544.896240 
	C260.064667,544.896240 256.831451,544.896240 253.209152,544.896240 
	C253.209152,530.200134 253.209152,515.337463 253.209152,499.826019 
	C259.612427,499.826019 266.037994,499.826019 272.955048,499.825989 
z"/>
<path fill="#2A91CE" opacity="1.000000" stroke="none" 
	d="
M875.950317,229.702698 
	C876.300171,231.460938 876.948242,233.218277 876.953552,234.977554 
	C877.003479,251.503189 876.943481,268.029144 876.861328,285.065125 
	C866.549255,282.191467 858.068665,276.001740 850.224304,268.157043 
	C859.207886,257.318695 866.299683,246.093597 868.464233,232.123459 
	C868.888611,231.800735 869.063354,231.558548 869.560913,231.223755 
	C871.947144,230.684769 873.948730,230.193741 875.950317,229.702698 
z"/>
<path fill="#1E9FD9" opacity="1.000000" stroke="none" 
	d="
M511.006866,258.880859 
	C509.527161,271.066589 501.229797,272.994812 491.017670,272.313995 
	C491.017670,276.901520 491.017670,280.978027 491.017670,285.730347 
	C488.292328,285.730347 485.971008,286.018097 483.783234,285.602570 
	C482.770142,285.410095 481.272095,283.857239 481.259277,282.904083 
	C481.090057,270.326294 481.146515,257.745453 481.146515,245.016006 
	C488.222015,245.016006 494.866699,244.446564 501.363251,245.183258 
	C507.330872,245.859970 510.562958,251.091614 511.006866,258.880859 
M498.688507,262.703339 
	C499.360291,260.543488 501.136719,256.964722 500.508087,256.475311 
	C498.093842,254.595810 494.908539,253.706802 491.275452,252.128906 
	C491.275452,256.838074 491.275452,259.883972 491.275452,263.313843 
	C493.657227,263.195740 495.762817,263.091339 498.688507,262.703339 
z"/>
<path fill="#072C7E" opacity="1.000000" stroke="none" 
	d="
M868.276550,232.248688 
	C866.299683,246.093597 859.207886,257.318695 850.050415,267.877441 
	C849.909302,268.196808 849.495117,268.249390 849.291504,268.295685 
	C840.827576,257.646057 833.560425,246.444244 831.399658,232.421967 
	C843.935059,234.851913 856.098328,234.659561 868.276550,232.248688 
z"/>
<path fill="#1E9FD9" opacity="1.000000" stroke="none" 
	d="
M437.287292,279.683472 
	C429.905945,270.071014 430.112183,257.963745 437.543945,250.208176 
	C444.460938,242.989822 456.127258,241.884674 464.430084,247.661316 
	C461.987732,254.407669 461.552917,254.677292 454.568298,253.802841 
	C449.840179,253.210922 445.931091,254.660934 443.438782,258.813263 
	C440.920135,263.009521 440.944275,267.408447 443.566956,271.572388 
	C446.163483,275.694763 450.440094,277.823914 454.727448,276.128265 
	C461.370056,273.501160 462.557007,278.070160 464.765564,281.926575 
	C457.210693,288.401764 446.151306,287.544250 437.287292,279.683472 
z"/>
<path fill="#2B3A6E" opacity="1.000000" stroke="none" 
	d="
M754.062012,499.816223 
	C755.847168,499.816193 757.158386,499.816193 759.062500,499.816193 
	C759.062500,511.471405 759.062500,522.849121 759.062500,534.711365 
	C764.392029,534.711365 769.147095,534.711365 774.225647,534.711365 
	C774.225647,538.304810 774.225647,541.406311 774.225647,544.928833 
	C765.882690,544.928833 757.509399,544.928833 748.699829,544.928833 
	C748.699829,530.144165 748.699829,515.302734 748.699829,500.039246 
	C750.372437,499.962952 751.980286,499.889618 754.062012,499.816223 
z"/>
<path fill="#26366B" opacity="1.000000" stroke="none" 
	d="
M295.053223,545.297241 
	C292.584686,545.297302 290.610077,545.297302 288.316895,545.297302 
	C288.316895,530.114502 288.316895,515.261841 288.316895,500.118225 
	C291.643616,500.118225 294.891479,500.118225 298.714508,500.118225 
	C298.714508,511.525757 298.714508,522.896423 298.714508,534.771362 
	C303.999695,534.771362 308.736084,534.771362 313.729614,534.771362 
	C313.729614,538.353333 313.729614,541.433411 313.729614,545.297241 
	C307.688782,545.297241 301.617950,545.297241 295.053223,545.297241 
z"/>
<path fill="#26366B" opacity="1.000000" stroke="none" 
	d="
M670.055176,545.297241 
	C667.588074,545.297302 665.614563,545.297302 663.319824,545.297302 
	C663.319824,530.098877 663.319824,515.247375 663.319824,500.111481 
	C666.672729,500.111481 669.920166,500.111481 673.739624,500.111481 
	C673.739624,511.538910 673.739624,522.910461 673.739624,534.780884 
	C679.022949,534.780884 683.759705,534.780884 688.740112,534.780884 
	C688.740112,538.360779 688.740112,541.443176 688.740112,545.297241 
	C682.694214,545.297241 676.621521,545.297241 670.055176,545.297241 
z"/>
<path fill="#2B3A6E" opacity="1.000000" stroke="none" 
	d="
M644.345459,523.999695 
	C644.345520,515.874512 644.345520,508.249268 644.345520,500.223022 
	C648.123108,500.223022 651.490356,500.223022 655.066345,500.223022 
	C655.066345,515.047241 655.066345,529.812500 655.066345,544.962158 
	C651.678284,544.962158 648.322693,544.962158 644.345459,544.962158 
	C644.345459,538.033020 644.345459,531.266357 644.345459,523.999695 
z"/>
<path fill="#29A2DA" opacity="1.000000" stroke="none" 
	d="
M477.364868,246.739548 
	C477.384766,259.758972 477.384766,272.345612 477.384766,285.266632 
	C475.739807,285.474335 474.486359,285.609406 473.240295,285.794189 
	C468.874390,286.441589 467.038300,285.051239 467.223053,280.183777 
	C467.606812,270.072815 467.262970,259.936066 467.411194,249.812698 
	C467.436859,248.059296 468.444183,244.812637 468.942444,244.823425 
	C471.752716,244.884293 474.545929,245.729141 477.364868,246.739548 
z"/>
<path fill="#1E9FD9" opacity="1.000000" stroke="none" 
	d="
M522.755981,266.998596 
	C522.755920,271.648560 522.413574,275.834839 522.842773,279.940460 
	C523.376587,285.047058 521.140015,286.454224 516.589478,285.764893 
	C515.626526,285.619049 514.644653,285.598419 513.285706,285.489044 
	C513.285706,271.986511 513.285706,258.641632 513.285706,245.151138 
	C513.586426,245.006607 514.002808,244.654816 514.446777,244.615570 
	C522.754883,243.880905 522.755676,243.888702 522.756042,252.055435 
	C522.756226,256.869995 522.756042,261.684540 522.755981,266.998596 
z"/>
<path fill="#1E9FD9" opacity="1.000000" stroke="none" 
	d="
M429.900513,282.561157 
	C427.696167,288.442230 423.633270,284.638458 420.193359,285.618744 
	C420.193359,271.685150 420.193359,258.435944 420.193359,244.865967 
	C423.421478,244.865967 426.471344,244.865967 429.904724,244.865967 
	C429.904724,257.539459 429.904724,269.822449 429.900513,282.561157 
z"/>
<path fill="#FEFEFF" opacity="1.000000" stroke="none" 
	d="
M836.534302,348.255676 
	C864.829651,342.660553 888.248352,357.117554 893.319397,383.705627 
	C896.810974,402.013031 891.381409,417.843475 876.417542,429.387756 
	C861.784424,440.676880 845.339050,442.193115 828.957703,434.109314 
	C812.489624,425.982727 804.319885,411.728119 804.047546,393.350067 
	C803.732178,372.068146 816.050354,355.052765 836.534302,348.255676 
z"/>
<path fill="#FEFEFF" opacity="1.000000" stroke="none" 
	d="
M286.629272,437.900757 
	C259.584900,441.188873 239.491806,428.209625 233.607315,403.984833 
	C227.650208,379.461060 242.432007,353.713013 265.713715,348.059509 
	C290.989685,341.921753 315.778137,356.917969 321.489960,382.127197 
	C327.750336,409.757385 309.616119,433.214081 286.629272,437.900757 
z"/>
<path fill="#FCFEFE" opacity="1.000000" stroke="none" 
	d="
M424.897705,386.103455 
	C419.137939,386.106201 413.862396,386.106201 408.352631,386.106201 
	C408.352631,372.645172 408.352631,359.740723 408.352631,345.611908 
	C417.423645,346.252136 426.444397,346.026306 435.087128,347.724426 
	C445.136383,349.698883 450.037445,358.239410 448.947693,368.889221 
	C447.984680,378.300659 440.934052,384.782257 430.368713,385.905884 
	C428.718231,386.081451 427.044739,386.041199 424.897705,386.103455 
z"/>
<path fill="#073888" opacity="1.000000" stroke="none" 
	d="
M924.950073,126.014702 
	C925.639709,131.705322 926.329407,137.395920 926.644775,143.580627 
	C914.186829,151.177246 902.281311,158.608841 889.961731,165.275269 
	C880.570312,170.357117 870.653931,174.468597 860.697876,178.808853 
	C858.577576,174.829651 856.730469,171.053375 855.071777,166.965485 
	C862.324158,163.031998 869.603760,159.771484 876.405640,155.710678 
	C889.310303,148.006393 901.924255,139.816193 914.697510,131.889877 
	C918.042297,129.814331 921.528687,127.966896 924.950073,126.014702 
z"/>
<path fill="#074192" opacity="1.000000" stroke="none" 
	d="
M924.977417,125.606361 
	C921.528687,127.966896 918.042297,129.814331 914.697510,131.889877 
	C901.924255,139.816193 889.310303,148.006393 876.405640,155.710678 
	C869.603760,159.771484 862.324158,163.031998 854.766479,166.837204 
	C852.835754,165.357330 851.398743,163.694092 849.967896,161.781616 
	C849.973999,161.532410 849.993530,161.034225 850.137146,160.730896 
	C855.548218,154.967926 860.815613,149.508286 866.389709,143.905518 
	C872.467285,139.866791 878.238220,135.971207 884.367004,132.015961 
	C895.152954,127.644371 905.581055,123.332451 916.009155,119.020538 
	C918.045776,118.637794 920.082336,118.255051 922.505127,117.812073 
	C923.595825,120.233894 924.300293,122.715965 924.977417,125.606361 
z"/>
<path fill="#07307F" opacity="1.000000" stroke="none" 
	d="
M860.971069,179.011780 
	C870.653931,174.468597 880.570312,170.357117 889.961731,165.275269 
	C902.281311,158.608841 914.186829,151.177246 926.625000,144.040131 
	C926.565613,150.156296 926.151672,156.307098 925.118408,162.770721 
	C922.390076,164.032516 920.227356,164.878769 918.180603,165.947052 
	C904.962097,172.846191 891.838013,179.930817 878.524780,186.640930 
	C874.596802,188.620712 870.158020,189.587021 865.685303,190.789093 
	C863.934448,187.043365 862.451599,183.526291 860.976318,179.759872 
	C860.983948,179.510529 860.971069,179.011780 860.971069,179.011780 
z"/>
<path fill="#072A77" opacity="1.000000" stroke="none" 
	d="
M865.953308,191.017761 
	C870.158020,189.587021 874.596802,188.620712 878.524780,186.640930 
	C891.838013,179.930817 904.962097,172.846191 918.180603,165.947052 
	C920.227356,164.878769 922.390076,164.032516 924.890259,163.088242 
	C925.433716,164.138214 925.586060,165.183533 925.715027,166.545197 
	C923.985596,172.082687 922.279480,177.303833 919.924561,182.769135 
	C911.447021,186.545364 903.694824,190.261002 895.769287,193.560532 
	C886.949097,197.232544 877.971130,200.525665 868.996094,203.596756 
	C867.937988,199.145782 866.945618,195.081772 865.953308,191.017761 
z"/>
<path fill="#07236E" opacity="1.000000" stroke="none" 
	d="
M869.061829,203.983704 
	C877.971130,200.525665 886.949097,197.232544 895.769287,193.560532 
	C903.694824,190.261002 911.447021,186.545364 919.657593,183.012192 
	C916.684570,189.653809 913.329590,196.296509 909.894409,203.249664 
	C904.634766,208.770309 899.455261,213.980530 894.104553,219.459595 
	C888.096802,222.901230 882.260254,226.074020 876.187012,229.474762 
	C873.948730,230.193741 871.947144,230.684769 869.509033,230.774597 
	C869.068909,221.576813 869.065369,212.780243 869.061829,203.983704 
z"/>
<path fill="#07236E" opacity="1.000000" stroke="none" 
	d="
M785.033020,194.984619 
	C785.033020,194.984634 784.627991,194.936600 784.426025,194.925766 
	C782.454529,190.585129 780.684998,186.255325 779.094116,181.255646 
	C784.307007,177.756607 789.572021,175.267014 794.331360,172.033173 
	C807.405029,163.149979 820.266541,153.954437 833.488770,144.935730 
	C834.131775,145.086014 834.497864,145.183090 835.041870,145.548065 
	C838.205933,149.069733 841.192078,152.323502 844.038574,155.913635 
	C840.403687,159.275391 837.223450,162.799927 833.358337,165.238968 
	C817.362732,175.332901 801.159790,185.098480 785.033020,194.984619 
z"/>
<path fill="#072A77" opacity="1.000000" stroke="none" 
	d="
M833.211975,144.882477 
	C820.266541,153.954437 807.405029,163.149979 794.331360,172.033173 
	C789.572021,175.267014 784.307007,177.756607 779.063599,180.880737 
	C777.244141,175.724564 775.633789,170.273422 774.392151,164.372910 
	C783.516052,158.441055 792.486572,153.267532 800.951477,147.368439 
	C806.684937,143.372849 811.707520,138.357254 817.393066,133.892395 
	C822.896057,137.618790 828.054016,141.250626 833.211975,144.882477 
z"/>
<path fill="#07307F" opacity="1.000000" stroke="none" 
	d="
M817.048035,133.797821 
	C811.707520,138.357254 806.684937,143.372849 800.951477,147.368439 
	C792.486572,153.267532 783.516052,158.441055 774.407288,163.963364 
	C773.401855,157.646744 772.750000,151.290298 772.509277,144.472275 
	C774.702209,143.297958 776.708313,142.899826 778.226074,141.817093 
	C784.229675,137.534348 790.114502,133.081650 795.959351,128.582779 
	C797.160767,127.658035 798.000793,126.263893 799.368408,125.108131 
	C804.429077,127.134872 809.128723,129.139603 814.025146,131.378021 
	C815.163940,132.340408 816.105957,133.069122 817.048035,133.797821 
z"/>
<path fill="#073888" opacity="1.000000" stroke="none" 
	d="
M799.007446,125.086136 
	C798.000793,126.263893 797.160767,127.658035 795.959351,128.582779 
	C790.114502,133.081650 784.229675,137.534348 778.226074,141.817093 
	C776.708313,142.899826 774.702209,143.297958 772.553467,144.019318 
	C773.366882,135.536560 774.547241,127.045135 775.871338,118.176971 
	C778.387695,118.231979 780.760376,118.663742 783.792114,119.368881 
	C789.303284,121.456894 794.155396,123.271515 799.007446,125.086136 
z"/>
<path fill="#298CCA" opacity="1.000000" stroke="none" 
	d="
M799.368408,125.108139 
	C794.155396,123.271515 789.303284,121.456894 784.194824,119.394302 
	C785.307800,118.764160 786.676575,118.049973 788.046448,118.048050 
	C829.695923,117.989510 871.345520,117.998680 912.995056,118.019020 
	C913.804688,118.019417 914.614258,118.279678 915.716492,118.719612 
	C905.581055,123.332451 895.152954,127.644371 884.279602,131.611176 
	C882.350342,130.844894 880.867859,130.062973 879.382141,130.056992 
	C859.282715,129.975845 839.182678,129.974213 819.083191,130.052063 
	C817.330200,130.058838 815.579956,130.763733 813.828430,131.144348 
	C809.128723,129.139603 804.429077,127.134872 799.368408,125.108139 
z"/>
<path fill="#071D66" opacity="1.000000" stroke="none" 
	d="
M785.136719,195.314804 
	C801.159790,185.098480 817.362732,175.332901 833.358337,165.238968 
	C837.223450,162.799927 840.403687,159.275391 844.341431,156.069504 
	C846.520569,157.604080 848.257019,159.319153 849.993530,161.034225 
	C849.993530,161.034225 849.973999,161.532410 849.670654,161.930267 
	C844.579773,170.220245 839.792358,178.112381 834.653564,186.039032 
	C833.589478,186.471924 832.877930,186.872452 832.163818,187.268280 
	C819.617920,194.222382 807.071716,201.175888 794.525574,208.129517 
	C791.430481,203.968002 788.335388,199.806488 785.136719,195.314804 
z"/>
<path fill="#07165C" opacity="1.000000" stroke="none" 
	d="
M794.669189,208.454514 
	C807.071716,201.175888 819.617920,194.222382 832.163818,187.268280 
	C832.877930,186.872452 833.589478,186.471924 834.645874,186.430832 
	C833.327148,194.192413 831.664795,201.596725 829.991699,209.421143 
	C829.655029,212.578125 829.037476,215.318390 829.069397,218.051086 
	C829.120605,222.429077 829.602234,226.802048 829.901855,231.177124 
	C826.156433,229.893707 822.410889,228.610260 818.321411,227.237030 
	C812.348511,223.422913 806.719666,219.698578 800.794800,215.879684 
	C798.603516,213.449905 796.708191,211.114716 794.669189,208.454514 
z"/>
<path fill="#F6F6F9" opacity="1.000000" stroke="none" 
	d="
M168.006317,534.842651 
	C165.744858,534.685669 163.333969,535.615234 163.359512,532.274414 
	C163.413803,525.167664 163.376099,518.060181 163.376099,510.695160 
	C169.726166,509.827240 175.417557,509.774902 179.708923,514.827637 
	C182.912949,518.600037 183.249207,523.121033 181.394730,527.482239 
	C179.033783,533.034424 174.236557,534.981750 168.006317,534.842651 
z"/>
<path fill="#FCFCFD" opacity="1.000000" stroke="none" 
	d="
M85.163307,529.881714 
	C80.055565,535.422546 74.197128,536.808960 68.912361,534.006165 
	C64.041191,531.422729 61.208580,525.464844 62.418602,520.091309 
	C63.569790,514.979004 66.535736,511.296722 71.744164,510.135223 
	C76.812744,509.004944 81.397324,510.297821 84.623146,514.623413 
	C88.158821,519.364441 88.258125,524.417969 85.163307,529.881714 
z"/>
<path fill="#FCFCFD" opacity="1.000000" stroke="none" 
	d="
M349.307434,513.706543 
	C354.614380,521.224060 353.501801,529.328064 346.879150,533.537231 
	C341.050446,537.241821 333.043671,535.306763 329.460815,529.327454 
	C326.356934,524.147461 327.420105,516.931274 331.881287,512.898132 
	C336.663269,508.574951 343.082733,508.771454 349.307434,513.706543 
z"/>
<path fill="#FCFCFD" opacity="1.000000" stroke="none" 
	d="
M788.339478,519.719055 
	C791.079773,512.469360 794.997559,509.592834 801.357605,509.852753 
	C806.513306,510.063507 811.308289,513.809814 812.773865,518.772156 
	C814.379272,524.207886 812.319458,530.183655 807.614319,533.268250 
	C803.344543,536.067383 798.719666,536.242615 794.401062,533.725220 
	C789.295105,530.748779 787.417053,525.948059 788.339478,519.719055 
z"/>
<path fill="#FCFCFD" opacity="1.000000" stroke="none" 
	d="
M35.251499,516.010254 
	C40.331207,528.087891 33.656990,535.439758 18.410896,534.647400 
	C18.410896,526.828857 18.410896,518.967712 18.410896,510.614929 
	C24.568941,509.857025 30.630079,509.734863 35.251499,516.010254 
z"/>
<path fill="#F6F6F9" opacity="1.000000" stroke="none" 
	d="
M389.068787,510.627747 
	C389.835449,513.288086 391.346405,517.148499 390.444885,517.833374 
	C387.848053,519.806213 384.277435,520.497314 380.348633,521.969421 
	C380.348633,516.981445 380.348633,513.578247 380.348633,509.477081 
	C383.270172,509.791656 385.990662,510.084595 389.068787,510.627747 
z"/>
<path fill="#F6F6F9" opacity="1.000000" stroke="none" 
	d="
M845.499023,520.770264 
	C843.789734,520.786133 842.508545,520.786133 840.923340,520.786133 
	C840.923340,516.953979 840.923340,513.577515 840.923340,510.225189 
	C847.665466,509.027496 851.155212,510.122528 851.816650,513.905701 
	C852.593811,518.350647 849.923279,520.214844 845.499023,520.770264 
z"/>
<path fill="#010B47" opacity="1.000000" stroke="none" 
	d="
M830.025513,231.376755 
	C829.602234,226.802048 829.120605,222.429077 829.069397,218.051086 
	C829.037476,215.318390 829.655029,212.578125 830.336060,209.386749 
	C831.268372,208.633240 831.978821,208.461273 832.403137,208.016357 
	C839.876038,200.180389 847.250488,192.249283 854.806885,184.495331 
	C856.554810,182.701736 858.898987,181.489166 860.968750,180.009216 
	C862.451599,183.526291 863.934448,187.043365 865.685303,190.789093 
	C866.945618,195.081772 867.937988,199.145782 868.996094,203.596741 
	C869.065369,212.780243 869.068909,221.576813 869.124390,230.822540 
	C869.063354,231.558548 868.888611,231.800735 868.464233,232.123459 
	C856.098328,234.659561 843.935059,234.851913 831.370544,232.029297 
	C830.640747,231.965469 830.374207,231.805481 830.025513,231.376755 
z"/>
<path fill="#FCFEFE" opacity="1.000000" stroke="none" 
	d="
M598.615784,254.054199 
	C606.596558,255.506653 610.641418,260.198059 609.733032,266.461609 
	C608.687744,273.669006 602.919983,276.878784 593.085205,275.532379 
	C593.085205,268.662872 593.085205,261.749207 593.085205,254.037277 
	C594.716003,254.037277 596.448730,254.037277 598.615784,254.054199 
z"/>
<path fill="#FCFEFE" opacity="1.000000" stroke="none" 
	d="
M550.718811,254.779877 
	C556.857239,259.398651 558.538208,264.558258 555.974487,269.992462 
	C553.768921,274.667389 548.624084,277.371490 543.727600,276.429352 
	C537.070068,275.148376 533.177429,268.954834 534.816467,262.251099 
	C536.534302,255.225525 542.193115,252.439453 550.718811,254.779877 
z"/>
<path fill="#FCFCFD" opacity="1.000000" stroke="none" 
	d="
M498.278442,262.845154 
	C495.762817,263.091339 493.657227,263.195740 491.275452,263.313843 
	C491.275452,259.883972 491.275452,256.838074 491.275452,252.128906 
	C494.908539,253.706802 498.093842,254.595810 500.508087,256.475311 
	C501.136719,256.964722 499.360291,260.543488 498.278442,262.845154 
z"/>
<path fill="#010F51" opacity="1.000000" stroke="none" 
	d="
M860.976318,179.759872 
	C858.898987,181.489166 856.554810,182.701736 854.806885,184.495331 
	C847.250488,192.249283 839.876038,200.180389 832.403137,208.016357 
	C831.978821,208.461273 831.268372,208.633240 830.346680,208.966644 
	C831.664795,201.596725 833.327148,194.192413 834.997192,186.396301 
	C839.792358,178.112381 844.579773,170.220245 849.664551,162.179474 
	C851.398743,163.694092 852.835754,165.357330 854.578003,167.148834 
	C856.730469,171.053375 858.577576,174.829651 860.697876,178.808853 
	C860.971069,179.011780 860.983948,179.510529 860.976318,179.759872 
z"/>
<path fill="#297CBE" opacity="1.000000" stroke="none" 
	d="
M814.025146,131.378021 
	C815.579956,130.763733 817.330200,130.058838 819.083191,130.052063 
	C839.182678,129.974213 859.282715,129.975845 879.382141,130.056992 
	C880.867859,130.062973 882.350342,130.844894 883.921753,131.670853 
	C878.238220,135.971207 872.467285,139.866791 865.912598,143.888733 
	C856.705200,144.010483 848.280640,143.937561 839.858887,144.059219 
	C838.188416,144.083344 836.528687,144.853851 834.864014,145.280151 
	C834.497864,145.183090 834.131775,145.086014 833.488770,144.935715 
	C828.054016,141.250626 822.896057,137.618790 817.393066,133.892380 
	C816.105957,133.069122 815.163940,132.340408 814.025146,131.378021 
z"/>
<path fill="#2A72B6" opacity="1.000000" stroke="none" 
	d="
M835.041870,145.548065 
	C836.528687,144.853851 838.188416,144.083344 839.858887,144.059219 
	C848.280640,143.937561 856.705200,144.010483 865.605957,144.031876 
	C860.815613,149.508286 855.548218,154.967926 850.137146,160.730896 
	C848.257019,159.319153 846.520569,157.604080 844.481201,155.733154 
	C841.192078,152.323502 838.205933,149.069733 835.041870,145.548065 
z"/>
</svg>