<svg version="1.1" id="Layer_1" xmlns="http://www.w3.org/2000/svg" xmlns:xlink="http://www.w3.org/1999/xlink" x="0px" y="0px"
	 width="100%" viewBox="0 0 601 241" enable-background="new 0 0 601 241" xml:space="preserve">
<path fill="#FFFFFF" opacity="1.000000" stroke="none" 
	d="
M371.000000,242.000000 
	C247.333344,242.000000 124.166695,242.000000 1.000033,242.000000 
	C1.000022,161.666687 1.000022,81.333382 1.000011,1.000055 
	C201.333298,1.000036 401.666595,1.000036 601.999878,1.000018 
	C601.999939,81.333275 601.999939,161.666550 602.000000,241.999908 
	C525.166687,242.000000 448.333344,242.000000 371.000000,242.000000 
M108.000092,115.500000 
	C108.000221,106.668404 108.258972,97.827263 107.933701,89.007668 
	C107.544662,78.459236 103.912407,69.398659 93.345528,65.182716 
	C81.867973,60.603439 69.673355,60.560265 57.584957,61.296871 
	C52.943264,61.579712 50.934372,65.090431 50.947594,69.956467 
	C51.044479,105.615982 50.880161,141.276550 51.077023,176.935242 
	C51.131824,186.861755 56.467419,193.955444 64.887543,199.036301 
	C71.585648,203.078033 79.137856,202.528610 86.266167,202.798538 
	C103.232994,203.440979 120.240723,203.001541 137.231934,203.002228 
	C147.981522,203.002655 149.740952,200.476685 149.917725,190.014923 
	C150.031647,183.272141 149.087723,176.516693 149.058472,169.765015 
	C149.015411,159.822906 140.861343,148.677826 130.524750,147.038391 
	C123.154465,145.869431 115.714378,145.140656 108.000107,144.177307 
	C108.000107,135.112396 108.000107,125.806198 108.000092,115.500000 
M354.000275,94.500000 
	C354.000183,85.677269 354.032593,76.854294 353.966736,68.032059 
	C353.956177,66.620598 353.987518,64.505791 353.162628,63.943184 
	C351.168793,62.583359 348.529510,61.012501 346.444000,61.348549 
	C345.037384,61.575207 343.196777,64.883484 343.151825,66.849854 
	C342.857727,79.719109 343.000427,92.598351 343.000427,106.540474 
	C341.857880,105.263008 341.358673,104.870193 341.070496,104.358521 
	C333.710693,91.291229 326.322876,78.239204 319.062622,65.116653 
	C316.957306,61.311420 313.500671,60.667130 309.906189,61.134293 
	C305.808899,61.666801 305.933685,65.000107 305.951324,68.316833 
	C306.052094,87.293381 306.027954,106.270813 305.971375,125.247726 
	C305.962646,128.173981 306.372467,130.522476 309.858978,131.007187 
	C313.687012,131.539398 316.628815,130.015930 316.763123,126.209282 
	C317.036957,118.446404 317.010986,110.621567 316.311615,102.894379 
	C315.869690,98.011513 315.934296,88.399719 317.948669,85.144379 
	C319.014465,86.751648 320.065643,88.173080 320.947601,89.692726 
	C328.228027,102.237434 335.701721,114.678818 342.601532,127.430328 
	C344.727173,131.358704 347.882385,131.867157 350.682190,130.675491 
	C352.424438,129.933960 353.765533,126.331886 353.854034,123.960175 
	C354.207642,114.484833 354.000153,104.988541 354.000275,94.500000 
M286.998505,91.453003 
	C284.336182,83.193283 281.419006,75.003922 279.111511,66.646233 
	C277.823486,61.981030 274.710938,61.066174 270.769928,61.025059 
	C266.684967,60.982437 263.353729,61.699451 261.899170,66.608971 
	C257.838440,80.315079 253.352921,93.895897 248.987946,107.511055 
	C247.223633,113.014252 245.190399,118.435448 243.572372,123.979424 
	C242.848602,126.459328 241.266357,129.770813 245.395340,130.925934 
	C250.691193,132.407501 255.040573,129.126648 256.057922,123.645599 
	C256.661041,120.396149 257.849487,117.255341 258.863312,113.760361 
	C262.519531,115.787079 265.632202,117.463005 268.697266,119.221886 
	C274.983398,122.829170 281.081512,126.822975 287.606110,129.922913 
	C289.794891,130.962830 293.124969,130.084518 295.755035,129.398849 
	C296.486298,129.208206 297.232117,126.381798 296.861694,125.080452 
	C293.737671,114.105225 290.355927,103.203346 286.998505,91.453003 
M403.999969,85.751854 
	C403.327484,95.065964 402.966583,104.417274 401.860626,113.679626 
	C401.239899,118.878075 395.051666,122.869431 387.694000,121.221039 
	C380.710632,119.656494 377.050110,114.679115 377.016571,107.344704 
	C376.957092,94.347229 376.984375,81.349243 377.008331,68.351540 
	C377.016327,64.024261 375.525208,61.356819 370.600525,61.973217 
	C369.187286,62.150105 367.733185,62.000324 366.442322,62.000324 
	C366.204437,62.821144 366.038971,63.126221 366.038513,63.431534 
	C366.016754,78.262054 365.921448,93.093231 366.030151,107.922905 
	C366.105774,118.238045 370.374054,125.929054 380.293335,130.105957 
	C393.742737,135.769348 412.991364,128.692993 413.815582,112.128693 
	C414.641846,95.524055 413.997162,78.846214 413.997162,62.431187 
	C412.311554,61.996796 410.902344,61.147682 409.839325,61.463581 
	C407.795898,62.070816 404.368927,63.213932 404.279449,64.351990 
	C403.746521,71.132866 404.003235,77.975815 403.999969,85.751854 
M434.041321,95.560181 
	C439.844269,99.357010 445.630341,103.179939 451.455017,106.943092 
	C456.902161,110.462326 453.964172,118.769089 448.546082,120.828735 
	C443.034149,122.924034 438.322266,120.733017 434.140656,117.875633 
	C430.632965,115.478767 428.034973,115.760574 425.817047,118.820366 
	C423.558380,121.936440 425.923950,124.287788 427.972626,126.453400 
	C435.437561,134.344452 455.045563,134.844421 462.117645,121.461662 
	C467.554108,111.174126 465.402924,101.562714 455.676636,95.347778 
	C450.800873,92.232254 445.153137,90.196274 440.674591,86.639503 
	C438.276855,84.735275 436.133148,80.432907 436.531372,77.584145 
	C437.097839,73.531845 440.773926,70.359848 445.555328,71.126480 
	C448.446686,71.590073 451.304993,73.018860 453.877045,74.527382 
	C457.255646,76.508972 459.985138,76.610184 462.297089,73.163986 
	C464.266479,70.228416 462.869476,67.008125 459.449036,64.723038 
	C454.229034,61.235710 448.568207,60.485638 442.563599,61.009441 
	C436.662323,61.524231 428.368378,66.793556 426.819244,73.033295 
	C424.605743,81.949013 426.863403,89.049820 434.041321,95.560181 
M212.536346,130.999481 
	C220.193588,130.999146 227.864853,131.248810 235.498108,130.820801 
	C237.381592,130.715195 240.118469,128.720917 240.669174,127.015564 
	C241.168045,125.470726 239.659668,121.890404 238.264496,121.399033 
	C234.975449,120.240631 231.227264,120.097267 227.663101,120.086075 
	C223.746552,120.073776 219.832626,120.865257 215.909424,120.956337 
	C209.423416,121.106903 209.006058,120.597122 209.002045,114.293922 
	C208.994003,101.642822 208.991287,88.991714 209.011780,76.340652 
	C209.013916,75.025703 209.414673,73.679504 209.237534,72.402306 
	C208.753128,68.909767 208.797424,65.009102 207.115585,62.167908 
	C206.349686,60.874062 202.007751,61.697063 198.697037,61.530098 
	C198.697037,84.865013 198.697037,107.290390 198.697037,130.999512 
	C203.471329,130.999512 207.511826,130.999512 212.536346,130.999481 
M229.939865,173.372375 
	C228.218109,176.254990 226.496353,179.137589 224.667023,182.200317 
	C223.958344,181.371140 223.438004,180.925385 223.119125,180.364975 
	C217.462891,170.424667 211.931442,160.410980 206.101593,150.574005 
	C205.052994,148.804672 202.796600,147.751144 199.998856,145.471771 
	C199.998856,156.168823 199.998383,165.111038 199.998993,174.053268 
	C199.999573,182.377747 200.099655,190.703918 199.954773,199.025848 
	C199.895767,202.414902 201.471481,202.288681 204.285492,201.572937 
	C204.285492,186.771820 204.285492,172.175858 204.285492,156.651764 
	C210.544586,167.457764 216.263000,177.340866 221.993973,187.216675 
	C223.319885,189.501511 225.007217,189.754562 226.714203,187.727936 
	C227.949753,186.261047 229.051407,184.644623 229.988861,182.969559 
	C234.749588,174.463074 239.437241,165.915710 244.150482,157.382645 
	C244.448578,157.468018 244.746689,157.553391 245.044800,157.638748 
	C245.044800,172.329803 245.044800,187.020859 245.044800,201.743073 
	C246.540207,201.743073 247.606812,201.743073 248.998901,201.743073 
	C248.998901,184.048965 249.027100,166.594177 248.934326,149.140030 
	C248.928253,147.998474 247.995544,146.861816 247.493866,145.722870 
	C246.942673,145.669861 246.391479,145.616852 245.840302,145.563828 
	C240.561554,154.581970 235.282822,163.600113 229.939865,173.372375 
M508.298798,185.869202 
	C509.599243,190.972015 510.863373,195.930618 515.618408,199.339218 
	C521.897766,203.840576 528.508850,204.560013 535.888733,203.078888 
	C543.044922,201.642639 548.934570,196.967056 549.864441,189.595673 
	C550.828186,181.956451 550.846191,174.177841 550.955139,166.455627 
	C551.117981,154.905853 545.970154,148.313797 534.896973,145.352005 
	C523.147827,142.209412 511.304169,148.843460 509.173248,160.873459 
	C507.779663,168.740814 508.326630,176.951889 508.298798,185.869202 
M353.998199,197.287994 
	C353.998199,180.656555 353.998199,164.025131 353.998199,147.413361 
	C349.484375,147.178558 348.763855,148.364929 348.974396,154.375122 
	C349.368103,165.613419 349.678131,176.854767 349.985535,188.095871 
	C350.026672,189.600433 349.850311,191.110931 349.748077,193.149460 
	C337.501465,177.228378 328.108154,160.189087 314.496857,144.562241 
	C313.733643,147.246002 313.055115,148.531158 313.049377,149.819321 
	C312.977173,165.972885 312.951721,182.127350 313.102570,198.279831 
	C313.114136,199.516800 314.547272,200.740509 315.319611,201.970413 
	C316.214813,200.806458 317.806885,199.685837 317.882446,198.470917 
	C318.181580,193.660233 318.162018,188.813934 317.973297,183.992081 
	C317.603149,174.535934 317.040802,165.087311 316.558044,155.635574 
	C327.109222,169.464874 336.546387,183.450867 346.072479,197.376038 
	C347.842010,199.962738 349.536102,203.078125 353.848419,201.607391 
	C353.896423,200.523972 353.947296,199.375885 353.998199,197.287994 
M446.001831,160.547821 
	C446.001221,172.357101 445.937439,184.166870 446.026794,195.975479 
	C446.071014,201.821976 446.940552,202.486603 450.997955,201.506348 
	C450.997955,196.213013 451.034424,191.154877 450.985382,186.097549 
	C450.951447,182.597504 452.019928,180.646652 456.103516,180.918930 
	C461.071259,181.250153 466.080200,181.092972 471.067261,180.975388 
	C478.320435,180.804367 484.407288,176.099442 485.772797,169.310425 
	C486.320221,166.588898 485.999512,163.682632 485.987427,160.860825 
	C485.962738,155.091995 482.175751,148.939880 476.554840,148.186020 
	C466.905670,146.891922 457.097382,146.784378 446.970032,146.154724 
	C446.634277,150.805145 446.318024,155.185272 446.001831,160.547821 
M296.015167,188.297150 
	C295.473877,193.893845 291.424164,197.588989 283.346771,198.967072 
	C277.742767,199.923157 269.620514,196.974472 268.119263,192.626755 
	C266.210785,187.099762 264.730133,181.224838 264.350433,175.415909 
	C263.741302,166.097092 264.187164,156.709320 264.187164,147.236969 
	C263.146240,147.236969 261.745300,147.236969 259.708405,147.236969 
	C260.161926,150.558853 260.955994,153.576859 260.913147,156.582916 
	C260.781555,165.812912 260.034851,175.039932 260.084656,184.265106 
	C260.134369,193.464020 265.268250,200.656311 273.133545,202.505798 
	C276.918762,203.395889 281.035126,202.978790 285.001434,202.976257 
	C292.759369,202.971298 300.400818,197.505661 300.794464,189.886566 
	C301.524872,175.748672 301.003723,161.546097 301.003723,147.188782 
	C300.144501,147.188782 298.744476,147.188782 297.001587,147.188782 
	C297.001587,158.986908 297.038422,170.604782 296.961884,182.221909 
	C296.950409,183.963806 296.408051,185.702194 296.015167,188.297150 
M408.073883,197.968292 
	C407.441437,198.090790 406.789459,198.151749 406.179443,198.345032 
	C397.233826,201.179337 387.738953,196.451645 386.115295,187.403091 
	C384.907623,180.673004 385.022522,173.651642 385.072052,166.763779 
	C385.131805,158.448425 387.039062,152.735107 397.340698,150.265854 
	C405.386810,148.337234 412.046478,151.109756 416.041901,158.538193 
	C416.952911,160.231964 417.751221,161.986343 418.722412,163.958694 
	C423.088226,158.645889 422.460724,155.245300 419.370209,153.051376 
	C415.241730,150.120621 410.771271,147.367325 406.044006,145.647263 
	C396.040680,142.007462 382.691467,149.243683 381.192505,159.584991 
	C379.901001,168.495010 379.977783,177.665634 380.211456,186.701340 
	C380.295471,189.951279 381.840942,193.829056 384.021210,196.246033 
	C394.459534,207.817459 413.284302,205.468521 421.592377,191.772629 
	C422.265839,190.662399 421.675446,188.785507 421.672333,187.264877 
	C420.276367,187.845856 418.601868,188.115295 417.537292,189.066986 
	C414.500183,191.782059 411.711151,194.774689 408.073883,197.968292 
M498.998352,149.743408 
	C499.269348,145.429016 496.362305,147.359268 494.282532,147.127380 
	C494.282532,165.570038 494.282532,183.729614 494.282532,202.059738 
	C495.980652,201.966949 497.386841,201.890121 498.999115,201.802032 
	C498.999115,184.516968 498.999115,167.608292 498.998352,149.743408 
M365.941620,170.834610 
	C365.941620,181.100296 365.941620,191.365982 365.941620,201.604675 
	C369.862366,201.816635 371.670532,198.210037 371.023804,193.644516 
	C370.360626,188.962891 370.127991,184.194763 370.061005,179.459473 
	C369.915405,169.165771 370.039642,158.868301 369.899658,148.574463 
	C369.888306,147.739471 368.698853,146.920517 368.056824,146.094101 
	C367.377563,146.887711 366.144775,147.655167 366.105804,148.479065 
	C365.766693,155.653488 365.641510,162.838013 365.941620,170.834610 
M431.000031,188.490997 
	C431.000031,193.141113 431.000031,197.791245 431.000031,202.664337 
	C432.516937,202.200638 433.775482,201.815903 435.000244,201.441498 
	C435.000244,184.269165 435.063416,167.468307 434.903168,150.669601 
	C434.887024,148.979141 433.518707,147.301559 432.777924,145.618011 
	C432.185303,145.814117 431.592682,146.010223 431.000061,146.206329 
	C431.000061,159.968842 431.000061,173.731354 431.000031,188.490997 
M385.043823,52.195892 
	C387.584717,56.238998 390.874359,57.476238 393.560059,54.671192 
	C396.411438,51.693153 398.637238,48.034180 400.671234,44.411488 
	C401.200806,43.468353 400.450623,40.870171 399.490662,40.232235 
	C397.764954,39.085392 394.082031,37.770428 393.578857,38.403412 
	C390.362701,42.449181 387.790283,47.006695 385.043823,52.195892 
z"/>
<path fill="#851627" opacity="1.000000" stroke="none" 
	d="
M108.000099,116.000000 
	C108.000107,125.806198 108.000107,135.112396 108.000107,144.177307 
	C115.714378,145.140656 123.154465,145.869431 130.524750,147.038391 
	C140.861343,148.677826 149.015411,159.822906 149.058472,169.765015 
	C149.087723,176.516693 150.031647,183.272141 149.917725,190.014923 
	C149.740952,200.476685 147.981522,203.002655 137.231934,203.002228 
	C120.240723,203.001541 103.232994,203.440979 86.266167,202.798538 
	C79.137856,202.528610 71.585648,203.078033 64.887543,199.036301 
	C56.467419,193.955444 51.131824,186.861755 51.077023,176.935242 
	C50.880161,141.276550 51.044479,105.615982 50.947594,69.956467 
	C50.934372,65.090431 52.943264,61.579712 57.584957,61.296871 
	C69.673355,60.560265 81.867973,60.603439 93.345528,65.182716 
	C103.912407,69.398659 107.544662,78.459236 107.933701,89.007668 
	C108.258972,97.827263 108.000221,106.668404 108.000099,116.000000 
M92.987167,122.499969 
	C92.984108,112.677689 93.072769,102.854294 92.952911,93.033440 
	C92.826187,82.650154 88.331642,77.123642 79.141594,76.150368 
	C75.684166,75.784195 72.107933,75.744965 68.685417,76.242065 
	C67.349144,76.436157 65.264206,78.504547 65.251678,79.736862 
	C65.040108,100.544601 65.050545,121.355576 65.230591,142.163940 
	C65.241417,143.415009 67.050499,145.689651 68.087646,145.727844 
	C76.181190,146.025955 84.290619,145.892761 92.105217,145.892761 
	C92.537857,145.036835 92.806969,144.750931 92.810120,144.462128 
	C92.886345,137.474930 92.934181,130.487411 92.987167,122.499969 
M107.027420,177.389984 
	C107.313438,180.785080 107.599449,184.180176 107.910759,187.875504 
	C113.085716,187.875504 117.551277,187.881531 122.016823,187.874390 
	C135.884903,187.852219 136.691833,186.906387 134.762054,172.967575 
	C133.661407,165.017715 130.449646,161.335327 122.466766,160.320541 
	C117.621925,159.704651 112.634941,160.207016 107.025627,160.207016 
	C107.025627,165.859131 107.025627,171.139587 107.027420,177.389984 
M79.106834,187.851654 
	C82.427193,187.888107 85.768829,188.153152 89.057327,187.847198 
	C90.352379,187.726715 92.570656,186.364624 92.597870,185.511429 
	C92.865303,177.127090 92.759277,168.730820 92.759277,160.003250 
	C84.328606,160.003250 76.536110,159.911591 68.750740,160.105789 
	C67.630981,160.133698 65.955673,161.301178 65.535538,162.343567 
	C61.344986,172.740753 67.622757,185.032715 79.106834,187.851654 
z"/>
<path fill="#BA001A" opacity="1.000000" stroke="none" 
	d="
M354.000275,95.000000 
	C354.000153,104.988541 354.207642,114.484833 353.854034,123.960175 
	C353.765533,126.331886 352.424438,129.933960 350.682190,130.675491 
	C347.882385,131.867157 344.727173,131.358704 342.601532,127.430328 
	C335.701721,114.678818 328.228027,102.237434 320.947601,89.692726 
	C320.065643,88.173080 319.014465,86.751648 317.948669,85.144379 
	C315.934296,88.399719 315.869690,98.011513 316.311615,102.894379 
	C317.010986,110.621567 317.036957,118.446404 316.763123,126.209282 
	C316.628815,130.015930 313.687012,131.539398 309.858978,131.007187 
	C306.372467,130.522476 305.962646,128.173981 305.971375,125.247726 
	C306.027954,106.270813 306.052094,87.293381 305.951324,68.316833 
	C305.933685,65.000107 305.808899,61.666801 309.906189,61.134293 
	C313.500671,60.667130 316.957306,61.311420 319.062622,65.116653 
	C326.322876,78.239204 333.710693,91.291229 341.070496,104.358521 
	C341.358673,104.870193 341.857880,105.263008 343.000427,106.540474 
	C343.000427,92.598351 342.857727,79.719109 343.151825,66.849854 
	C343.196777,64.883484 345.037384,61.575207 346.444000,61.348549 
	C348.529510,61.012501 351.168793,62.583359 353.162628,63.943184 
	C353.987518,64.505791 353.956177,66.620598 353.966736,68.032059 
	C354.032593,76.854294 354.000183,85.677269 354.000275,95.000000 
z"/>
<path fill="#BA001A" opacity="1.000000" stroke="none" 
	d="
M287.025085,91.866211 
	C290.355927,103.203346 293.737671,114.105225 296.861694,125.080452 
	C297.232117,126.381798 296.486298,129.208206 295.755035,129.398849 
	C293.124969,130.084518 289.794891,130.962830 287.606110,129.922913 
	C281.081512,126.822975 274.983398,122.829170 268.697266,119.221886 
	C265.632202,117.463005 262.519531,115.787079 258.863312,113.760361 
	C257.849487,117.255341 256.661041,120.396149 256.057922,123.645599 
	C255.040573,129.126648 250.691193,132.407501 245.395340,130.925934 
	C241.266357,129.770813 242.848602,126.459328 243.572372,123.979424 
	C245.190399,118.435448 247.223633,113.014252 248.987946,107.511055 
	C253.352921,93.895897 257.838440,80.315079 261.899170,66.608971 
	C263.353729,61.699451 266.684967,60.982437 270.769928,61.025059 
	C274.710938,61.066174 277.823486,61.981030 279.111511,66.646233 
	C281.419006,75.003922 284.336182,83.193283 287.025085,91.866211 
M278.015991,112.519440 
	C279.231262,112.994133 280.446533,113.468819 282.126007,114.124825 
	C278.286530,100.998840 274.664734,88.616928 270.713531,75.108940 
	C267.422333,85.280380 264.555420,94.140686 261.639954,103.150932 
	C267.090424,106.228134 272.250824,109.141563 278.015991,112.519440 
z"/>
<path fill="#BA001A" opacity="1.000000" stroke="none" 
	d="
M403.997406,85.274887 
	C404.003235,77.975815 403.746521,71.132866 404.279449,64.351990 
	C404.368927,63.213932 407.795898,62.070816 409.839325,61.463581 
	C410.902344,61.147682 412.311554,61.996796 413.997162,62.431187 
	C413.997162,78.846214 414.641846,95.524055 413.815582,112.128693 
	C412.991364,128.692993 393.742737,135.769348 380.293335,130.105957 
	C370.374054,125.929054 366.105774,118.238045 366.030151,107.922905 
	C365.921448,93.093231 366.016754,78.262054 366.038513,63.431534 
	C366.038971,63.126221 366.204437,62.821144 366.442322,62.000324 
	C367.733185,62.000324 369.187286,62.150105 370.600525,61.973217 
	C375.525208,61.356819 377.016327,64.024261 377.008331,68.351540 
	C376.984375,81.349243 376.957092,94.347229 377.016571,107.344704 
	C377.050110,114.679115 380.710632,119.656494 387.694000,121.221039 
	C395.051666,122.869431 401.239899,118.878075 401.860626,113.679626 
	C402.966583,104.417274 403.327484,95.065964 403.997406,85.274887 
z"/>
<path fill="#B90019" opacity="1.000000" stroke="none" 
	d="
M433.790405,95.292847 
	C426.863403,89.049820 424.605743,81.949013 426.819244,73.033295 
	C428.368378,66.793556 436.662323,61.524231 442.563599,61.009441 
	C448.568207,60.485638 454.229034,61.235710 459.449036,64.723038 
	C462.869476,67.008125 464.266479,70.228416 462.297089,73.163986 
	C459.985138,76.610184 457.255646,76.508972 453.877045,74.527382 
	C451.304993,73.018860 448.446686,71.590073 445.555328,71.126480 
	C440.773926,70.359848 437.097839,73.531845 436.531372,77.584145 
	C436.133148,80.432907 438.276855,84.735275 440.674591,86.639503 
	C445.153137,90.196274 450.800873,92.232254 455.676636,95.347778 
	C465.402924,101.562714 467.554108,111.174126 462.117645,121.461662 
	C455.045563,134.844421 435.437561,134.344452 427.972626,126.453400 
	C425.923950,124.287788 423.558380,121.936440 425.817047,118.820366 
	C428.034973,115.760574 430.632965,115.478767 434.140656,117.875633 
	C438.322266,120.733017 443.034149,122.924034 448.546082,120.828735 
	C453.964172,118.769089 456.902161,110.462326 451.455017,106.943092 
	C445.630341,103.179939 439.844269,99.357010 433.790405,95.292847 
z"/>
<path fill="#B90019" opacity="1.000000" stroke="none" 
	d="
M212.044342,130.999496 
	C207.511826,130.999512 203.471329,130.999512 198.697037,130.999512 
	C198.697037,107.290390 198.697037,84.865013 198.697037,61.530098 
	C202.007751,61.697063 206.349686,60.874062 207.115585,62.167908 
	C208.797424,65.009102 208.753128,68.909767 209.237534,72.402306 
	C209.414673,73.679504 209.013916,75.025703 209.011780,76.340652 
	C208.991287,88.991714 208.994003,101.642822 209.002045,114.293922 
	C209.006058,120.597122 209.423416,121.106903 215.909424,120.956337 
	C219.832626,120.865257 223.746552,120.073776 227.663101,120.086075 
	C231.227264,120.097267 234.975449,120.240631 238.264496,121.399033 
	C239.659668,121.890404 241.168045,125.470726 240.669174,127.015564 
	C240.118469,128.720917 237.381592,130.715195 235.498108,130.820801 
	C227.864853,131.248810 220.193588,130.999146 212.044342,130.999496 
z"/>
<path fill="#841526" opacity="1.000000" stroke="none" 
	d="
M229.971985,172.995316 
	C235.282822,163.600113 240.561554,154.581970 245.840302,145.563828 
	C246.391479,145.616852 246.942673,145.669861 247.493866,145.722870 
	C247.995544,146.861816 248.928253,147.998474 248.934326,149.140030 
	C249.027100,166.594177 248.998901,184.048965 248.998901,201.743073 
	C247.606812,201.743073 246.540207,201.743073 245.044800,201.743073 
	C245.044800,187.020859 245.044800,172.329803 245.044800,157.638748 
	C244.746689,157.553391 244.448578,157.468018 244.150482,157.382645 
	C239.437241,165.915710 234.749588,174.463074 229.988861,182.969559 
	C229.051407,184.644623 227.949753,186.261047 226.714203,187.727936 
	C225.007217,189.754562 223.319885,189.501511 221.993973,187.216675 
	C216.263000,177.340866 210.544586,167.457764 204.285492,156.651764 
	C204.285492,172.175858 204.285492,186.771820 204.285492,201.572937 
	C201.471481,202.288681 199.895767,202.414902 199.954773,199.025848 
	C200.099655,190.703918 199.999573,182.377747 199.998993,174.053268 
	C199.998383,165.111038 199.998856,156.168823 199.998856,145.471771 
	C202.796600,147.751144 205.052994,148.804672 206.101593,150.574005 
	C211.931442,160.410980 217.462891,170.424667 223.119125,180.364975 
	C223.438004,180.925385 223.958344,181.371140 224.667023,182.200317 
	C226.496353,179.137589 228.218109,176.254990 229.971985,172.995316 
z"/>
<path fill="#841525" opacity="1.000000" stroke="none" 
	d="
M508.151611,185.439117 
	C508.326630,176.951889 507.779663,168.740814 509.173248,160.873459 
	C511.304169,148.843460 523.147827,142.209412 534.896973,145.352005 
	C545.970154,148.313797 551.117981,154.905853 550.955139,166.455627 
	C550.846191,174.177841 550.828186,181.956451 549.864441,189.595673 
	C548.934570,196.967056 543.044922,201.642639 535.888733,203.078888 
	C528.508850,204.560013 521.897766,203.840576 515.618408,199.339218 
	C510.863373,195.930618 509.599243,190.972015 508.151611,185.439117 
M516.052063,192.250427 
	C519.231750,198.432556 524.903809,199.761139 530.919067,198.863312 
	C536.952637,197.962738 544.096680,196.701660 544.796265,189.079224 
	C545.656433,179.706726 545.427795,170.168808 544.842102,160.753906 
	C544.496277,155.195496 539.384705,150.597351 534.397400,150.050262 
	C527.138428,149.253937 517.400269,151.757584 515.365173,157.050415 
	C511.996246,165.812332 512.788940,174.819366 513.452698,183.792786 
	C513.645447,186.398285 515.102661,188.910263 516.052063,192.250427 
z"/>
<path fill="#841526" opacity="1.000000" stroke="none" 
	d="
M353.998169,197.757889 
	C353.947296,199.375885 353.896423,200.523972 353.848419,201.607391 
	C349.536102,203.078125 347.842010,199.962738 346.072479,197.376038 
	C336.546387,183.450867 327.109222,169.464874 316.558044,155.635574 
	C317.040802,165.087311 317.603149,174.535934 317.973297,183.992081 
	C318.162018,188.813934 318.181580,193.660233 317.882446,198.470917 
	C317.806885,199.685837 316.214813,200.806458 315.319611,201.970398 
	C314.547272,200.740509 313.114136,199.516800 313.102570,198.279831 
	C312.951721,182.127350 312.977173,165.972885 313.049377,149.819321 
	C313.055115,148.531158 313.733643,147.246002 314.496857,144.562241 
	C328.108154,160.189087 337.501465,177.228378 349.748077,193.149460 
	C349.850311,191.110931 350.026672,189.600433 349.985535,188.095871 
	C349.678131,176.854767 349.368103,165.613419 348.974396,154.375122 
	C348.763855,148.364929 349.484375,147.178558 353.998199,147.413361 
	C353.998199,164.025131 353.998199,180.656555 353.998169,197.757889 
z"/>
<path fill="#841526" opacity="1.000000" stroke="none" 
	d="
M446.001801,160.056610 
	C446.318024,155.185272 446.634277,150.805145 446.970032,146.154724 
	C457.097382,146.784378 466.905670,146.891922 476.554840,148.186020 
	C482.175751,148.939880 485.962738,155.091995 485.987427,160.860825 
	C485.999512,163.682632 486.320221,166.588898 485.772797,169.310425 
	C484.407288,176.099442 478.320435,180.804367 471.067261,180.975388 
	C466.080200,181.092972 461.071259,181.250153 456.103516,180.918930 
	C452.019928,180.646652 450.951447,182.597504 450.985382,186.097549 
	C451.034424,191.154877 450.997955,196.213013 450.997955,201.506348 
	C446.940552,202.486603 446.071014,201.821976 446.026794,195.975479 
	C445.937439,184.166870 446.001221,172.357101 446.001801,160.056610 
M480.140106,158.707275 
	C479.336884,154.581009 476.108093,152.637726 472.630676,152.154495 
	C465.899200,151.219070 459.058258,151.071701 452.178680,150.591858 
	C451.654602,159.595215 451.189209,167.590546 450.641510,176.999603 
	C456.559418,176.999603 461.792175,177.454025 466.897339,176.842804 
	C470.410461,176.422195 474.080811,175.056274 477.087891,173.168335 
	C482.307892,169.891083 481.146332,164.362839 480.140106,158.707275 
z"/>
<path fill="#841526" opacity="1.000000" stroke="none" 
	d="
M296.063232,187.869690 
	C296.408051,185.702194 296.950409,183.963806 296.961884,182.221909 
	C297.038422,170.604782 297.001587,158.986908 297.001587,147.188782 
	C298.744476,147.188782 300.144501,147.188782 301.003723,147.188782 
	C301.003723,161.546097 301.524872,175.748672 300.794464,189.886566 
	C300.400818,197.505661 292.759369,202.971298 285.001434,202.976257 
	C281.035126,202.978790 276.918762,203.395889 273.133545,202.505798 
	C265.268250,200.656311 260.134369,193.464020 260.084656,184.265106 
	C260.034851,175.039932 260.781555,165.812912 260.913147,156.582916 
	C260.955994,153.576859 260.161926,150.558853 259.708405,147.236969 
	C261.745300,147.236969 263.146240,147.236969 264.187164,147.236969 
	C264.187164,156.709320 263.741302,166.097092 264.350433,175.415909 
	C264.730133,181.224838 266.210785,187.099762 268.119263,192.626755 
	C269.620514,196.974472 277.742767,199.923157 283.346771,198.967072 
	C291.424164,197.588989 295.473877,193.893845 296.063232,187.869690 
z"/>
<path fill="#841526" opacity="1.000000" stroke="none" 
	d="
M408.449219,197.813202 
	C411.711151,194.774689 414.500183,191.782059 417.537292,189.066986 
	C418.601868,188.115295 420.276367,187.845856 421.672333,187.264862 
	C421.675446,188.785507 422.265839,190.662399 421.592377,191.772629 
	C413.284302,205.468521 394.459534,207.817459 384.021210,196.246033 
	C381.840942,193.829056 380.295471,189.951279 380.211456,186.701340 
	C379.977783,177.665634 379.901001,168.495010 381.192505,159.584991 
	C382.691467,149.243683 396.040680,142.007462 406.044006,145.647263 
	C410.771271,147.367325 415.241730,150.120621 419.370209,153.051376 
	C422.460724,155.245300 423.088226,158.645889 418.722412,163.958694 
	C417.751221,161.986343 416.952911,160.231964 416.041901,158.538193 
	C412.046478,151.109756 405.386810,148.337234 397.340698,150.265854 
	C387.039062,152.735107 385.131805,158.448425 385.072052,166.763779 
	C385.022522,173.651642 384.907623,180.673004 386.115295,187.403091 
	C387.738953,196.451645 397.233826,201.179337 406.179443,198.345032 
	C406.789459,198.151749 407.441437,198.090790 408.449219,197.813202 
z"/>
<path fill="#841526" opacity="1.000000" stroke="none" 
	d="
M498.998718,150.221512 
	C498.999115,167.608292 498.999115,184.516968 498.999115,201.802032 
	C497.386841,201.890121 495.980652,201.966949 494.282532,202.059738 
	C494.282532,183.729614 494.282532,165.570038 494.282532,147.127380 
	C496.362305,147.359268 499.269348,145.429016 498.998718,150.221512 
z"/>
<path fill="#841526" opacity="1.000000" stroke="none" 
	d="
M365.697205,170.427078 
	C365.641510,162.838013 365.766693,155.653488 366.105804,148.479065 
	C366.144775,147.655167 367.377563,146.887711 368.056824,146.094101 
	C368.698853,146.920517 369.888306,147.739471 369.899658,148.574463 
	C370.039642,158.868301 369.915405,169.165771 370.061005,179.459473 
	C370.127991,184.194763 370.360626,188.962891 371.023804,193.644516 
	C371.670532,198.210037 369.862366,201.816635 365.941620,201.604675 
	C365.941620,191.365982 365.941620,181.100296 365.697205,170.427078 
z"/>
<path fill="#851627" opacity="1.000000" stroke="none" 
	d="
M431.000061,187.992432 
	C431.000061,173.731354 431.000061,159.968842 431.000061,146.206329 
	C431.592682,146.010223 432.185303,145.814117 432.777924,145.618011 
	C433.518707,147.301559 434.887024,148.979141 434.903168,150.669601 
	C435.063416,167.468307 435.000244,184.269165 435.000244,201.441498 
	C433.775482,201.815903 432.516937,202.200638 431.000031,202.664337 
	C431.000031,197.791245 431.000031,193.141113 431.000061,187.992432 
z"/>
<path fill="#B80019" opacity="1.000000" stroke="none" 
	d="
M385.024963,51.795868 
	C387.790283,47.006695 390.362701,42.449181 393.578857,38.403412 
	C394.082031,37.770428 397.764954,39.085392 399.490662,40.232235 
	C400.450623,40.870171 401.200806,43.468353 400.671234,44.411488 
	C398.637238,48.034180 396.411438,51.693153 393.560059,54.671192 
	C390.874359,57.476238 387.584717,56.238998 385.024963,51.795868 
z"/>
<path fill="#DF0423" opacity="1.000000" stroke="none" 
	d="
M92.987152,122.999962 
	C92.934181,130.487411 92.886345,137.474930 92.810120,144.462128 
	C92.806969,144.750931 92.537857,145.036835 92.105217,145.892761 
	C84.290619,145.892761 76.181190,146.025955 68.087646,145.727844 
	C67.050499,145.689651 65.241417,143.415009 65.230591,142.163940 
	C65.050545,121.355576 65.040108,100.544601 65.251678,79.736862 
	C65.264206,78.504547 67.349144,76.436157 68.685417,76.242065 
	C72.107933,75.744965 75.684166,75.784195 79.141594,76.150368 
	C88.331642,77.123642 92.826187,82.650154 92.952911,93.033440 
	C93.072769,102.854294 92.984108,112.677689 92.987152,122.999962 
z"/>
<path fill="#F7B842" opacity="1.000000" stroke="none" 
	d="
M107.026520,176.905014 
	C107.025627,171.139587 107.025627,165.859131 107.025627,160.207016 
	C112.634941,160.207016 117.621925,159.704651 122.466766,160.320541 
	C130.449646,161.335327 133.661407,165.017715 134.762054,172.967575 
	C136.691833,186.906387 135.884903,187.852219 122.016823,187.874390 
	C117.551277,187.881531 113.085716,187.875504 107.910759,187.875504 
	C107.599449,184.180176 107.313438,180.785080 107.026520,176.905014 
z"/>
<path fill="#E74D20" opacity="1.000000" stroke="none" 
	d="
M78.690491,187.734650 
	C67.622757,185.032715 61.344986,172.740753 65.535538,162.343567 
	C65.955673,161.301178 67.630981,160.133698 68.750740,160.105789 
	C76.536110,159.911591 84.328606,160.003250 92.759277,160.003250 
	C92.759277,168.730820 92.865303,177.127090 92.597870,185.511429 
	C92.570656,186.364624 90.352379,187.726715 89.057327,187.847198 
	C85.768829,188.153152 82.427193,187.888107 78.690491,187.734650 
z"/>
<path fill="#FFFFFF" opacity="1.000000" stroke="none" 
	d="
M277.713593,112.287216 
	C272.250824,109.141563 267.090424,106.228134 261.639954,103.150932 
	C264.555420,94.140686 267.422333,85.280380 270.713531,75.108940 
	C274.664734,88.616928 278.286530,100.998840 282.126007,114.124825 
	C280.446533,113.468819 279.231262,112.994133 277.713593,112.287216 
z"/>
<path fill="#FFFFFF" opacity="1.000000" stroke="none" 
	d="
M516.016113,191.857773 
	C515.102661,188.910263 513.645447,186.398285 513.452698,183.792786 
	C512.788940,174.819366 511.996246,165.812332 515.365173,157.050415 
	C517.400269,151.757584 527.138428,149.253937 534.397400,150.050262 
	C539.384705,150.597351 544.496277,155.195496 544.842102,160.753906 
	C545.427795,170.168808 545.656433,179.706726 544.796265,189.079224 
	C544.096680,196.701660 536.952637,197.962738 530.919067,198.863312 
	C524.903809,199.761139 519.231750,198.432556 516.016113,191.857773 
z"/>
<path fill="#FFFFFF" opacity="1.000000" stroke="none" 
	d="
M480.447021,158.998215 
	C481.146332,164.362839 482.307892,169.891083 477.087891,173.168335 
	C474.080811,175.056274 470.410461,176.422195 466.897339,176.842804 
	C461.792175,177.454025 456.559418,176.999603 450.641510,176.999603 
	C451.189209,167.590546 451.654602,159.595215 452.178680,150.591858 
	C459.058258,151.071701 465.899200,151.219070 472.630676,152.154495 
	C476.108093,152.637726 479.336884,154.581009 480.447021,158.998215 
z"/>
</svg>