<svg xmlns="http://www.w3.org/2000/svg" viewBox="0 0 156.62 28.05"><defs><style>.cls-1{fill:#333;}</style></defs><title>Recurso 4</title><g id="Capa_2" data-name="Capa 2"><g id="Capa_1-2" data-name="Capa 1"><rect class="cls-1" y="22.14" width="156.62" height="5.91"></rect><path class="cls-1" d="M14.66.71H12.83a.58.58,0,0,0-.57.57V13L2.78.93A.58.58,0,0,0,2.33.71H.58A.58.58,0,0,0,0,1.28V18a.58.58,0,0,0,.58.58H2.41A.57.57,0,0,0,3,18V6l9.73,12.37a.56.56,0,0,0,.45.22h1.5a.58.58,0,0,0,.58-.58V1.28a.58.58,0,0,0-.58-.57"></path><path class="cls-1" d="M26.46,16a4.07,4.07,0,0,1-4-4.25,4,4,0,0,1,3.93-4.21,4.1,4.1,0,0,1,4,4.29A4,4,0,0,1,26.46,16m0-11.22a6.94,6.94,0,0,0-7,7.05,6.88,6.88,0,0,0,7,7,7,7,0,0,0,7-7,6.9,6.9,0,0,0-7-7"></path><path class="cls-1" d="M44.78,4.86a5.46,5.46,0,0,0-4.47,2V5.66a.58.58,0,0,0-.57-.58H37.9a.58.58,0,0,0-.58.58V18a.58.58,0,0,0,.58.58h1.84a.58.58,0,0,0,.57-.58V13.06C40.31,9.93,42,8,44.61,8h.14a.57.57,0,0,0,.58-.57v-2a.57.57,0,0,0-.55-.58"></path><path class="cls-1" d="M57.14,5.08H53.81V1.92a.58.58,0,0,0-.58-.57H51.4a.58.58,0,0,0-.58.57V5.08H49.68a.57.57,0,0,0-.57.58V7.27a.56.56,0,0,0,.57.57h1.14V14.7a3.7,3.7,0,0,0,4,4.07,5.43,5.43,0,0,0,2.49-.59.59.59,0,0,0,.31-.52V16.09a.57.57,0,0,0-.81-.53,3.48,3.48,0,0,1-1.56.37c-1.07,0-1.49-.41-1.49-1.47V7.84h3.33a.57.57,0,0,0,.57-.57V5.66a.58.58,0,0,0-.57-.58"></path><path class="cls-1" d="M68.15,4.81A5.21,5.21,0,0,0,64.5,6.17V.58A.58.58,0,0,0,63.93,0H62.11a.58.58,0,0,0-.58.58V18a.58.58,0,0,0,.58.58h1.82A.58.58,0,0,0,64.5,18V10.91a3.06,3.06,0,0,1,3.12-3.28c1.82,0,2.82,1.12,2.82,3.15V18a.58.58,0,0,0,.58.58h1.84a.58.58,0,0,0,.58-.58V10.32c0-3.35-2.08-5.51-5.29-5.51"></path><path class="cls-1" d="M85.59,8.15H81.23V3.55h4.5c2,0,3.11.78,3.11,2.2,0,2.16-2.27,2.4-3.25,2.4m.66,7.56h-5V11h4.68c1.76,0,3.85.39,3.85,2.33,0,2.17-2.46,2.41-3.51,2.41M90,9.24a4.46,4.46,0,0,0,1.87-3.8,4.26,4.26,0,0,0-1.25-3.09A6.71,6.71,0,0,0,85.9.71H78.8a.57.57,0,0,0-.57.57V18a.57.57,0,0,0,.57.58h7.41c4,0,6.62-2,6.62-5.17A4.35,4.35,0,0,0,90,9.24"></path><path class="cls-1" d="M101.44,16.21c-1.22,0-2.54-.59-2.54-1.93,0-1.78,2.12-2,3-2a12.06,12.06,0,0,1,3,.38v.75c0,1.58-1.52,2.77-3.53,2.77m.61-11.3A10.65,10.65,0,0,0,97.33,6a.57.57,0,0,0-.3.71l.54,1.52a.58.58,0,0,0,.32.33.61.61,0,0,0,.46,0,8.06,8.06,0,0,1,3.5-.86c1.94,0,3,.83,3.09,2.46a13.69,13.69,0,0,0-3.19-.34c-3.61,0-5.85,1.74-5.85,4.59s2.61,4.42,5.18,4.42A6,6,0,0,0,105,17.52V18a.58.58,0,0,0,.58.58h1.75a.58.58,0,0,0,.58-.58V10.44a5.42,5.42,0,0,0-1.43-4,6,6,0,0,0-4.38-1.52"></path><path class="cls-1" d="M114.93,5.08h-1.84a.57.57,0,0,0-.57.58V18a.57.57,0,0,0,.57.58h1.84a.58.58,0,0,0,.58-.58V5.66a.58.58,0,0,0-.58-.58"></path><path class="cls-1" d="M115.06.36H113a.58.58,0,0,0-.58.58V3a.58.58,0,0,0,.58.58h2.08a.58.58,0,0,0,.58-.58v-2a.58.58,0,0,0-.58-.58"></path><path class="cls-1" d="M127.79,4.86a5.49,5.49,0,0,0-4.47,2V5.66a.58.58,0,0,0-.58-.58h-1.85a.57.57,0,0,0-.57.58V18a.57.57,0,0,0,.57.58h1.85a.58.58,0,0,0,.58-.58V13.06C123.32,10,125,8,127.61,8h.16a.57.57,0,0,0,.57-.57v-2a.57.57,0,0,0-.55-.58"></path><path class="cls-1" d="M136.86,7.51c2,0,2.95,1.48,3.26,3h-6.59a3.52,3.52,0,0,1,3.33-3m0-2.7c-3.63,0-6.47,3.07-6.47,7a6.7,6.7,0,0,0,6.71,7,6.94,6.94,0,0,0,5.5-2.51.53.53,0,0,0,.15-.41.58.58,0,0,0-.19-.4l-1.15-1a.57.57,0,0,0-.8,0,4.5,4.5,0,0,1-3.45,1.55,3.62,3.62,0,0,1-3.66-3h9.08a.57.57,0,0,0,.58-.53c0-.23,0-.38,0-.65,0-4.17-2.6-7.08-6.32-7.08"></path><path class="cls-1" d="M152.16,10.37c-1.37-.43-2.67-.83-2.67-1.6s.72-1.21,1.8-1.21a6.27,6.27,0,0,1,3.33,1.1.58.58,0,0,0,.45.07.56.56,0,0,0,.36-.26l.83-1.38a.57.57,0,0,0-.17-.77,8.82,8.82,0,0,0-4.76-1.46c-2.81,0-4.76,1.69-4.76,4.15,0,2.74,2.59,3.49,4.49,4,1.72.48,2.66.88,2.66,1.64,0,1-1.06,1.39-2,1.39a6.7,6.7,0,0,1-3.94-1.46.56.56,0,0,0-.81.13l-.93,1.3a.58.58,0,0,0,.11.78,9.1,9.1,0,0,0,5.46,2c2.92,0,5-1.75,5-4.32,0-2.79-2.74-3.59-4.44-4.09"></path></g></g></svg>