<svg width="356" height="70" viewBox="0 0 356 70" fill="none" xmlns="http://www.w3.org/2000/svg">
<rect width="356" height="70" fill="white"/>
<path d="M78.5999 49.6L75.9 41.2H64.5L61.7999 49.6H56.7L66.5 20.5H74L83.8 49.6H78.5999ZM65.9 37H74.5L70.1999 23.8L65.9 37Z" fill="#0092D4"/>
<path d="M85.8999 28.1999H90.0999L90.4999 30.9999H90.7999C91.3999 29.9999 92.2999 29.1999 93.2999 28.6999C94.2999 28.1999 95.4999 27.8999 96.6999 27.8999C97.2999 27.8999 97.7999 27.8999 98.3999 27.9999V32.6999C97.8999 32.5999 97.1999 32.5999 96.3999 32.5999C95.3999 32.5999 94.3999 32.7999 93.3999 33.1999C92.3999 33.5999 91.5999 34.1999 91.0999 34.9999V49.5999H85.9999V28.1999H85.8999Z" fill="#0092D4"/>
<path d="M104.2 58.4001C103 58.3001 101.9 58.0001 100.8 57.7001V53.6001C103.1 54.3001 105.3 54.6001 107.3 54.6001C108.8 54.6001 110 54.4001 110.9 54.0001C111.8 53.6001 112.5 53.0001 112.9 52.2001C113.3 51.4001 113.6 50.3001 113.6 48.9001V47.2001H113.3C112.6 48.0001 111.8 48.6001 110.9 49.0001C109.9 49.4001 108.9 49.6001 107.7 49.6001C106.2 49.6001 104.8 49.2001 103.5 48.5001C102.3 47.8001 101.3 46.6001 100.5 45.0001C99.7999 43.4001 99.3999 41.5001 99.3999 39.1001C99.3999 35.3001 100.4 32.5001 102.3 30.5001C104.3 28.6001 107.2 27.6001 111.1 27.6001C112.4 27.6001 113.7 27.7001 115.1 27.9001C116.5 28.1001 117.7 28.4001 118.8 28.7001V47.8001C118.8 50.3001 118.4 52.3001 117.6 53.8001C116.8 55.3001 115.6 56.5001 114 57.2001C112.4 57.9001 110.3 58.3001 107.8 58.3001C106.6 58.6001 105.4 58.6001 104.2 58.4001ZM111.8 45.1001C112.5 44.8001 113.1 44.4001 113.6 43.8001V32.1001C112.6 31.9001 111.6 31.8001 110.7 31.8001C108.7 31.8001 107.1 32.4001 106.1 33.5001C105.1 34.6001 104.6 36.4001 104.6 38.9001C104.6 41.3001 105 43.1001 105.9 44.1001C106.8 45.1001 108 45.6001 109.6 45.6001C110.3 45.6001 111.1 45.4001 111.8 45.1001Z" fill="#0092D4"/>
<path d="M140.5 40.3998H127.2C127.3 41.7998 127.5 42.8998 128 43.6998C128.5 44.4998 129.2 45.0998 130.1 45.4998C131.1 45.8998 132.3 45.9998 133.9 45.9998C135.5 45.9998 137.3 45.7998 139.3 45.2998V49.1998C137.2 49.6998 135.2 49.9998 133.2 49.9998C130.6 49.9998 128.5 49.5998 126.9 48.7998C125.3 47.9998 124 46.7998 123.2 45.1998C122.4 43.5998 122 41.4998 122 38.7998C122 36.3998 122.4 34.3998 123.1 32.6998C123.8 31.0998 124.9 29.7998 126.3 28.9998C127.7 28.1998 129.4 27.7998 131.4 27.7998C134.3 27.7998 136.5 28.6998 138.1 30.5998C139.6 32.4998 140.4 35.2998 140.4 38.9998L140.5 40.3998ZM128.4 32.5998C127.7 33.4998 127.3 35.0998 127.3 37.2998H135.8C135.8 35.0998 135.4 33.4998 134.7 32.5998C134 31.6998 133 31.1998 131.6 31.1998C130.1 31.1998 129.1 31.6998 128.4 32.5998Z" fill="#0092D4"/>
<path d="M143.5 28.1999H147.8L148.2 30.4999H148.5C149.3 29.6999 150.3 28.9999 151.4 28.5999C152.5 28.1999 153.7 27.8999 154.9 27.8999C157.1 27.8999 158.9 28.5999 160.1 29.8999C161.4 31.1999 162 33.2999 162 36.0999V49.6999H156.9V36.2999C156.9 34.8999 156.6 33.8999 156 33.1999C155.4 32.5999 154.5 32.2999 153.4 32.2999C152.5 32.2999 151.7 32.4999 150.8 32.7999C149.9 33.0999 149.3 33.6999 148.7 34.3999V49.4999H143.6L143.5 28.1999Z" fill="#0092D4"/>
<path d="M178.9 45.4V49.5C177.7 49.8 176.4 49.9 175.2 49.9C170.1 49.9 167.6 47.3 167.6 42.2V32.2H163.9V28.1H167.6L168.5 20.5H172.7V28.1H178.7V32.2H172.7V41.4C172.7 42.4 172.8 43.3 173.1 43.9C173.4 44.5 173.8 45 174.3 45.2C174.9 45.5 175.6 45.6 176.5 45.6C177.2 45.7 178 45.6 178.9 45.4Z" fill="#0092D4"/>
<path d="M181.4 23.7999C180.9 23.2999 180.6 22.5999 180.6 21.6999C180.6 20.7999 180.9 20.0999 181.4 19.5999C181.9 19.0999 182.8 18.8999 183.8 18.8999C184.8 18.8999 185.7 19.0999 186.2 19.5999C186.7 20.0999 187 20.7999 187 21.6999C187 22.5999 186.7 23.2999 186.2 23.7999C185.7 24.2999 184.8 24.4999 183.8 24.4999C182.8 24.4999 182 24.2999 181.4 23.7999ZM181.3 49.5999V28.1999H186.5V49.5999C186.4 49.5999 181.3 49.5999 181.3 49.5999Z" fill="#0092D4"/>
<path d="M190.8 28.1999H195.1L195.5 30.4999H195.8C196.6 29.6999 197.6 28.9999 198.7 28.5999C199.8 28.1999 201 27.8999 202.2 27.8999C204.4 27.8999 206.2 28.5999 207.4 29.8999C208.7 31.1999 209.3 33.2999 209.3 36.0999V49.6999H204.2V36.2999C204.2 34.8999 203.9 33.8999 203.3 33.1999C202.7 32.5999 201.8 32.2999 200.7 32.2999C199.8 32.2999 199 32.4999 198.1 32.7999C197.2 33.0999 196.6 33.6999 196 34.3999V49.4999H190.9L190.8 28.1999Z" fill="#0092D4"/>
<path d="M225.8 28.6001C227.2 29.1001 228.2 30.0001 228.8 31.3001C229.5 32.5001 229.8 34.2001 229.8 36.4001V49.6001H225.5L225.1 47.4001H224.8C224.2 48.3001 223.3 48.9001 222.3 49.3001C221.3 49.7001 220.2 50.0001 218.9 50.0001C217.5 50.0001 216.3 49.8001 215.3 49.3001C214.3 48.8001 213.5 48.1001 213 47.2001C212.5 46.3001 212.2 45.2001 212.2 44.0001C212.2 42.0001 212.9 40.5001 214.2 39.4001C215.6 38.3001 217.7 37.7001 220.7 37.4001L224.7 37.0001V36.2001C224.7 35.1001 224.5 34.3001 224.2 33.6001C223.9 33.0001 223.3 32.5001 222.6 32.3001C221.9 32.0001 220.9 31.9001 219.6 31.9001C218.7 31.9001 217.8 32.0001 216.8 32.1001C215.8 32.3001 214.8 32.5001 213.9 32.8001V28.9001C214.9 28.6001 216 28.4001 217.1 28.2001C218.3 28.0001 219.4 28.0001 220.5 28.0001C222.7 27.8001 224.4 28.1001 225.8 28.6001ZM222.9 45.9001C223.6 45.6001 224.3 45.2001 224.8 44.5001V40.0001L221.3 40.3001C220 40.4001 219 40.8001 218.3 41.3001C217.7 41.8001 217.4 42.5001 217.4 43.5001C217.4 44.4001 217.7 45.2001 218.2 45.7001C218.8 46.2001 219.6 46.4001 220.6 46.4001C221.4 46.3001 222.1 46.2001 222.9 45.9001Z" fill="#0092D4"/>
<path d="M234 49C233.4 48.4 233.1 47.6 233.1 46.7C233.1 45.7 233.4 44.9 234 44.4C234.6 43.8 235.4 43.5 236.5 43.5C237.5 43.5 238.4 43.8 239 44.4C239.6 45 239.9 45.8 239.9 46.7C239.9 47.7 239.6 48.4 239 49C238.4 49.6 237.6 49.9 236.5 49.9C235.5 49.9 234.7 49.6 234 49Z" fill="#0092D4"/>
<path d="M247.2 58.4001C246 58.3001 244.9 58.0001 243.8 57.7001V53.6001C246.1 54.3001 248.3 54.6001 250.3 54.6001C251.8 54.6001 253 54.4001 253.9 54.0001C254.8 53.6001 255.5 53.0001 255.9 52.2001C256.3 51.4001 256.6 50.3001 256.6 48.9001V47.2001H256.3C255.6 48.0001 254.8 48.6001 253.9 49.0001C252.9 49.4001 251.9 49.6001 250.7 49.6001C249.2 49.6001 247.8 49.2001 246.5 48.5001C245.3 47.8001 244.3 46.6001 243.5 45.0001C242.8 43.4001 242.4 41.5001 242.4 39.1001C242.4 35.3001 243.4 32.5001 245.3 30.5001C247.3 28.6001 250.2 27.6001 254.1 27.6001C255.4 27.6001 256.7 27.7001 258.1 27.9001C259.5 28.1001 260.7 28.4001 261.8 28.7001V47.8001C261.8 50.3001 261.4 52.3001 260.6 53.8001C259.8 55.4001 258.6 56.5001 257 57.2001C255.4 57.9001 253.3 58.3001 250.8 58.3001C249.6 58.6001 248.4 58.6001 247.2 58.4001ZM254.8 45.1001C255.5 44.8001 256.1 44.4001 256.6 43.8001V32.1001C255.6 31.9001 254.6 31.8001 253.7 31.8001C251.7 31.8001 250.1 32.4001 249.1 33.5001C248.1 34.6001 247.6 36.4001 247.6 38.9001C247.6 41.3001 248 43.1001 248.9 44.1001C249.8 45.1001 251 45.6001 252.6 45.6001C253.3 45.6001 254.1 45.4001 254.8 45.1001Z" fill="#0092D4"/>
<path d="M267.7 47.1998C265.9 45.3998 265.1 42.5998 265.1 38.8998C265.1 35.1998 266 32.3998 267.7 30.5998C269.4 28.7998 271.9 27.7998 275.1 27.7998C278.3 27.7998 280.7 28.6998 282.5 30.5998C284.2 32.3998 285.1 35.1998 285.1 38.8998C285.1 41.3998 284.7 43.3998 283.9 45.0998C283.1 46.6998 281.9 47.9998 280.5 48.7998C279 49.5998 277.2 49.9998 275.2 49.9998C271.9 49.9998 269.5 49.0998 267.7 47.1998ZM278.6 44.3998C279.4 43.2998 279.8 41.4998 279.8 38.8998C279.8 36.2998 279.4 34.3998 278.6 33.3998C277.8 32.2998 276.6 31.7998 275 31.7998C273.4 31.7998 272.2 32.2998 271.4 33.3998C270.6 34.4998 270.2 36.2998 270.2 38.8998C270.2 40.6998 270.4 42.0998 270.8 43.0998C271.2 44.0998 271.7 44.8998 272.4 45.2998C273.1 45.7998 274 45.9998 275 45.9998C276.6 45.9998 277.8 45.4998 278.6 44.3998Z" fill="#0092D4"/>
<path d="M292 49.6999C290.7 49.4999 289.4 49.1999 288.3 48.8999V17.8999H293.4V30.2999H293.7C294.4 29.4999 295.2 28.8999 296.1 28.4999C297.1 28.0999 298.2 27.8999 299.4 27.8999C301 27.8999 302.4 28.2999 303.6 28.9999C304.8 29.6999 305.8 30.8999 306.6 32.4999C307.3 34.0999 307.7 36.0999 307.7 38.4999C307.7 42.2999 306.7 45.1999 304.8 47.0999C302.9 48.9999 299.9 49.9999 296 49.9999C294.7 49.9999 293.4 49.8999 292 49.6999ZM301 44.2999C302 43.1999 302.5 41.3999 302.5 38.7999C302.5 36.2999 302.1 34.5999 301.2 33.4999C300.3 32.4999 299.1 31.9999 297.5 31.9999C296.7 31.9999 296 32.0999 295.2 32.3999C294.5 32.6999 293.9 33.0999 293.4 33.6999V45.4999C294.3 45.6999 295.3 45.8999 296.4 45.8999C298.5 45.9999 300 45.4999 301 44.2999Z" fill="#0092D4"/>
<path d="M311.1 49C310.5 48.4 310.2 47.6 310.2 46.7C310.2 45.7 310.5 44.9 311.1 44.4C311.7 43.8 312.5 43.5 313.6 43.5C314.6 43.5 315.5 43.8 316.1 44.4C316.7 45 317 45.8 317 46.7C317 47.7 316.7 48.4 316.1 49C315.5 49.6 314.6 49.9 313.6 49.9C312.5 49.9 311.7 49.6 311.1 49Z" fill="#0092D4"/>
<path d="M332.9 28.6001C334.2 29.1001 335.3 30.0001 335.9 31.3001C336.6 32.5001 336.9 34.2001 336.9 36.4001V49.6001H332.6L332.2 47.4001H332C331.4 48.3001 330.5 48.9001 329.5 49.3001C328.5 49.7001 327.4 50.0001 326.1 50.0001C324.7 50.0001 323.5 49.8001 322.5 49.3001C321.5 48.8001 320.7 48.1001 320.2 47.2001C319.7 46.3001 319.4 45.2001 319.4 44.0001C319.4 42.0001 320.1 40.5001 321.4 39.4001C322.7 38.3001 324.9 37.7001 327.9 37.4001L331.9 37.0001V36.2001C331.9 35.1001 331.7 34.3001 331.4 33.6001C331.1 33.0001 330.5 32.5001 329.8 32.3001C329.1 32.0001 328.1 31.9001 326.8 31.9001C325.9 31.9001 325 32.0001 324 32.1001C323 32.3001 322 32.5001 321.1 32.8001V28.9001C322.1 28.6001 323.2 28.4001 324.3 28.2001C325.5 28.0001 326.6 28.0001 327.7 28.0001C329.8 27.8001 331.6 28.1001 332.9 28.6001ZM330 45.9001C330.7 45.6001 331.4 45.2001 331.9 44.5001V40.0001L328.4 40.3001C327.1 40.4001 326.1 40.8001 325.4 41.3001C324.8 41.8001 324.5 42.5001 324.5 43.5001C324.5 44.4001 324.8 45.2001 325.3 45.7001C325.9 46.2001 326.7 46.4001 327.7 46.4001C328.5 46.3001 329.3 46.2001 330 45.9001Z" fill="#0092D4"/>
<path d="M341.1 28.1999H345.3L345.7 30.9999H346C346.6 29.9999 347.5 29.1999 348.5 28.6999C349.5 28.1999 350.7 27.8999 351.9 27.8999C352.5 27.8999 353 27.8999 353.6 27.9999V32.6999C353.1 32.5999 352.4 32.5999 351.6 32.5999C350.6 32.5999 349.6 32.7999 348.6 33.1999C347.6 33.5999 346.8 34.1999 346.3 34.9999V49.5999H341.2L341.1 28.1999Z" fill="#0092D4"/>
<path d="M27.0001 15.9999C27.5001 15.9999 28.1001 16.0999 28.6001 16.3999H28.7001C29.0001 16.3999 29.6001 16.4999 30.2001 16.5999C30.3001 16.5999 30.3001 16.5999 30.4001 16.5999C30.1001 16.4999 29.8001 16.3999 29.6001 16.1999C29.4001 16.0999 29.3001 15.9999 29.1001 15.8999C28.5001 15.5999 27.9001 15.4999 27.8001 15.4999C27.7001 15.4999 27.7001 15.3999 27.7001 15.2999C27.7001 15.1999 27.8001 15.0999 27.8001 15.0999L30.7001 14.6999L27.8001 14.2999C27.7001 14.2999 27.7001 14.1999 27.7001 14.1999C27.7001 14.0999 27.7001 14.0999 27.8001 13.9999C27.8001 13.9999 28.3001 13.6999 28.9001 13.5999C29.2001 13.4999 29.7001 13.3999 30.3001 13.1999C30.3001 13.1999 30.4001 13.1999 30.4001 13.0999C30.1001 13.0999 29.8001 13.0999 29.5001 13.0999C29.3001 13.0999 29.1001 13.0999 28.9001 13.0999C28.2001 13.0999 27.6001 13.1999 27.6001 13.1999C27.5001 13.1999 27.4001 13.1999 27.4001 13.0999C27.4001 12.9999 27.4001 12.8999 27.5001 12.8999L30.0001 11.3999L27.2001 12.0999C27.1001 12.0999 27.1001 12.0999 27.0001 11.9999C27.0001 11.8999 27.0001 11.8999 27.0001 11.7999C27.0001 11.7999 27.3001 11.2999 27.9001 10.9999C28.1001 10.7999 28.6001 10.4999 29.1001 10.0999L29.2001 9.9999C28.9001 10.1999 28.6001 10.1999 28.3001 10.2999C28.1001 10.3999 28.0001 10.3999 27.8001 10.4999C27.1001 10.7999 26.6001 11.0999 26.6001 11.0999C26.5001 11.1999 26.4001 11.0999 26.4001 11.0999C26.3001 10.9999 26.3001 10.9999 26.4001 10.8999L28.0001 8.4999L25.7001 10.1999C25.6001 10.1999 25.6001 10.1999 25.5001 10.1999C25.4001 10.1999 25.4001 10.0999 25.4001 9.9999C25.4001 9.9999 25.5001 9.3999 25.9001 8.8999C26.1001 8.6999 26.4001 8.1999 26.6001 7.5999C26.6001 7.5999 26.6001 7.4999 26.7001 7.4999C26.5001 7.7999 26.2001 7.9999 26.0001 8.0999C25.9001 8.1999 25.7001 8.2999 25.6001 8.4999C25.1001 8.9999 24.8001 9.4999 24.7001 9.4999C24.7001 9.5999 24.6001 9.5999 24.5001 9.5999C24.4001 9.5999 24.4001 9.4999 24.4001 9.3999L25.1001 6.5999L23.6001 9.0999C23.6001 9.1999 23.5001 9.1999 23.4001 9.1999C23.3001 9.1999 23.3001 9.0999 23.3001 9.0999C23.3001 9.0999 23.2001 8.4999 23.3001 7.8999C23.3001 7.5999 23.4001 6.9999 23.5001 6.3999C23.5001 6.2999 23.5001 6.2999 23.5001 6.1999C23.4001 6.4999 23.3001 6.7999 23.1001 6.9999C23.0001 7.1999 22.9001 7.2999 22.8001 7.4999C22.5001 8.0999 22.4001 8.7999 22.4001 8.7999C22.4001 8.8999 22.3001 8.8999 22.2001 8.8999C22.1001 8.8999 22.0001 8.7999 22.0001 8.7999L21.6001 5.8999L21.2001 8.7999C21.2001 8.8999 21.1001 8.8999 21.1001 8.8999C21.0001 8.8999 21.0001 8.8999 20.9001 8.7999C20.9001 8.7999 20.6001 8.2999 20.5001 7.6999C20.4001 7.3999 20.3001 6.8999 20.1001 6.2999C20.1001 6.2999 20.1001 6.1999 20.0001 6.1999C20.0001 6.4999 20.0001 6.7999 20.0001 7.0999C20.0001 7.2999 20.0001 7.4999 20.0001 7.6999C20.0001 8.3999 20.1001 8.9999 20.1001 8.9999C20.1001 9.0999 20.1001 9.1999 20.0001 9.1999C19.9001 9.1999 19.8001 9.1999 19.8001 9.0999L18.3001 6.5999L19.0001 9.3999C19.0001 9.4999 19.0001 9.4999 18.9001 9.5999C18.8001 9.5999 18.8001 9.5999 18.7001 9.5999C18.7001 9.5999 18.2001 9.2999 17.9001 8.6999C17.7001 8.4999 17.4001 7.9999 17.0001 7.4999L16.9001 7.3999C17.1001 7.6999 17.1001 7.9999 17.2001 8.2999C17.3001 8.4999 17.3001 8.5999 17.4001 8.7999C17.6001 9.3999 18.0001 9.8999 18.0001 9.9999C18.0001 10.0999 18.0001 10.1999 18.0001 10.1999C17.9001 10.2999 17.8001 10.2999 17.8001 10.1999L15.4001 8.4999L17.2001 10.7999C17.2001 10.8999 17.2001 10.8999 17.2001 10.9999C17.2001 11.0999 17.1001 11.0999 17.0001 11.0999C17.0001 11.0999 16.5001 10.9999 15.9001 10.5999C15.7001 10.3999 15.2001 10.0999 14.6001 9.8999C14.6001 9.8999 14.5001 9.8999 14.5001 9.7999C14.8001 9.9999 14.9001 10.1999 15.1001 10.4999C15.2001 10.5999 15.3001 10.7999 15.5001 10.8999C16.0001 11.3999 16.5001 11.6999 16.5001 11.7999C16.6001 11.7999 16.6001 11.8999 16.6001 11.9999C16.6001 12.0999 16.5001 12.0999 16.4001 12.0999L13.6001 11.3999L16.1001 12.8999C16.2001 12.8999 16.2001 12.9999 16.2001 13.0999C16.2001 13.1999 16.1001 13.1999 16.1001 13.1999C16.1001 13.1999 15.5001 13.2999 14.9001 13.1999C14.6001 13.0999 14.0001 12.9999 13.4001 12.9999C13.3001 12.9999 13.3001 12.9999 13.2001 12.9999C13.5001 13.0999 13.8001 13.1999 14.0001 13.3999C14.1001 13.4999 14.3001 13.5999 14.5001 13.6999C15.1001 13.9999 15.8001 14.0999 15.8001 14.0999C15.9001 14.0999 15.9001 14.1999 15.9001 14.2999C15.9001 14.3999 15.8001 14.4999 15.8001 14.4999L12.9001 14.8999L15.8001 15.2999C15.9001 15.2999 15.9001 15.3999 15.9001 15.3999C15.9001 15.4999 15.9001 15.4999 15.8001 15.5999C15.8001 15.5999 15.3001 15.8999 14.7001 15.9999C14.4001 16.0999 13.9001 16.1999 13.3001 16.3999C13.3001 16.3999 13.2001 16.3999 13.2001 16.4999C13.5001 16.4999 13.8001 16.4999 14.1001 16.4999C14.1001 16.4999 14.5001 16.4999 14.7001 16.4999C14.8001 16.4999 15.0001 16.4999 15.1001 16.4999C15.7001 16.0999 16.4001 15.7999 17.2001 15.5999C17.3001 15.5999 17.4001 15.5999 17.5001 15.6999C17.6001 15.7999 17.6001 15.7999 17.6001 15.8999C17.7001 15.7999 17.9001 15.6999 18.1001 15.6999C18.7001 15.3999 19.4001 15.2999 20.3001 15.1999C20.4001 15.1999 20.5001 15.1999 20.6001 15.2999C20.6001 15.3999 20.7001 15.3999 20.7001 15.4999C20.9001 15.3999 21.2001 15.2999 21.4001 15.2999C22.1001 15.1999 22.8001 15.1999 23.6001 15.2999C23.7001 15.2999 23.8001 15.3999 23.9001 15.4999V15.5999C24.1001 15.5999 24.4001 15.4999 24.6001 15.4999C25.3001 15.4999 26.0001 15.5999 26.8001 15.8999C26.9001 15.7999 27.0001 15.8999 27.0001 15.9999Z" fill="#FFC60B"/>
<path d="M22.8 12.3C25.6 11.9 25.9 12.7 25.9 12.7C25.9 12.7 26 12.9 26.2 12.8C26.2 12.8 26.4 12.8 26.3 12.6C26.3 12.6 26 11.7 24.5 11.5C24.5 11.5 23.7 11.4 22.9 11.5C22.7 11.5 22.6 12.1 22.6 12.1C22.5 12.4 22.8 12.3 22.8 12.3Z" fill="#231F20"/>
<path d="M20.4001 12.8999C20.1001 12.6999 19.3001 12.7999 19.3001 12.7999C18.0001 12.7999 17.7001 13.5999 17.7001 13.5999C17.6001 13.8999 17.8001 13.8999 17.8001 13.8999C18.1001 13.9999 18.2001 13.7999 18.2001 13.7999C18.2001 13.7999 18.3001 13.5999 18.8001 13.3999C18.8001 13.4999 18.8001 13.5999 18.8001 13.5999C18.8001 13.9999 19.1001 14.2999 19.5001 14.2999C19.9001 14.2999 20.0001 13.9999 20.0001 13.5999C20.0001 13.4999 20.0001 13.3999 19.9001 13.2999C20.1001 13.3999 20.3001 13.4999 20.4001 13.6999C20.4001 13.7999 20.5001 13.7999 20.8001 13.7999C21.1001 13.7999 21.0001 13.5999 21.0001 13.5999C20.8001 13.0999 20.4001 12.8999 20.4001 12.8999Z" fill="#231F20"/>
<path d="M22.7 13.8999C22.9 13.8999 23 13.8999 23.1 13.7999C23.2 13.5999 23.4 13.3999 23.6 13.3999C23.6 13.4999 23.5 13.5999 23.5 13.6999C23.5 14.0999 23.8 14.3999 24.2 14.3999C24.6 14.3999 24.9 14.0999 24.9 13.6999C24.9 13.5999 24.9 13.4999 24.9 13.4999C25.4 13.5999 25.5 13.8999 25.5 13.8999C25.5 13.8999 25.6 14.0999 25.9 13.9999C25.9 13.9999 26.1 13.9999 26 13.6999C26 13.6999 25.7 12.8999 24.4 12.8999C24.4 12.8999 23.6 12.8999 23.3 12.9999C23.3 12.9999 22.9 13.1999 22.7 13.8999C22.5 13.8999 22.5 13.6999 22.7 13.8999Z" fill="#231F20"/>
<path d="M17.3001 12.8C17.5001 12.9 17.6001 12.7 17.6001 12.7C17.6001 12.7 17.9001 11.9 20.7001 12.3C20.7001 12.3 21.0001 12.4 20.9001 12.1C20.9001 12.1 20.8001 11.5 20.6001 11.5C19.8001 11.4 19.0001 11.5 19.0001 11.5C17.5001 11.7 17.2001 12.6 17.2001 12.6C17.1001 12.8 17.3001 12.8 17.3001 12.8Z" fill="#231F20"/>
<path d="M14.9 19.3997C14.3 19.3997 13.6 19.4997 13.6 19.4997C13.5 19.4997 13.4 19.4997 13.4 19.3997C13.4 19.2997 13.3 19.1997 13.4 19.0997C13.9 18.3997 14 17.6997 14 17.1997C12.1 18.5997 12 19.9997 12 20.4997H12.1C13.3 20.5997 14.3 19.7997 14.9 19.3997Z" fill="#59AA47"/>
<path d="M17.3 18.1997C17.1 18.0997 16.9 18.0997 16.6 18.0997C16.2 18.0997 16 18.0997 16 18.0997C15.9 18.0997 15.8 17.9997 15.8 17.8997C15.8 17.7997 15.8 17.6997 15.9 17.5997C16.6 16.9997 16.9 16.4997 17 16.1997C14.8 16.8997 14.3 18.1997 14.2 18.6997C14.4 18.7997 14.7 18.7997 15.1 18.7997C15.5 18.7997 16 18.6997 16.6 18.4997C16.8 18.4997 17 18.3997 17.3 18.1997Z" fill="#59AA47"/>
<path d="M19.9 17.4996C19.3 17.1996 18.7001 17.0996 18.7001 17.0996C18.6001 17.0996 18.5 16.9996 18.5 16.8996C18.5 16.7996 18.5 16.6996 18.6 16.5996C19.3001 16.1996 19.7 15.8996 19.9 15.5996C18.8 15.7996 17.9 16.0996 17.3 16.6996C17 16.9996 16.9 17.2996 16.8 17.4996C17.3 17.6996 17.8 17.7996 18.3 17.7996C18.6 17.7996 18.9 17.7996 19.1 17.6996C19.3001 17.6996 19.6 17.5996 19.9 17.4996Z" fill="#59AA47"/>
<path d="M21.6001 16.7998C21.5001 16.7998 21.4001 16.6998 21.4001 16.5998C21.4001 16.4998 21.5001 16.3998 21.6001 16.3998C22.3001 16.1998 22.8001 15.8998 23.0001 15.6998C21.9001 15.5998 21.0001 15.7998 20.3001 16.1998C20.0001 16.3998 19.7001 16.6998 19.6001 16.7998C20.3001 17.3998 21.3001 17.4998 22.0001 17.4998C22.2001 17.4998 22.4001 17.4998 22.6001 17.4998C22.2001 16.9998 21.6001 16.7998 21.6001 16.7998Z" fill="#59AA47"/>
<path d="M24.5001 17C24.4001 16.9 24.4001 16.8 24.4001 16.7C24.4001 16.6 24.5001 16.5 24.6001 16.5C25.3001 16.4 25.8001 16.2 26.1001 16.1C25.1001 15.8 24.1001 15.8 23.4001 16.1C23.0001 16.2 22.8001 16.4 22.6001 16.6C23.5001 17.7 24.8001 17.9 25.5001 17.9C25.0001 17.4 24.5001 17 24.5001 17Z" fill="#59AA47"/>
<path d="M31.6 20.5C31.6 20.2 31.6 19.8 31.4 19.3C31.1 18.5 30.4 17.9 29.4 17.5C29.5 17.9 29.8 18.5 30.2 19C30.3 19.1 30.3 19.2 30.2 19.3C30.1 19.4 30 19.4 29.9 19.4C29.9 19.4 29.3 19.3 28.7 19.4C29.3 19.8 30.5 20.5 31.5 20.5C31.5 20.6 31.6 20.6 31.6 20.5Z" fill="#59AA47"/>
<path d="M29.3 18.7999C28.8 18.1999 28.1001 17.8999 27.2001 17.9999C26.9001 17.9999 26.6 18.0999 26.3 18.1999C27 18.6999 27.7 18.9999 28.4 18.9999H28.5C28.9 18.8999 29.2 18.7999 29.3 18.7999Z" fill="#59AA47"/>
<path d="M25.3 17C25.7 17.3 26.2 17.5 26.8 17.5C27 17.5 27.3001 17.5 27.6 17.4C28.0001 17.3 28.4001 17.2 28.7001 17.1C28.3001 16.9 27.9 16.7 27.5 16.7C27.1 16.6 26.6001 16.6 26.2001 16.7C25.8001 16.7 25.5 16.9 25.3 17Z" fill="#59AA47"/>
<path d="M21.2 34.0998H17.8C17.1 34.0998 16.6 33.7998 16.4 33.4998C16.2 33.2998 16.1 32.9998 16 32.6998V32.5998C16 32.2998 16 31.8998 16 31.5998C16.4 29.3998 17.3 27.8998 18.1 26.8998C18 26.8998 17.9 26.7998 17.9 26.7998C17.4 26.4998 17.2 25.9998 17.3 25.3998C17.4 24.6998 18.1 23.8998 18.3 23.7998C19.5 22.3998 21.2 22.2998 21.4 22.2998C21.7 22.2998 24 22.1998 25.2 24.5998C26.7 27.4998 27 29.8998 27.3 31.7998V31.8998C27.3 32.1998 27.3 32.4998 27.3 32.6998V32.7998C27.2 33.0998 27.1 33.2998 27 33.3998C26.7 33.6998 26.2 33.8998 25.7 33.9998C25.5 33.9998 25.2 33.9998 25.1 33.9998C25 33.9998 25 33.9998 25 33.9998H24H22.4V38.7998H37.7C37.7 35.9998 37.3 33.1998 36.5 30.5998C35.7 28.0998 34.6 25.8998 33.1 23.8998C31.6 21.9998 30 20.4998 28.1 19.3998C26.2 18.2998 24.1 17.7998 22 17.7998C19.9 17.7998 17.8 18.2998 15.9 19.3998C14 20.3998 12.3 21.8998 10.9 23.8998C9.2 25.9998 8 28.2998 7.2 30.7998C6.4 33.3998 6 36.0998 6 38.8998H21.3C21.2 38.8998 21.2 34.0998 21.2 34.0998Z" fill="#05B4E9"/>
<path d="M6 38.8999C6 41.0999 6.2 43.1999 6.7 45.1999C13.5 44.3999 17.6 43.5999 18.8 42.7999C19.7 42.1999 20.3 41.8999 21.2 41.8999V38.8999H6Z" fill="white"/>
<path d="M22.3 41.9998C22.9 42.0998 23.4 42.2998 23.9 42.4998C23.9 42.4998 24 42.4998 24.1 42.4998C25.0001 42.4998 25.7001 42.6998 26.7001 43.0998C27.0001 43.1998 27.3 43.2998 27.6 43.3998C27.7 43.3998 32.7 44.9998 36.8 45.1998C37.3 43.1998 37.5 40.9998 37.5 38.7998H22.3V41.9998Z" fill="white"/>
<path d="M28.5001 48.6997C28.4001 48.7997 28.3001 48.9997 28.2001 49.0997C27.9001 49.2997 27.6001 49.4997 27.2001 49.4997C27.1001 49.5997 27.1001 49.7997 26.9001 49.8997C26.7001 50.1997 26.3001 50.4997 25.6001 50.3997C25.5001 50.4997 25.4001 50.5997 25.3001 50.7997C25.0001 51.0997 24.5001 51.2997 24.0001 51.1997C23.9001 51.2997 23.7001 51.3997 23.5001 51.4997C23.2001 51.5997 22.8001 51.6997 22.3001 51.5997V55.6997C22.3001 55.9997 22.1001 56.1997 21.8001 56.1997C21.5001 56.1997 21.3001 55.9997 21.3001 55.6997V51.7997C21.1001 51.8997 20.9001 51.8997 20.6001 51.8997C20.5001 51.8997 20.4001 51.8997 20.3001 51.8997C20.0001 51.7997 19.8001 51.6997 19.6001 51.4997C19.3001 51.5997 18.7001 51.5997 18.2001 51.2997C18.0001 51.1997 17.9001 50.9997 17.8001 50.7997C17.7001 50.7997 17.5001 50.7997 17.3001 50.6997C16.9001 50.5997 16.5001 50.2997 16.4001 49.8997C16.3001 49.8997 16.2001 49.8997 16.0001 49.8997C15.6001 49.7997 15.1001 49.6997 15.0001 49.2997C15.0001 49.1997 14.9001 49.0997 14.9001 48.9997C12.7001 50.0997 10.2001 51.1997 9.1001 51.6997C9.5001 52.3997 10.0001 53.1997 10.5001 53.7997C12.0001 55.6997 13.6001 57.1997 15.5001 58.2997C16.4001 58.7997 17.3001 59.1997 18.2001 59.3997C18.3001 59.1997 18.4001 59.0997 18.6001 58.9997C19.5001 58.3997 21.1001 58.7997 21.6001 58.9997C22.1001 58.8997 23.7001 58.3997 24.6001 58.9997C24.8001 59.0997 24.9001 59.2997 25.0001 59.3997C25.9001 59.0997 26.8001 58.7997 27.7001 58.2997C29.6001 57.2997 31.3001 55.7997 32.7001 53.7997C33.2001 53.1997 33.6001 52.4997 34.0001 51.7997C33.0001 51.2997 30.3001 50.0997 28.5001 48.6997Z" fill="white"/>
<path d="M23.2 62.6C23.2 62.5 23.2 62.4 23.2 62.3C23.2 62.2 23.2 62.1 23.2 62C23.7 61.9 24.5 61.7 25 61.1C25.3 60.8 25.4 60.4 25.3 59.9C25.3 59.5 25.1 59.2 24.8 59C23.9 58.4 22.3 58.8 21.8 59C21.3 58.9 19.7 58.4 18.8 59C18.5 59.2 18.3 59.5 18.3 59.9C18.3 60.3 18.4 60.7 18.6 61.1C19.1 61.7 19.9 61.9 20.4 62C20.4 62.1 20.4 62.2 20.4 62.3C20.4 62.4 20.4 62.5 20.4 62.6C20 62.9 18.8 64 17 64.2C17 64.3 17.2 64.5 17.5 64.8C19.1 64.5 20.1 63.7 20.6 63.2C20.6 63.3 20.7 63.3 20.8 63.4C20.7 63.8 20.2 64.9 18.3 65.4C18.6 65.5 19 65.7 19.4 65.7C20.7 65.1 21.2 64.2 21.3 63.7C21.4 63.7 21.5 63.7 21.6 63.7C21.7 63.7 21.8 63.7 21.9 63.7C22.1 64.2 22.5 65.1 23.8 65.7C24.2 65.6 24.6 65.5 24.9 65.4C23 64.9 22.6 63.8 22.4 63.4C22.5 63.4 22.5 63.3 22.6 63.2C23.1 63.7 24.2 64.5 25.7 64.8C26 64.5 26.2 64.3 26.2 64.2C24.7 64 23.5 62.9 23.2 62.6Z" fill="#05B4E9"/>
<path d="M24.4001 59.4998C24.5001 59.5998 24.6001 59.6998 24.6001 59.8998C24.6001 60.0998 24.6001 60.3998 24.4001 60.4998C24.2001 60.6998 23.9001 60.8998 23.5001 60.9998C23.7001 60.6998 23.7001 60.2998 23.6001 59.9998C23.5001 59.6998 23.3001 59.3998 23.1001 59.2998C23.6001 59.2998 24.1001 59.2998 24.4001 59.4998Z" fill="white"/>
<path d="M20.5002 60.2996C20.8002 59.5996 21.7002 59.5996 21.7002 59.5996C21.7002 59.5996 22.0002 59.5996 22.2002 59.6996C22.6002 59.7996 22.8002 59.9996 22.9002 60.2996C23.0002 60.5996 22.8002 60.8996 22.6002 61.0996C22.3002 60.8996 22.0002 60.6996 21.6002 60.6996C21.2002 60.6996 20.9002 60.7996 20.6002 61.0996C20.6002 60.8996 20.4002 60.5996 20.5002 60.2996Z" fill="white"/>
<path d="M19.9 61.0999C19.6 60.9999 19.2 60.7999 19 60.5999C18.8 60.3999 18.8 60.1999 18.8 59.9999C18.8 59.7999 18.9 59.6999 19 59.5999C19.2 59.4999 19.5 59.3999 19.9 59.3999C20 59.3999 20.2 59.3999 20.3 59.3999C20.1 59.5999 19.9 59.7999 19.8 60.0999C19.7 60.3999 19.8 60.7999 19.9 61.0999Z" fill="white"/>
<path d="M21 62.1999C21 61.7999 21.3 61.3999 21.8 61.3999C22.2 61.3999 22.6 61.6999 22.6 62.1999C22.6 62.5999 22.3 62.9999 21.8 62.9999C21.3 62.9999 21 62.5999 21 62.1999Z" fill="white"/>
<path d="M26 64.7997C24.5 64.4997 23.4 63.6997 22.9 63.1997C22.9 63.2997 22.8 63.2997 22.7 63.3997C22.8 63.7997 23.3 64.8997 25.2 65.3997C25.5 65.1997 25.8 64.9997 26 64.7997Z" fill="white"/>
<path d="M20.7001 63.1997C20.2001 63.6997 19.1001 64.4997 17.6001 64.7997C17.8001 64.9997 18.1001 65.1997 18.4001 65.2997C20.3001 64.7997 20.8001 63.6997 20.9001 63.2997C20.8001 63.2997 20.7001 63.1997 20.7001 63.1997Z" fill="white"/>
<path d="M40.9001 42.9998C40.9001 42.8998 40.9 42.7998 40.8 42.6998C40.7001 42.5998 40.7 42.5998 40.6 42.5998C40.7 42.4998 40.7001 42.2998 40.8 42.1998C41 41.5998 41.2001 40.7998 41.2001 39.9998C41.2001 39.8998 41.1 39.7998 41.1 39.6998C41 39.6998 41 39.5998 40.9001 39.5998C40.9001 39.4998 41 39.2998 41 39.1998C41.2001 38.4998 41.2001 37.7998 41.2001 36.9998C41.2001 36.8998 41.1 36.7998 41 36.6998C40.9001 36.6998 40.8 36.6998 40.8 36.6998C40.8 36.4998 40.9001 36.3998 40.9001 36.1998C41 35.4998 41 34.7998 40.8 33.8998C40.8 33.7998 40.7 33.6998 40.6 33.6998C40.5 33.6998 40.5 33.6998 40.4001 33.6998C40.4001 33.5998 40.4001 33.4998 40.4001 33.3998C40.5 32.6998 40.4001 31.9998 40.2001 31.1998C40.2001 31.0998 40.1 30.9998 40 30.9998C39.9001 30.9998 39.8 30.9998 39.7001 30.9998C39.7001 30.7998 39.7001 30.5998 39.7001 30.4998C39.7001 29.7998 39.5 29.0998 39.2001 28.2998C39.2001 28.1998 39.1 28.0998 39 28.0998C38.9001 28.0998 38.8 28.0998 38.7001 28.0998C38.7001 27.8998 38.7001 27.7998 38.7001 27.5998C38.6001 26.8998 38.4001 26.1998 38 25.4998C38 25.3998 37.9001 25.2998 37.7001 25.2998C37.6001 25.2998 37.5 25.2998 37.5 25.3998C37.5 25.1998 37.4001 25.0998 37.4001 24.8998C37.2001 24.1998 36.9001 23.4998 36.4001 22.8998C36.3001 22.7998 36.2 22.7998 36.1 22.7998C36 22.7998 35.9 22.8998 35.8 22.8998C35.7001 22.6998 35.7 22.4998 35.6 22.3998C35.3 21.7998 34.9 21.0998 34.3 20.4998C34.2 20.3998 34.1 20.3998 34 20.3998C33.9 20.3998 33.8 20.4998 33.8 20.4998C33.7 20.2998 33.6 20.0998 33.5 19.9998C33.1 19.3998 32.6 18.8998 32 18.3998C31.9 18.2998 31.8001 18.2998 31.7001 18.2998C31.6 18.2998 31.5 18.3998 31.5 18.4998C31.1 17.8998 30.5 17.4998 29.7001 17.1998C29.8001 17.1998 30 17.1998 30.1 17.1998C31 17.2998 31.6 17.0998 31.7001 17.0998C31.9001 16.9998 32 16.8998 32 16.6998C32 16.4998 31.8001 16.2998 31.6 16.2998C30.6 16.2998 30.2 16.0998 29.8 15.7998C29.7 15.6998 29.6 15.6998 29.5 15.6998L31.8 15.3998C32 15.3998 32.2001 15.1998 32.2001 14.9998C32.2001 14.7998 32 14.5998 31.8 14.5998L29.5 13.9998C29.8 13.8998 30.1 13.7998 30.4 13.6998C31.3 13.3998 31.8 12.9998 31.8 12.9998C32 12.8998 32 12.6998 31.9 12.4998C31.8 12.2998 31.6 12.1998 31.4 12.2998C30.5 12.5998 30 12.5998 29.5 12.4998C29.4 12.4998 29.3001 12.4998 29.2001 12.4998L31.2001 11.2998C31.4001 11.1998 31.4 10.9998 31.4 10.7998C31.3 10.5998 31.1 10.4998 30.9 10.5998L28.6 11.1998C28.8001 10.9998 29.1 10.7998 29.3 10.5998C30 9.9998 30.3 9.3998 30.3 9.3998C30.4 9.1998 30.3001 8.9998 30.2001 8.8998C30 8.7998 29.8001 8.7998 29.7001 8.8998C29 9.5998 28.6 9.6998 28 9.7998C27.9 9.7998 27.8001 9.8998 27.7001 9.8998L29.1 7.9998C29.2001 7.7998 29.2001 7.5998 29.1 7.4998C29 7.3998 28.7001 7.2998 28.6 7.4998L26.7001 8.8998C26.8001 8.6998 27 8.39981 27.1 8.0998C27.5 7.2998 27.6 6.5998 27.6 6.5998C27.6 6.3998 27.5 6.1998 27.3 6.1998C27.1 6.0998 26.9 6.1998 26.8 6.3998C26.4 7.2998 26 7.5998 25.6 7.8998C25.5 7.9998 25.4 7.9998 25.4 8.0998L26 5.5998C26 5.3998 25.9 5.1998 25.8 5.0998C25.6 4.9998 25.4 5.0998 25.3 5.2998L24.1 7.2998C24.1 6.9998 24.2001 6.6998 24.2001 6.2998C24.2001 5.4998 24 4.7998 24 4.7998C23.9 4.5998 23.8001 4.4998 23.6 4.4998C23.4 4.4998 23.2001 4.6998 23.2001 4.8998C23.2001 5.8998 23 6.2998 22.7001 6.6998C22.7001 6.7998 22.6 6.8998 22.6 6.9998L22.3 4.6998C22.3 4.4998 22.1 4.2998 21.9 4.2998C21.7 4.2998 21.5 4.4998 21.5 4.6998L21 6.9998C20.9 6.6998 20.8001 6.3998 20.7001 6.0998C20.5 5.1998 20 4.6998 20 4.6998C19.9 4.4998 19.7001 4.4998 19.5 4.5998C19.3 4.6998 19.2 4.8998 19.3 5.0998C19.6 5.9998 19.6 6.4998 19.5 6.9998C19.5 7.0998 19.5 7.1998 19.5 7.2998L18.3 5.2998C18.2 5.0998 18 5.0998 17.8 5.0998C17.6 5.1998 17.5 5.3998 17.6 5.5998L18.2 7.8998C18 7.6998 17.8 7.3998 17.6 7.1998C17 6.4998 16.4 6.1998 16.4 6.1998C16.2 6.0998 16 6.1998 15.9 6.2998C15.8 6.4998 15.8 6.6998 15.9 6.7998C16.6 7.4998 16.7 7.8998 16.8 8.4998C16.8 8.5998 16.9 8.6998 16.9 8.7998L15 7.3998C14.8 7.2998 14.6 7.2998 14.5 7.3998C14.4 7.4998 14.3 7.7998 14.5 7.8998L15.9 9.7998C15.7 9.6998 15.4 9.4998 15.1 9.3998C14.3 8.9998 13.6 8.8998 13.6 8.8998C13.2 8.8998 13 8.9998 13 9.1998C12.9 9.3998 13 9.5998 13.2 9.6998C14.1 10.0998 14.4 10.4998 14.7 10.8998C14.8 10.9998 14.8 11.0998 14.9 11.0998L12.6 10.4998C12.4 10.3998 12.2 10.5998 12.1 10.6998C12 10.8998 12.1 11.0998 12.3 11.1998L14.3 12.3998C14 12.3998 13.7 12.2998 13.4 12.2998C12.5 12.1998 11.9 12.3998 11.8 12.3998C11.6 12.4998 11.5 12.5998 11.5 12.7998C11.5 12.9998 11.7 13.1998 11.9 13.1998C12.9 13.1998 13.3 13.3998 13.7 13.6998C13.8 13.6998 13.9 13.7998 14 13.7998L11.7 14.0998C11.5 14.0998 11.3 14.2998 11.3 14.4998C11.3 14.6998 11.5 14.8998 11.7 14.8998L14 15.1998C13.7 15.2998 13.4 15.3998 13.1 15.4998C12.2 15.7998 11.7 16.1998 11.7 16.1998C11.5 16.2998 11.5 16.4998 11.6 16.6998C11.7 16.8998 11.9 16.9998 12.1 16.8998C12.6 16.6998 13 16.5998 13.3 16.5998C12.8 16.9998 12.4 17.3998 12.3 17.5998C12.2 17.6998 12.1 17.7998 12 17.9998C12 17.8998 11.9 17.8998 11.8 17.8998C11.7 17.8998 11.6 17.8998 11.5 17.8998C10.8 18.3998 10.3 18.9998 9.90005 19.4998C9.80005 19.6998 9.70005 19.7998 9.60005 19.9998C9.60005 19.8998 9.50005 19.8998 9.40005 19.8998C9.30005 19.8998 9.20005 19.8998 9.10005 19.9998C8.50005 20.5998 8.10005 21.1998 7.80005 21.8998C7.70005 22.0998 7.70005 22.1998 7.60005 22.3998C7.50005 22.2998 7.50005 22.2998 7.40005 22.2998C7.30005 22.2998 7.20005 22.2998 7.10005 22.3998C6.60005 23.0998 6.30005 23.6998 6.10005 24.3998C6.00005 24.5998 6.00005 24.7998 6.00005 24.8998C5.90005 24.7998 5.80005 24.7998 5.70005 24.7998C5.60005 24.7998 5.50005 24.8998 5.40005 24.9998C5.00005 25.6998 4.80005 26.3998 4.70005 27.0998C4.70005 27.2998 4.70005 27.3998 4.70005 27.5998C4.60005 27.4998 4.50005 27.4998 4.40005 27.4998C4.30005 27.4998 4.20005 27.5998 4.20005 27.6998C3.90005 28.4998 3.80005 29.1998 3.70005 29.8998C3.70005 30.0998 3.70005 30.1998 3.70005 30.3998C3.60005 30.3998 3.50005 30.2998 3.40005 30.3998C3.30005 30.3998 3.20005 30.4998 3.20005 30.5998C3.00005 31.3998 3.00005 32.1998 3.00005 32.7998C3.00005 32.8998 3.00005 33.0998 3.10005 33.1998H3.00005C2.90005 33.1998 2.80005 33.2998 2.80005 33.3998C2.60005 34.1998 2.60005 34.9998 2.70005 35.6998C2.70005 35.8998 2.80005 35.9998 2.80005 36.1998H2.70005C2.60005 36.1998 2.50005 36.2998 2.50005 36.4998C2.40005 37.2998 2.40005 38.0998 2.60005 38.7998C2.60005 38.8998 2.70005 39.0998 2.70005 39.1998C2.60005 39.1998 2.50005 39.1998 2.50005 39.1998C2.40005 39.2998 2.30005 39.3998 2.30005 39.4998C2.30005 40.2998 2.40005 41.0998 2.60005 41.6998C2.70005 41.8998 2.70005 42.0998 2.80005 42.2998C2.70005 42.2998 2.60005 42.2998 2.50005 42.3998C2.40005 42.4998 2.40005 42.5998 2.40005 42.6998C2.50005 43.4998 2.80005 44.1998 3.10005 44.7998C3.20005 44.8998 3.20005 44.9998 3.30005 45.0998C3.20005 45.0998 3.20005 45.0998 3.10005 45.1998C3.00005 45.2998 3.00005 45.3998 3.00005 45.4998C3.20005 46.2998 3.50005 46.9998 3.90005 47.5998C4.00005 47.6998 4.10005 47.8998 4.20005 47.9998C4.10005 47.9998 4.00005 48.0998 4.00005 48.0998C4.00005 48.6998 4.00005 48.8998 4.10005 48.9998C4.40005 49.7998 4.70005 50.3998 5.20005 50.9998C5.30005 51.0998 5.40005 51.1998 5.50005 51.2998C5.40005 51.2998 5.40005 51.3998 5.30005 51.3998C5.20005 51.4998 5.20005 51.5998 5.30005 51.6998C5.70005 52.3998 6.10005 53.0998 6.60005 53.4998C6.70005 53.5998 6.80005 53.6998 6.90005 53.7998C6.80005 53.7998 6.80005 53.8998 6.70005 53.9998C6.70005 54.0998 6.70005 54.1998 6.70005 54.2998C7.10005 54.9998 7.70005 55.5998 8.20005 55.9998C8.40005 56.0998 8.50005 56.1998 8.70005 56.2998H8.60005C8.50005 56.2998 8.40005 56.3998 8.40005 56.4998C8.40005 56.5998 8.40005 56.6998 8.50005 56.7998C9.10005 57.3998 9.70005 57.8998 10.2 58.1998C10.7 58.4998 11.2 58.6998 11.6 58.6998C12 58.7998 12.4 58.7998 12.8 58.6998C12.8 58.6998 12.8 58.6998 12.9 58.6998C13.9 59.3998 15 59.9998 16.1 60.4998C17 60.8998 18 61.1998 18.9 61.3998C19.1 61.3998 19.3 61.4998 19.5 61.4998C19.1 61.3998 18.7 61.0998 18.4 60.7998C18.4 60.6998 18.3 60.6998 18.3 60.5998C17.6 60.3998 17 60.1998 16.3 59.8998C15.2 59.4998 14.2 58.8998 13.2 58.1998C13.2 57.8998 13.2 57.4998 13.1 57.1998C13.8 57.7998 14.4 58.1998 15.1 58.5998C16 59.0998 17 59.4998 18 59.7998C18 59.6998 18 59.6998 18 59.5998C18 59.3998 18.1 59.2998 18.1 59.0998C17.2 58.7998 16.3 58.4998 15.4 57.9998C13.5 56.9998 11.8 55.4998 10.4 53.4998C9.90005 52.7998 9.40005 52.0998 9.00005 51.3998C10.1 50.8998 12.6 49.7998 14.8 48.6998C14.8 48.7998 14.8 48.8998 14.9 48.9998C15.1 49.3998 15.6 49.5998 15.9 49.5998C16 49.5998 16.1 49.5998 16.3 49.5998C16.4 49.8998 16.7 50.1998 17.2 50.3998C17.4 50.4998 17.5 50.4998 17.7 50.4998C17.8 50.6998 17.9 50.8998 18.1 50.9998C18.5 51.2998 19.1 51.2998 19.5 51.1998C19.7001 51.3998 19.9001 51.5998 20.2001 51.5998C20.3001 51.5998 20.4 51.5998 20.5 51.5998C20.7001 51.5998 21 51.4998 21.2001 51.4998V55.3998C21.2001 55.6998 21.4001 55.8998 21.7001 55.8998C22 55.8998 22.2001 55.6998 22.2001 55.3998V51.2998C22.7001 51.3998 23.1 51.2998 23.4 51.1998C23.6 51.0998 23.8 50.9998 23.9 50.8998C24.4 50.9998 24.9001 50.8998 25.2001 50.4998C25.3001 50.3998 25.4 50.1998 25.5 50.0998C26.2001 50.0998 26.6 49.7998 26.8 49.5998C26.9 49.4998 27 49.2998 27.1 49.1998C27.5 49.1998 27.9 48.9998 28.1 48.7998C28.2001 48.6998 28.3 48.4998 28.4 48.3998C30.2 49.7998 32.9 50.9998 34.1 51.4998C33.7 52.1998 33.2 52.8998 32.8 53.4998C31.3 55.3998 29.7 56.8998 27.8 57.9998C26.9 58.4998 26 58.8998 25.1 59.0998C25.2001 59.1998 25.2001 59.3998 25.2001 59.5998C25.2001 59.6998 25.2001 59.6998 25.2001 59.7998C26.2001 59.4998 27.2001 59.0998 28.1 58.5998C28.8001 58.1998 29.5 57.6998 30.1 57.1998C30 57.4998 30 57.8998 30 58.1998C29.7001 58.3998 28.9001 58.9998 27.7001 59.5998C26.8001 59.9998 25.9 60.3998 25 60.5998H24.9C24.9 60.6998 24.8 60.6998 24.8 60.7998C24.5 61.0998 24.1 61.3998 23.7001 61.4998C24.2001 61.3998 24.7001 61.2998 25.2001 61.1998C26.2001 60.8998 27.1 60.5998 28 60.0998C29.2001 59.4998 30 58.8998 30.4 58.6998C30.7 58.7998 31.2001 58.7998 31.6 58.6998C32.1 58.5998 32.6 58.3998 33 58.1998C33.6 57.8998 34.2001 57.3998 34.7001 56.7998C34.8 56.6998 34.8 56.5998 34.8 56.4998C34.8 56.3998 34.7 56.2998 34.6 56.2998C34.6 56.2998 34.6 56.2998 34.5 56.2998C34.7001 56.1998 34.9001 56.0998 35 55.8998C35.5 55.4998 36.1 54.8998 36.5 54.1998C36.6 54.0998 36.6 53.9998 36.5 53.8998C36.5 53.7998 36.4 53.7998 36.3 53.6998C36.4 53.5998 36.5 53.4998 36.6 53.3998C37.1 52.8998 37.5 52.2998 37.9001 51.5998C37.9001 51.4998 37.9001 51.3998 37.9001 51.2998C37.8001 51.1998 37.8 51.1998 37.7001 51.0998C37.8 50.9998 37.9001 50.8998 38 50.6998C38.4001 50.1998 38.8 49.4998 39.1 48.6998C39.1 48.5998 39.1 48.4998 39.1 48.3998C39 48.2998 38.9 48.2998 38.8 48.2998C38.9 48.1998 39 48.0998 39.1 47.8998C39.5 47.2998 39.8 46.5998 40 45.7998C40 45.6998 40 45.5998 39.9001 45.4998C39.8001 45.3998 39.7 45.3998 39.6 45.3998C39.7 45.2998 39.8001 45.0998 39.9001 44.9998C40.6001 44.5998 40.8001 43.7998 40.9001 42.9998ZM40.5 40.3998C40.5 40.9998 40.4001 41.4998 40.2001 41.9998C40 42.4998 39.8 42.8998 39.5 43.1998C39.2001 43.5998 38.8 43.7998 38.7001 43.8998C38.2001 43.2998 38 42.4998 38 41.6998C38 41.3998 38 41.0998 38.1 40.8998C38.5 41.3998 38.7001 42.0998 38.7001 42.0998C38.7001 42.1998 38.8001 42.2998 38.9001 42.2998C39 42.2998 39.1 42.2998 39.1 42.1998C39.6 41.1998 40.1 40.6998 40.5 40.3998ZM40.4001 37.4998C40.5 37.4998 40.5 37.4998 40.4001 37.4998C40.4001 38.0998 40.4 38.5998 40.3 39.0998C40.2001 39.5998 40 39.9998 39.7001 40.3998C39.4001 40.7998 39.1 41.0998 39 41.1998C38.2001 40.2998 38.1001 38.9998 38.2001 38.1998C38.6001 38.6998 38.9001 39.1998 38.9001 39.1998C38.9001 39.2998 39 39.2998 39.1 39.2998C39.2 39.2998 39.3 39.1998 39.3 39.0998C39.6 38.2998 40.1001 37.7998 40.4001 37.4998ZM40.1 34.4998C40.2 35.0998 40.2 35.5998 40.1 36.0998C40 36.5998 39.9001 36.9998 39.7001 37.3998C39.4001 37.8998 39.1 38.0998 39 38.1998C38.2001 37.4998 38 36.0998 37.9001 35.2998C38.4001 35.6998 38.7001 36.1998 38.7001 36.1998C38.8 36.2998 38.8001 36.2998 38.9001 36.2998C39 36.2998 39.1 36.1998 39.1 36.0998C39.4 35.3998 39.8 34.7998 40.1 34.4998ZM39.6 31.6998C39.7 31.6998 39.7 31.6998 39.6 31.6998C39.7 32.2998 39.7001 32.7998 39.7001 33.2998C39.7001 33.7998 39.5 34.1998 39.3 34.5998C39.1 35.0998 38.8 35.3998 38.7001 35.4998C38 34.8998 37.7 34.0998 37.6 33.4998C37.5 33.1998 37.5 32.9998 37.5 32.6998C38 33.0998 38.4001 33.5998 38.4001 33.5998C38.5 33.6998 38.6 33.6998 38.6 33.6998C38.6 33.6998 38.8 33.5998 38.8 33.4998C39 32.5998 39.3 31.9998 39.6 31.6998ZM17 31.8998V31.7998C17.4 29.7998 18.2001 28.4998 18.7001 27.6998C19.1 27.0998 19.5 26.7998 19.7001 26.5998C19.8001 26.5998 19.8 26.4998 19.9 26.4998C20.1 26.2998 20.1 26.0998 20 25.8998C19.8 25.6998 19.6 25.6998 19.4 25.7998C19.4 25.7998 19.3001 25.8998 19.2001 25.9998C18.8001 26.2998 18.5 26.1998 18.5 26.1998C18.4 26.0998 18.3 25.8998 18.3 25.6998C18.4 25.2998 18.8 24.6998 19 24.4998C20 23.3998 21.5 23.2998 21.5 23.2998C21.5 23.2998 22 23.2998 22.6 23.4998C23.4 23.7998 24 24.2998 24.5 25.1998C25.1 26.3998 25.6 27.5998 25.9 28.7998C25 28.4998 24.4 27.8998 24.4 27.8998C24.2 27.6998 23.9001 27.7998 23.7001 27.9998C23.6 28.0998 23.6 28.1998 23.6 28.2998C23.6 28.3998 23.7 28.4998 23.8 28.5998C23.8 28.5998 24.9001 29.4998 26.2001 29.7998C26.3001 30.1998 26.4 30.6998 26.5 31.1998C26.1 30.9998 25.6 30.8998 25.2001 30.7998C24.9001 30.6998 24.7001 30.6998 24.5 30.5998C23.6 30.2998 22.9 29.6998 22.9 29.6998C22.7 29.4998 22.4001 29.5998 22.2001 29.7998C22 29.6998 22 29.9998 22.2001 30.1998C22.2001 30.1998 23.1 30.8998 24.1 31.2998C24.3001 31.3998 24.6 31.4998 24.9 31.5998C26 31.8998 26.5 32.0998 26.5 32.6998C26.5 32.7998 26.4 32.8998 26.4 32.8998C26 33.2998 25.3 33.2998 25 33.2998H24C23.8 33.2998 22.7 33.2998 21.8 32.6998C19.4 31.0998 18.3 31.2998 17 31.8998ZM21 33.1998H17.8C17.5 33.1998 17.3 33.0998 17.1 32.9998L17 32.8998C18.4 32.1998 19.1 31.9998 21 33.1998ZM22.3 38.8998V34.0998H23.9H24.9H25C25.1 34.0998 25.4 34.0998 25.6 34.0998C26.2001 33.9998 26.6 33.7998 26.9 33.4998C27 33.3998 27.2001 33.1998 27.2001 32.8998C27.2001 32.8998 27.2001 32.8998 27.2001 32.7998C27.3001 32.5998 27.3001 32.2998 27.2001 31.9998V31.8998C26.9001 29.9998 26.6 27.5998 25.1 24.6998C23.9 22.2998 21.6 22.3998 21.3 22.3998C21.1 22.3998 19.3 22.4998 18.2 23.8998C18.1 23.9998 17.4 24.7998 17.2 25.4998C17.1 26.0998 17.3 26.6998 17.8 26.8998C17.9 26.8998 18 26.9998 18 26.9998C17.3 27.8998 16.4 29.3998 15.9 31.6998C15.8 32.0998 15.8 32.3998 15.9 32.6998V32.7998C16 33.0998 16.1 33.3998 16.3 33.5998C16.5 33.8998 16.9 34.1998 17.7 34.1998H21.1V38.9998V41.9998C20.2001 41.9998 19.5 42.2998 18.7001 42.8998C17.5001 43.6998 13.4 44.4998 6.60005 45.2998C6.10005 43.2998 5.90005 41.1998 5.90005 38.9998C5.90005 36.1998 6.30005 33.3998 7.20005 30.7998C8.00005 28.2998 9.10005 26.0998 10.6 24.0998C12.1 22.1998 13.7 20.6998 15.6 19.5998C17.5 18.4998 19.6 17.9998 21.7001 17.9998C23.8001 17.9998 25.9 18.4998 27.8 19.5998C29.7 20.5998 31.4 22.0998 32.8 24.0998C34.3 25.9998 35.4001 28.2998 36.2001 30.7998C37 33.3998 37.4001 36.0998 37.4001 38.9998C37.4001 41.1998 37.2001 43.2998 36.7001 45.3998C32.5 45.1998 27.6 43.5998 27.5 43.5998C27.2001 43.4998 26.8 43.3998 26.5 43.2998C25.5 42.8998 24.7 42.6998 23.9 42.6998C23.8 42.6998 23.8001 42.6998 23.7001 42.6998C23.2001 42.4998 22.8001 42.2998 22.1 42.1998V38.8998H22.3ZM28.7001 17.0998C28.4001 17.1998 28.1 17.2998 27.6 17.3998C27.3001 17.4998 27.1 17.4998 26.8 17.4998C26.2 17.4998 25.7 17.3998 25.3 17.0998C25.5 16.9998 25.8001 16.7998 26.2001 16.6998C26.6 16.5998 27.1 16.5998 27.5 16.6998C27.9 16.6998 28.3001 16.7998 28.7001 17.0998ZM29.3 18.7998C29.1 18.8998 28.8 18.9998 28.5 18.9998H28.4C27.7 18.9998 27 18.6998 26.3 18.1998C26.7 17.9998 27 17.9998 27.3 17.9998C28.1 17.8998 28.8 18.1998 29.3 18.7998ZM26.1 16.0998C25.8001 16.1998 25.3001 16.3998 24.6 16.4998C24.5 16.4998 24.4 16.5998 24.4 16.6998C24.4 16.7998 24.4 16.8998 24.5 16.9998C24.5 16.9998 25.1 17.3998 25.5 17.8998C24.8 17.8998 23.5 17.6998 22.6 16.5998C22.7001 16.4998 23 16.2998 23.4 16.0998C24.1 15.7998 25 15.7998 26.1 16.0998ZM23 15.5998C22.8 15.7998 22.3001 16.0998 21.6 16.2998C21.5 16.2998 21.4 16.3998 21.4 16.4998C21.4 16.5998 21.5 16.6998 21.6 16.6998C21.6 16.6998 22.2001 16.8998 22.7001 17.2998C22.5 17.2998 22.3001 17.2998 22.1 17.2998C21.4 17.2998 20.4001 17.1998 19.7001 16.5998C19.8001 16.3998 20 16.1998 20.4 15.9998C21 15.6998 21.9 15.4998 23 15.5998ZM19.9 15.6998C19.7 15.8998 19.4 16.2998 18.6 16.6998C18.5 16.6998 18.5 16.7998 18.5 16.9998C18.5 17.0998 18.6 17.1998 18.7001 17.1998C18.7001 17.1998 19.3 17.2998 19.9 17.5998C19.6 17.6998 19.4 17.7998 19.1 17.7998C18.9 17.7998 18.6 17.8998 18.3 17.8998C17.8 17.8998 17.3 17.7998 16.8 17.5998C16.9 17.3998 17 17.0998 17.3 16.7998C17.8 16.1998 18.7 15.7998 19.9 15.6998ZM15.8 17.5998C15.7 17.6998 15.7 17.7998 15.7 17.8998C15.7 17.9998 15.8 18.0998 15.9 18.0998C15.9 18.0998 16.2 18.0998 16.5 18.0998C16.7 18.0998 17 18.1998 17.2 18.1998C16.9 18.2998 16.7 18.3998 16.4 18.4998C15.8 18.6998 15.3 18.7998 14.9 18.7998C14.5 18.7998 14.3 18.6998 14 18.6998C14.1 18.1998 14.6 16.8998 16.8 16.1998C16.8 16.4998 16.5 17.0998 15.8 17.5998ZM38.1 30.6998C38.2 29.7998 38.5 29.1998 38.7001 28.7998C38.9001 29.2998 39 29.8998 39 30.2998C39 30.7998 39 31.1998 38.8 31.6998C38.6 32.1998 38.4 32.4998 38.3 32.5998C37.7001 32.1998 37.2001 31.5998 36.9001 30.7998C36.8001 30.4998 36.7001 30.2998 36.7001 29.9998C37.2001 30.2998 37.7001 30.7998 37.7001 30.7998C37.8 30.8998 37.9001 30.8998 38 30.8998C38.1 30.8998 38.1 30.7998 38.1 30.6998ZM37.2001 27.9998C37.2001 27.0998 37.4 26.4998 37.6 26.0998C37.8 26.5998 38 27.0998 38 27.5998C38.1 28.0998 38.1 28.4998 38 28.9998C37.9001 29.4998 37.7 29.8998 37.6 29.9998C36.9 29.6998 36.4001 29.0998 36 28.2998C35.9001 28.0998 35.8 27.7998 35.7001 27.4998C36.3 27.7998 36.8 28.1998 36.8 28.1998C36.9 28.2998 37 28.2998 37.1 28.1998C37.1 28.1998 37.2001 28.0998 37.2001 27.9998ZM35.8 25.6998C35.9 25.6998 35.9001 25.5998 35.9001 25.4998C35.8001 24.5998 35.9 23.9998 36.1 23.4998C36.4 23.9998 36.6001 24.4998 36.7001 24.8998C36.8 25.3998 36.9 25.7998 36.8 26.2998C36.7001 26.7998 36.6 27.1998 36.5 27.2998C35.8 26.9998 35.1001 26.4998 34.7001 25.7998C34.5 25.5998 34.4 25.2998 34.3 24.9998C34.9 25.1998 35.5 25.5998 35.5 25.5998C35.6 25.6998 35.7001 25.6998 35.8 25.6998ZM34 23.2998C34.1 23.3998 34.2 23.3998 34.3 23.2998C34.4 23.1998 34.4001 23.0998 34.4001 22.9998C34.2001 22.1998 34.2 21.4998 34.3 21.0998C34.7001 21.4998 34.9 21.9998 35.1 22.3998C35.3 22.7998 35.4001 23.2998 35.4001 23.6998C35.4001 24.1998 35.3 24.5998 35.3 24.6998C34.6 24.5998 33.9 24.1998 33.3 23.4998C33.1 23.2998 32.9001 22.9998 32.7001 22.7998C33.4001 22.9998 34 23.2998 34 23.2998ZM32.1 21.1998C32.2 21.1998 32.3001 21.1998 32.4001 21.0998C32.5001 20.9998 32.5001 20.8998 32.4001 20.7998C32.0001 20.0998 32 19.3998 32 18.9998C32.4 19.3998 32.8 19.7998 33 20.1998C33.3 20.5998 33.5 20.9998 33.6 21.4998C33.7 21.9998 33.7001 22.3998 33.7001 22.5998C32.9001 22.5998 32.1 22.1998 31.6 21.7998C31.4 21.5998 31.1 21.3998 30.9 21.1998H31C31.6 20.9998 32.1 21.1998 32.1 21.1998ZM31.4 19.2998C31.6 19.7998 31.6 20.2998 31.6 20.4998H31.5C30.5 20.4998 29.3001 19.7998 28.7001 19.3998C29.3001 19.2998 29.9 19.3998 29.9 19.3998C30 19.3998 30.1 19.3998 30.2001 19.2998C30.3001 19.1998 30.2001 19.0998 30.2001 18.9998C29.8001 18.4998 29.6 17.8998 29.4 17.4998C30.4 17.8998 31.1 18.4998 31.4 19.2998ZM13.2 16.3998C13.2 16.3998 13.3 16.3998 13.3 16.2998C13.9 16.0998 14.5 15.9998 14.7 15.8998C15.4 15.7998 15.8 15.4998 15.8 15.4998C15.9 15.4998 15.9 15.3998 15.9 15.2998C15.9 15.1998 15.8 15.1998 15.8 15.1998L12.9 14.7998L15.8 14.3998C15.9 14.3998 15.9 14.2998 15.9 14.1998C15.9 14.0998 15.9 13.9998 15.8 13.9998C15.8 13.9998 15.2 13.8998 14.5 13.5998C14.3 13.4998 14.1 13.3998 14 13.2998C13.7 13.1998 13.5 12.9998 13.2 12.8998C13.3 12.8998 13.3 12.8998 13.4 12.8998C14 12.8998 14.6 12.9998 14.9 13.0998C15.6 13.1998 16.1 13.0998 16.1 13.0998C16.2 13.0998 16.2 12.9998 16.2 12.9998C16.2 12.8998 16.2 12.8998 16.1 12.7998L13.6 11.2998L16.4 11.9998C16.5 11.9998 16.6 11.9998 16.6 11.8998C16.6 11.7998 16.6 11.6998 16.5 11.6998C16.5 11.6998 16 11.3998 15.5 10.7998C15.4 10.6998 15.2 10.4998 15.1 10.3998C14.9 10.1998 14.7 9.9998 14.5 9.6998C14.5 9.6998 14.6 9.6998 14.6 9.7998C15.2 10.0998 15.7 10.3998 15.9 10.4998C16.5 10.8998 17 10.9998 17 10.9998C17.1 10.9998 17.1 10.9998 17.2 10.8998C17.3 10.7998 17.2 10.7998 17.2 10.6998L15.4 8.3998L17.8 10.0998C17.9 10.0998 18 10.0998 18 10.0998C18.1 9.9998 18.1 9.8998 18 9.8998C18 9.7998 17.6 9.3998 17.4 8.6998C17.3 8.4998 17.3 8.2998 17.2 8.1998C17.2 7.9998 17.1 7.6998 17 7.3998L17.1 7.4998C17.5 7.9998 17.8 8.4998 18 8.6998C18.4 9.1998 18.8 9.4998 18.8 9.5998C18.9 9.5998 18.9 9.5998 19 9.5998C19.1 9.5998 19.1 9.4998 19.1 9.3998L18.4 6.5998L19.9 9.0998C19.9 9.1998 20 9.1998 20.1 9.1998C20.2001 9.1998 20.2001 9.0998 20.2001 8.9998C20.2001 8.9998 20.1 8.3998 20.1 7.6998C20.1 7.4998 20.1 7.2998 20.1 7.0998C20.1 6.7998 20.2001 6.4998 20.1 6.1998C20.1 6.1998 20.1 6.2998 20.2001 6.2998C20.4001 6.8998 20.5 7.4998 20.6 7.6998C20.7001 8.3998 21 8.7998 21 8.8998C21 8.9998 21.1 8.9998 21.2001 8.9998C21.3001 8.9998 21.3 8.8998 21.3 8.8998L21.7001 5.9998L22.1 8.8998C22.1 8.9998 22.2 8.9998 22.3 8.9998C22.4 8.9998 22.5 8.8998 22.5 8.8998C22.5 8.8998 22.6 8.2998 22.9 7.5998C23 7.2998 23.1 7.1998 23.2001 6.9998C23.3001 6.6998 23.5 6.4998 23.6 6.1998C23.6 6.2998 23.6 6.2998 23.6 6.3998C23.6 6.9998 23.5 7.5998 23.4 7.8998C23.3 8.5998 23.4 9.0998 23.4 9.0998C23.4 9.1998 23.5 9.1998 23.5 9.1998C23.6 9.1998 23.6 9.1998 23.7001 9.0998L25.2001 6.5998L24.5 9.3998C24.5 9.4998 24.5 9.5998 24.6 9.5998C24.7001 9.5998 24.8 9.5998 24.8 9.4998C24.8 9.3998 25.2001 8.8998 25.6 8.4998C25.7001 8.3998 25.9 8.1998 26 8.0998C26.2001 7.8998 26.4001 7.6998 26.7001 7.4998C26.7001 7.4998 26.7001 7.5998 26.6 7.5998C26.3001 8.1998 26 8.6998 25.9 8.9998C25.5 9.5998 25.4 10.0998 25.4 10.0998C25.4 10.1998 25.4 10.1998 25.5 10.2998C25.6 10.2998 25.6 10.2998 25.7001 10.2998L28 8.4998L26.3 10.7998C26.3 10.8998 26.3 10.9998 26.3 10.9998C26.4 11.0998 26.5 11.0998 26.5 10.9998C26.5 10.9998 27 10.5998 27.7001 10.3998C27.9001 10.2998 28.1 10.2998 28.2001 10.1998C28.5 10.0998 28.7001 9.9998 29.1 9.8998L29 9.9998C28.5 10.3998 28.1 10.7998 27.8 10.8998C27.3 11.2998 26.9 11.6998 26.9 11.6998C26.9 11.7998 26.9 11.7998 26.9 11.8998C26.9 11.9998 27 11.9998 27.1 11.9998L29.9 11.2998L27.4 12.7998C27.3 12.7998 27.3 12.8998 27.3 12.9998C27.3 13.0998 27.4 13.0998 27.5 13.0998C27.6 13.0998 28.2 12.9998 28.8 12.9998C29 12.9998 29.2 12.9998 29.4 12.9998C29.7 12.9998 30 13.0998 30.3 12.9998C30.3 12.9998 30.2001 12.9998 30.2001 13.0998C29.6 13.2998 29 13.3998 28.8 13.4998C28.1 13.5998 27.7001 13.8998 27.7001 13.8998C27.6 13.8998 27.6 13.9998 27.6 14.0998C27.6 14.1998 27.7001 14.1998 27.7001 14.1998L30.6 14.5998L27.7001 14.9998C27.6 14.9998 27.6 15.0998 27.6 15.1998C27.6 15.2998 27.7001 15.3998 27.7001 15.3998C27.8001 15.3998 28.4 15.4998 29 15.7998C29.2001 15.8998 29.3 15.9998 29.5 16.0998C29.8 16.1998 30 16.3998 30.3 16.4998C30.2 16.4998 30.2001 16.4998 30.1 16.4998C29.5 16.4998 28.9 16.3998 28.6 16.2998H28.5C28.1 16.0998 27.5 15.9998 27 15.9998C27 15.8998 26.9 15.7998 26.8 15.7998C26 15.4998 25.3001 15.3998 24.6 15.3998C24.4 15.3998 24.1 15.3998 23.9 15.3998V15.2998C23.9 15.1998 23.8001 15.0998 23.6 15.0998C22.8001 14.9998 22 14.9998 21.4 15.0998C21.1 15.1998 20.9001 15.1998 20.7001 15.2998C20.7001 15.1998 20.7001 15.1998 20.6 15.0998C20.5 14.9998 20.4 14.9998 20.3 14.9998C19.5 15.0998 18.7 15.1998 18.1 15.4998C17.9 15.5998 17.8 15.5998 17.6 15.6998C17.6 15.5998 17.5 15.4998 17.5 15.4998C17.4 15.3998 17.3 15.3998 17.2 15.3998C16.4 15.5998 15.7 15.8998 15.1 16.2998C14.9 16.2998 14.8 16.2998 14.7 16.2998C14.6 16.2998 14.2 16.2998 14.1 16.2998C13.8 16.3998 13.5 16.2998 13.2 16.3998ZM14 17.1998C14 17.6998 13.9 18.2998 13.4 19.0998C13.3 19.1998 13.3 19.2998 13.4 19.3998C13.5 19.4998 13.6 19.4998 13.6 19.4998C13.6 19.4998 14.2 19.3998 14.9 19.3998C14.4 19.7998 13.3 20.4998 12.1 20.4998H12C12 19.9998 12.1 18.5998 14 17.1998ZM10 21.3998C10.1 20.9998 10.3 20.4998 10.6 20.0998C10.9 19.6998 11.2 19.2998 11.7 18.8998C11.7 19.2998 11.6 19.9998 11.2 20.7998C11.2 20.8998 11.2 20.9998 11.2 21.0998C11.2 21.1998 11.4 21.1998 11.5 21.1998C11.5 21.1998 12.1 20.9998 12.7 20.9998C12.5 21.1998 12.2 21.3998 12 21.5998C11.5 21.9998 10.8 22.3998 10.1 22.3998H10C9.90005 22.3998 9.90005 21.8998 10 21.3998ZM9.30005 21.0998C9.40005 21.0998 9.40005 21.0998 9.30005 21.0998C9.40005 21.4998 9.50005 22.1998 9.20005 23.0998C9.20005 23.1998 9.20005 23.2998 9.30005 23.3998C9.40005 23.4998 9.50005 23.4998 9.60005 23.3998C9.60005 23.3998 10.1 22.9998 10.8 22.9998C10.4 23.5998 9.40005 24.6998 8.30005 24.8998C8.10005 24.2998 7.90005 22.8998 9.30005 21.0998ZM6.80005 24.8998C6.90005 24.3998 7.20005 23.9998 7.50005 23.4998C7.60005 23.8998 7.80005 24.5998 7.60005 25.4998C7.60005 25.5998 7.60005 25.6998 7.70005 25.7998C7.80005 25.8998 7.90005 25.7998 8.00005 25.7998C8.00005 25.7998 8.50005 25.2998 9.20005 25.1998C9.10005 25.3998 8.90005 25.6998 8.70005 25.9998C8.20005 26.6998 7.60005 27.1998 6.80005 27.3998C6.70005 27.2998 6.60005 26.8998 6.60005 26.3998C6.60005 25.7998 6.60005 25.3998 6.80005 24.8998ZM5.40005 27.5998C5.50005 27.0998 5.60005 26.5998 5.90005 26.0998C6.10005 26.4998 6.30005 27.1998 6.30005 27.9998C6.30005 28.0998 6.40005 28.1998 6.40005 28.1998C6.50005 28.1998 6.60005 28.1998 6.70005 28.1998C6.70005 28.1998 7.20005 27.6998 7.80005 27.4998C7.70005 27.6998 7.60005 27.9998 7.50005 28.1998C7.10005 28.9998 6.50005 29.4998 5.80005 29.8998C5.70005 29.6998 5.50005 29.3998 5.40005 28.8998C5.40005 28.4998 5.30005 27.9998 5.40005 27.5998ZM4.70005 28.7998C5.00005 29.1998 5.30005 29.7998 5.40005 30.6998C5.40005 30.7998 5.50005 30.8998 5.60005 30.8998C5.70005 30.8998 5.80005 30.8998 5.90005 30.7998C5.90005 30.7998 6.30005 30.2998 6.90005 29.8998C6.90005 30.1998 6.80005 30.3998 6.70005 30.6998C6.40005 31.4998 5.90005 32.1998 5.20005 32.5998C5.10005 32.4998 4.90005 32.1998 4.70005 31.6998C4.60005 31.2998 4.50005 30.7998 4.50005 30.2998C4.40005 29.8998 4.50005 29.2998 4.70005 28.7998ZM3.80005 31.6998C4.10005 31.9998 4.50005 32.5998 4.70005 33.4998C4.70005 33.5998 4.80005 33.6998 4.90005 33.6998C5.00005 33.6998 5.10005 33.6998 5.10005 33.5998C5.10005 33.5998 5.50005 32.9998 6.00005 32.5998C6.00005 32.8998 6.00005 33.0998 5.90005 33.3998C5.70005 34.1998 5.30005 34.8998 4.70005 35.4998C4.60005 35.3998 4.30005 35.0998 4.10005 34.6998C3.90005 34.2998 3.80005 33.8998 3.70005 33.3998C3.70005 32.6998 3.70005 32.1998 3.80005 31.6998ZM3.40005 34.4998C3.70005 34.7998 4.20005 35.3998 4.40005 36.1998C4.40005 36.2998 4.50005 36.3998 4.60005 36.3998C4.70005 36.3998 4.80005 36.3998 4.80005 36.2998C4.80005 36.2998 5.10005 35.6998 5.60005 35.2998C5.60005 35.5998 5.60005 35.8998 5.50005 36.1998C5.40005 37.0998 5.00005 37.7998 4.50005 38.2998C4.40005 38.1998 4.10005 37.8998 3.80005 37.4998C3.60005 37.0998 3.40005 36.6998 3.40005 36.1998C3.30005 35.5998 3.30005 35.0998 3.40005 34.4998ZM3.20005 37.4998C3.30005 37.4998 3.40005 37.5998 3.40005 37.6998C3.60005 37.9998 4.00005 38.4998 4.20005 39.1998C4.20005 39.2998 4.30005 39.3998 4.40005 39.3998C4.50005 39.3998 4.60005 39.2998 4.60005 39.1998C4.60005 39.1998 4.70005 38.5998 5.20005 38.0998C5.30005 38.3998 5.30005 38.9998 5.20005 39.4998C5.10005 40.1998 4.80005 40.6998 4.40005 41.1998C4.00005 40.8998 3.00005 39.8998 3.20005 37.4998ZM3.00005 40.4998C3.10005 40.5998 3.20005 40.5998 3.20005 40.6998C3.50005 40.9998 3.90005 41.3998 4.20005 42.0998C4.20005 42.1998 4.30005 42.1998 4.40005 42.1998C4.50005 42.1998 4.60005 42.0998 4.60005 41.9998C4.60005 41.9998 4.90005 41.3998 5.30005 40.7998C5.40005 41.3998 5.50005 42.5998 4.60005 43.8998C4.30005 43.6998 3.10005 42.7998 3.00005 40.4998ZM3.20005 43.4998C3.60005 43.6998 4.20005 44.0998 4.70005 44.7998C4.80005 44.8998 4.90005 44.8998 4.90005 44.8998C5.00005 44.8998 5.10005 44.7998 5.10005 44.6998C5.10005 44.6998 5.30005 43.9998 5.60005 43.3998C5.70005 43.5998 5.80005 43.8998 5.90005 44.1998C6.10005 44.9998 5.90005 45.7998 5.50005 46.5998C5.40005 46.4998 5.00005 46.3998 4.60005 45.9998C4.30005 45.6998 4.00005 45.2998 3.70005 44.8998C3.50005 44.5998 3.30005 44.0998 3.20005 43.4998ZM3.90005 46.3998C3.90005 46.2998 3.90005 46.2998 3.90005 46.3998C4.00005 46.3998 4.10005 46.3998 4.20005 46.4998C4.50005 46.5998 5.00005 46.9998 5.50005 47.5998C5.60005 47.6998 5.70005 47.6998 5.80005 47.6998C5.90005 47.6998 6.00005 47.5998 6.00005 47.4998C6.00005 47.4998 6.10005 46.7998 6.40005 46.1998C6.60005 46.7998 7.00005 47.9998 6.40005 49.2998C5.90005 49.1998 4.50005 48.5998 3.90005 46.3998ZM5.60005 50.5998C5.30005 50.1998 5.00005 49.7998 4.80005 49.2998C4.90005 49.2998 5.00005 49.2998 5.00005 49.3998C5.40005 49.4998 5.90005 49.7998 6.50005 50.2998C6.60005 50.3998 6.70005 50.3998 6.80005 50.3998C6.90005 50.3998 7.00005 50.2998 7.00005 50.1998C7.00005 50.1998 7.00005 49.4998 7.20005 48.8998C7.30005 49.0998 7.50005 49.3998 7.60005 49.6998C7.90005 50.4998 7.90005 51.2998 7.70005 51.9998C7.50005 51.9998 7.20005 51.8998 6.70005 51.5998C6.20005 51.1998 5.90005 50.8998 5.60005 50.5998ZM6.00005 51.8998C6.50005 51.8998 7.10005 52.1998 7.80005 52.6998C7.90005 52.7998 8.00005 52.7998 8.10005 52.6998C8.20005 52.6998 8.20005 52.5998 8.20005 52.4998C8.20005 52.4998 8.10005 51.8998 8.30005 51.1998C8.50005 51.3998 8.60005 51.6998 8.70005 51.8998C9.00005 52.3998 9.30005 53.2998 9.10005 54.0998C8.90005 54.0998 8.50005 53.9998 8.10005 53.7998C7.70005 53.5998 7.30005 53.3998 7.00005 52.9998C6.60005 52.7998 6.30005 52.3998 6.00005 51.8998ZM11.6 56.7998C11.6 56.7998 11.4 56.1998 11.3 55.5998C11.9 56.0998 12.8 57.0998 12.8 58.3998C12.7 58.3998 12.6 58.3998 12.4 58.3998C12.2 58.3998 12 58.3998 11.8 58.2998C11 58.0998 10.1 57.6998 9.30005 56.8998C9.70005 56.7998 10.4 56.7998 11.3 57.1998C11.4 57.1998 11.5 57.1998 11.6 57.0998C11.6 56.9998 11.7 56.8998 11.6 56.7998ZM9.40005 54.9998C9.50005 55.0998 9.60005 55.0998 9.70005 54.9998C9.80005 54.8998 9.80005 54.7998 9.80005 54.6998C9.80005 54.6998 9.70005 54.0998 9.70005 53.3998C10.2 53.9998 10.9 55.0998 10.9 56.2998H10.8C10.6 56.2998 10.3 56.2998 9.90005 56.0998C9.50005 55.9998 9.10005 55.6998 8.70005 55.3998C8.30005 55.0998 8.00005 54.6998 7.60005 54.2998C8.00005 54.3998 8.70005 54.5998 9.40005 54.9998ZM19 48.5998C18.9 48.6998 18.8 48.6998 18.8 48.7998C18.3 49.1998 18 49.5998 17.8 49.9998C17.7 49.9998 17.7 49.9998 17.6 49.9998C17.2 49.8998 17.2 49.6998 17.2 49.5998C17.2 49.3998 17.3 49.1998 17.6 48.8998C18 48.5998 18.3 48.3998 18.5 48.3998C18.6 48.3998 18.7 48.3998 18.8 48.4998C18.9 48.3998 18.9 48.4998 19 48.5998ZM19.5 50.5998C19.3 50.5998 18.9001 50.6998 18.7001 50.4998C18.6 50.4998 18.6 50.3998 18.6 50.2998C18.6 49.9998 19 49.5998 19.3 49.3998C19.7 49.0998 20 48.8998 20.2001 48.8998C20.3001 48.8998 20.4 48.8998 20.5 48.9998C20.6 49.0998 20.6 49.0998 20.6 49.1998C20.6 49.2998 20.5 49.4998 20.3 49.5998C19.9 49.9998 19.6 50.2998 19.5 50.5998ZM21.5 50.6998C21.3 50.7998 20.8 51.1998 20.4 51.0998C20.3 51.0998 20.2001 51.0998 20.2001 50.9998C20.4001 50.5998 20.8001 50.3998 21.1 50.1998C21.6 49.8998 21.8 50.0998 21.8 50.0998C21.9 50.1998 21.9 50.2998 21.9 50.2998C21.9 50.3998 21.7001 50.5998 21.5 50.6998C21.6 50.6998 21.6 50.6998 21.5 50.6998ZM17.2 47.9998C17.1 48.0998 17.1 48.0998 17 48.1998C16.8 48.3998 16.5 48.6998 16.4 49.0998C16.3 49.0998 16.3 49.0998 16.2 49.0998C15.9 49.0998 15.8 48.9998 15.8 48.8998C15.8 48.8998 15.7 48.6998 15.9 48.4998C16.1 48.1998 16.6 47.9998 17 47.9998H17.1C17.1 47.9998 17.1 47.9998 17.2 47.9998ZM27.7001 48.4998C27.6 48.5998 27.4001 48.6998 27.2001 48.6998C26.9001 48.1998 26 47.1998 24.9 46.5998C24.8 46.5998 24.7001 46.4998 24.6 46.5998C24.5 46.5998 24.4 46.6998 24.4 46.7998C24.4 46.8998 24.3 46.9998 24.4 47.0998C24.4 47.1998 24.5 47.2998 24.6 47.2998C25.6 47.7998 26.3001 48.6998 26.6 49.0998C26.6 49.1998 26.5 49.1998 26.5 49.2998C26.3 49.4998 26.1 49.5998 25.8 49.5998C25.7 49.3998 25.5 49.0998 25.3 48.7998C25 48.3998 24.3001 47.8998 24.2001 47.8998C24.1 47.7998 24 47.7998 23.9 47.7998C23.8 47.7998 23.7001 47.8998 23.6 47.9998C23.5 48.0998 23.5 48.1998 23.5 48.2998C23.5 48.3998 23.6 48.4998 23.7001 48.5998C23.9001 48.6998 24.4 49.0998 24.6 49.3998C24.9 49.6998 25 49.8998 25 49.9998C25 50.0998 24.9 50.1998 24.8 50.2998C24.7 50.3998 24.5 50.4998 24.3 50.4998C24.2 50.2998 24 49.7998 23.6 49.3998C23.5 49.1998 23.2001 49.1998 23 49.3998C22.9 49.4998 22.9 49.5998 22.9 49.6998C22.9 49.7998 22.9 49.8998 23 49.9998C23.3 50.2998 23.5 50.5998 23.6 50.7998C23.5 50.7998 23.5 50.8998 23.4 50.8998C23.2 50.9998 23 50.9998 22.7001 50.9998C22.8001 50.7998 22.9 50.6998 22.9 50.4998C22.9 50.2998 22.9 49.8998 22.5 49.5998C22.3 49.3998 22 49.2998 21.5 49.2998C21.5 49.0998 21.3001 48.7998 21.1 48.5998C20.7001 48.2998 20.3 48.1998 19.8 48.2998C19.7 48.0998 19.6 47.8998 19.2001 47.6998C18.9001 47.4998 18.5 47.4998 18.1 47.5998C17.8 47.2998 17.3 47.2998 17.2 47.2998C16.7 47.1998 16 47.4998 15.5 47.8998C13.2 49.0998 10.2 50.4998 9.00005 50.9998C8.40005 49.7998 7.80005 48.4998 7.40005 47.1998C7.10005 46.6998 7.00005 46.2998 6.90005 45.9998C10.3 45.5998 13.1 45.1998 15.1 44.7998C17.2 44.3998 18.6 43.9998 19.3 43.4998C20.1 42.8998 20.6 42.6998 21.4 42.6998C21.6 42.6998 21.7 42.6998 21.9 42.7998C21.8 42.8998 21.6 42.8998 21.5 42.9998C21.2001 43.1998 21 43.3998 20.8 43.4998C20.6 43.5998 20.5 43.7998 20.3 43.8998C20.1 43.9998 19.9001 44.0998 19.7001 44.1998C19.2001 44.3998 18.8001 44.5998 18.7001 44.8998C18.6 45.1998 18.6 45.5998 18.9 45.8998C19.3 46.3998 19.9 46.3998 20.3 46.3998C20.8 46.3998 21.5 46.1998 22 45.8998C22.2001 45.7998 22.3 45.6998 22.5 45.5998C22.7001 45.4998 22.9 45.2998 23 45.2998C23.4 45.1998 23.9 45.1998 24.4 45.3998C24.9 45.5998 25.4 45.8998 25.8 46.1998C26.9 46.8998 27.7 47.7998 27.9 48.0998C27.8 48.2998 27.8001 48.3998 27.7001 48.4998ZM29.2001 48.1998C28.8001 47.9998 28.6 47.6998 28.5 47.5998L28.4 47.4998C28 47.0998 27.3001 46.1998 26.2001 45.5998C25.4001 45.0998 24.1 44.1998 22.7001 44.5998C22.4001 44.6998 22.2 44.7998 21.9 44.9998C21.8 45.0998 21.6 45.1998 21.5 45.2998C21.1 45.4998 20.5 45.6998 20.2001 45.6998C19.8001 45.6998 19.6 45.6998 19.5 45.5998C19.4 45.4998 19.4 45.3998 19.4 45.3998C19.5 45.2998 19.8 45.1998 20 45.0998C20.2001 44.9998 20.5 44.8998 20.6 44.7998C20.9 44.5998 21 44.4998 21.2001 44.2998C21.4001 44.1998 21.5 43.9998 21.8 43.7998C22.2 43.4998 22.7 43.4998 23.3 43.4998C23.4 43.4998 23.5 43.4998 23.6 43.4998C23.7001 43.4998 23.8 43.4998 23.9 43.4998C24.6 43.4998 25.3 43.6998 26.3 44.0998C26.6 44.1998 26.9 44.2998 27.3 44.3998C27.4 44.3998 28.7001 44.7998 30.5 45.2998C32.1 45.6998 34.4001 46.0998 36.5 46.2998C36.4001 46.5998 36.3 46.9998 36.2001 47.2998C35.7001 48.6998 35.2001 49.9998 34.5 51.2998C33.5 50.5998 30.9001 49.4998 29.2001 48.1998ZM34.2001 56.8998C33.2001 57.8998 32.3001 58.1998 31.7001 58.2998C31.5 58.2998 31.3001 58.3998 31.1 58.3998C30.9 58.3998 30.8001 58.3998 30.7001 58.3998C30.7001 57.6998 30.9 56.8998 31.5 56.1998C31.7001 55.9998 31.9 55.7998 32.1 55.5998C32 56.1998 31.8 56.7998 31.8 56.7998C31.8 56.8998 31.8 56.9998 31.8 57.0998C31.9 57.1998 32 57.1998 32.1 57.1998C33 56.7998 33.7001 56.7998 34.2001 56.8998ZM36 54.3998C35.7001 54.8998 35.3001 55.1998 34.9001 55.4998C34.5 55.7998 34.1 55.9998 33.7001 56.1998C33.3001 56.2998 33 56.3998 32.8 56.3998H32.7001C32.7001 55.6998 32.9 54.8998 33.3 54.1998C33.4 53.9998 33.6 53.6998 33.8 53.4998C33.9 54.0998 33.7001 54.7998 33.7001 54.7998C33.7001 54.8998 33.7 54.9998 33.8 54.9998C33.9 55.0998 34 55.0998 34.1 54.9998C34.9 54.5998 35.6 54.3998 36 54.3998C36.1 54.3998 36.1 54.3998 36 54.3998ZM36.6 53.0998C36.2 53.3998 35.9001 53.6998 35.5 53.8998C35 54.0998 34.6 54.1998 34.5 54.1998C34.4001 53.4998 34.5 52.6998 34.9001 51.8998C35 51.6998 35.2001 51.3998 35.3 51.1998C35.4 51.7998 35.4001 52.4998 35.4001 52.4998C35.4001 52.5998 35.4001 52.6998 35.5 52.6998C35.6 52.6998 35.7001 52.6998 35.8 52.6998C36.5 52.1998 37.2 51.9998 37.6 51.8998C37.3 52.3998 37 52.7998 36.6 53.0998ZM38 50.4998C37.7001 50.8998 37.3 51.1998 37 51.3998C36.6 51.6998 36.2001 51.6998 36 51.7998C35.8 51.0998 35.8 50.2998 36.1 49.4998C36.2 49.2998 36.3001 48.9998 36.4001 48.7998C36.6001 49.3998 36.6 50.0998 36.6 50.0998C36.6 50.1998 36.7001 50.2998 36.8 50.2998C36.9 50.2998 37 50.2998 37.1 50.1998C37.6 49.5998 38.2001 49.2998 38.5 49.1998C38.6 49.1998 38.7001 49.0998 38.8 49.0998C38.6 49.6998 38.3 50.0998 38 50.4998ZM39 47.7998C38.7001 48.1998 38.4 48.5998 38.1 48.7998C37.7 49.0998 37.3 49.1998 37.1 49.2998C36.8 48.4998 36.9001 47.5998 37 46.9998C37.1 46.6998 37.2001 46.4998 37.3 46.1998C37.6 46.7998 37.6001 47.4998 37.7001 47.4998C37.7001 47.5998 37.8001 47.6998 37.9001 47.6998C38 47.6998 38.1001 47.6998 38.2001 47.5998C38.7001 46.8998 39.4 46.5998 39.8 46.3998C39.5 46.8998 39.3 47.3998 39 47.7998ZM39.8 44.8998C39.6 45.2998 39.3 45.6998 39 45.9998C38.6 46.2998 38.3 46.4998 38.1 46.5998C37.7 45.8998 37.6001 45.0998 37.7001 44.1998C37.7001 43.8998 37.8001 43.5998 37.9001 43.3998C38.2001 43.9998 38.4001 44.6998 38.4001 44.6998C38.4001 44.7998 38.5 44.8998 38.6 44.8998C38.7 44.8998 38.8 44.8998 38.8 44.7998C39.3 44.0998 39.8 43.5998 40.2001 43.3998C40.1001 43.9998 40 44.4998 39.8 44.8998Z" fill="#231F20"/>
<path d="M34.2001 56.8996C33.8001 56.7996 33.0001 56.7996 32.2001 57.1996C32.1001 57.1996 32.0001 57.1996 31.9001 57.0996C31.8001 56.9996 31.8001 56.8996 31.8001 56.7996C31.8001 56.7996 32.0001 56.1996 32.1001 55.5996C31.9001 55.7996 31.7001 55.9996 31.5001 56.1996C30.9001 56.8996 30.6001 57.5996 30.7001 58.3996C30.8001 58.3996 30.9001 58.3996 31.1001 58.3996C31.3001 58.3996 31.5001 58.3996 31.7001 58.2996C32.3001 58.1996 33.2001 57.8996 34.2001 56.8996Z" fill="#59AA47"/>
<path d="M11.4 55.5C11.4 56.2 11.7 56.7 11.7 56.8C11.7 56.9 11.7 57 11.6 57.1C11.5 57.2 11.4 57.2 11.3 57.2C10.5 56.9 9.80005 56.9 9.30005 56.9C10.1 57.7 11 58.2 11.8 58.3C12 58.3 12.2 58.4 12.4 58.4C12.6 58.4 12.7 58.4 12.8 58.4C12.9 57 11.9 56 11.4 55.5Z" fill="#59AA47"/>
<path d="M36 54.4C35.5 54.4 34.9 54.6 34.1 55C34 55.1 33.9 55.1 33.8 55C33.7 54.9 33.7 54.8 33.7 54.8C33.7 54.8 33.8 54.2 33.8 53.5C33.6 53.7 33.4 53.9 33.3 54.2C32.8 54.9 32.6 55.7 32.7 56.4H32.8C33 56.4 33.3 56.4 33.7 56.2C34.1 56.1 34.5 55.8 34.9 55.5C35.4 55.3 35.7 54.9 36 54.4C36.1 54.4 36.1 54.4 36 54.4Z" fill="#59AA47"/>
<path d="M37.5001 51.8997C37.1001 51.9997 36.4001 52.1997 35.7001 52.6997C35.6001 52.7997 35.5001 52.7997 35.4001 52.6997C35.3001 52.6997 35.3001 52.5997 35.3001 52.4997C35.3001 52.4997 35.4001 51.7997 35.2001 51.1997C35.0001 51.3997 34.9001 51.6997 34.8001 51.8997C34.4001 52.6997 34.3001 53.4997 34.4001 54.1997C34.6001 54.1997 35.0001 54.1997 35.4001 53.8997C35.8001 53.6997 36.2001 53.4997 36.5001 53.0997C37.0001 52.7997 37.3001 52.3997 37.5001 51.8997Z" fill="#59AA47"/>
<path d="M38.8 49.0998C38.7 49.0998 38.6 49.0998 38.5 49.1998C38.1 49.2998 37.6 49.5998 37.1 50.1998C37 50.2998 36.9 50.2998 36.8 50.2998C36.7 50.2998 36.6 50.1998 36.6 50.0998C36.6 50.0998 36.6 49.3998 36.4 48.7998C36.3 48.9998 36.2 49.2998 36.1 49.4998C35.8 50.2998 35.8 51.0998 36 51.7998C36.2 51.7998 36.6 51.6998 37 51.3998C37.4 51.1998 37.7 50.8998 38 50.4998C38.3 50.0998 38.6 49.6998 38.8 49.0998Z" fill="#59AA47"/>
<path d="M39.5999 46.2996C39.1999 46.4996 38.6 46.7996 38 47.4996C37.9 47.5996 37.8 47.5996 37.7 47.5996C37.6 47.5996 37.5 47.4996 37.5 47.3996C37.5 47.3996 37.3999 46.6996 37.0999 46.0996C36.9999 46.3996 36.9 46.5996 36.8 46.8996C36.7 47.4996 36.6 48.3996 36.9 49.1996C37 49.1996 37.4 48.9996 37.9 48.6996C38.3 48.3996 38.6 48.0996 38.8 47.6996C39.3 47.3996 39.4999 46.8996 39.5999 46.2996C39.6999 46.2996 39.6999 46.2996 39.5999 46.2996Z" fill="#59AA47"/>
<path d="M40.2001 43.3999C39.8001 43.5999 39.2001 43.9999 38.8001 44.7999C38.7001 44.8999 38.7001 44.8999 38.6001 44.8999C38.5001 44.8999 38.4001 44.7999 38.4001 44.6999C38.4001 44.6999 38.2001 43.9999 37.9001 43.3999C37.8001 43.6999 37.8001 43.9999 37.7001 44.1999C37.6001 45.0999 37.7001 45.8999 38.1001 46.5999C38.3001 46.4999 38.6001 46.3999 39.0001 45.9999C39.3001 45.6999 39.6001 45.2999 39.8001 44.8999C40.0001 44.4999 40.1001 43.9999 40.2001 43.3999Z" fill="#59AA47"/>
<path d="M39.2 41.9999C39.2 42.0999 39.1 42.0999 39 42.0999C38.9 42.0999 38.8 41.9999 38.8 41.8999C38.8 41.8999 38.6 41.1999 38.2 40.6999C38 41.0999 38 41.2999 38 41.5999C38 42.4999 38.2 43.1999 38.7 43.7999C38.8 43.6999 39.2 43.4999 39.5 43.0999C39.8 42.7999 40 42.3999 40.2 41.8999C40.4 41.3999 40.5 40.8999 40.5 40.3999C40.1 40.6999 39.6 41.1999 39.2 41.9999Z" fill="#59AA47"/>
<path d="M39.0999 39.3C38.9999 39.3 38.9 39.3 38.9 39.2C38.9 39.2 38.6 38.6 38.2 38.2C38.2 38.9 38.2 40.3 39 41.2C39.1 41.1 39.4 40.9 39.7 40.4C40 40 40.0999 39.6 40.2999 39.1C40.3999 38.6 40.5 38.1 40.5 37.5C40.2 37.8 39.7 38.3 39.4 39.1C39.3 39.2 39.1999 39.3 39.0999 39.3Z" fill="#59AA47"/>
<path d="M39 36.3996C38.9 36.3996 38.8 36.3996 38.8 36.2996C38.8 36.2996 38.5 35.7996 38 35.3996C38.1 36.1996 38.3 37.5996 39.1 38.2996C39.2 38.1996 39.5 37.8996 39.8 37.4996C40 37.0996 40.2 36.6996 40.2 36.1996C40.3 35.6996 40.3 35.1996 40.2 34.5996C39.9 34.8996 39.5 35.4996 39.3 36.2996C39.1 36.2996 39.1 36.3996 39 36.3996Z" fill="#59AA47"/>
<path d="M38.6 33.5996C38.5 33.5996 38.4 33.5996 38.4 33.4996C38.4 33.4996 38 32.9996 37.5 32.5996C37.5 32.8996 37.6 33.1996 37.6 33.3996C37.7 33.9996 38.1 34.7996 38.7 35.3996C38.8 35.2996 39.1 34.9996 39.3 34.4996C39.5 34.0996 39.6 33.6996 39.7 33.1996C39.7 32.6996 39.7 32.1996 39.6 31.5996C39.3 31.8996 38.9 32.4996 38.7 33.3996C38.8 33.5996 38.7 33.5996 38.6 33.5996Z" fill="#59AA47"/>
<path d="M38 30.8998C37.9 30.8998 37.8 30.8998 37.7 30.7998C37.7 30.7998 37.2 30.2998 36.7 29.9998C36.8 30.2998 36.8 30.4998 36.9 30.7998C37.2 31.5998 37.6999 32.1998 38.2999 32.5998C38.3999 32.4998 38.5999 32.1998 38.7999 31.6998C38.8999 31.2998 39 30.7998 39 30.2998C39 29.7998 38.9 29.2998 38.7 28.7998C38.5 29.1998 38.1999 29.7998 38.0999 30.6998C38.0999 30.7998 38.1 30.8998 38 30.8998Z" fill="#59AA47"/>
<path d="M36.7999 28.1996C36.7999 28.1996 36.3 27.7996 35.7 27.4996C35.8 27.7996 35.9 27.9996 36 28.2996C36.4 29.0996 36.8999 29.6996 37.5999 29.9996C37.6999 29.8996 37.9 29.4996 38 28.9996C38.1 28.5996 38.1 28.0996 38 27.5996C37.9 27.0996 37.7999 26.5996 37.5999 26.0996C37.3999 26.4996 37.2 27.1996 37.2 27.9996C37.2 28.0996 37.0999 28.1996 37.0999 28.1996C36.8999 28.2996 36.7999 28.1996 36.7999 28.1996Z" fill="#59AA47"/>
<path d="M34.3 25.0996C34.4 25.3996 34.5001 25.5996 34.7001 25.8996C35.2001 26.5996 35.8 27.0996 36.5 27.3996C36.6 27.2996 36.7 26.8996 36.8 26.3996C36.8 25.9996 36.8001 25.4996 36.7001 24.9996C36.6001 24.4996 36.4 23.9996 36.1 23.5996C35.9 23.9996 35.8001 24.6996 35.9001 25.5996C35.9001 25.6996 35.9 25.7996 35.8 25.7996C35.7 25.7996 35.6 25.7996 35.5 25.7996C35.5 25.6996 35 25.1996 34.3 25.0996C34.3 24.9996 34.3 24.9996 34.3 25.0996Z" fill="#59AA47"/>
<path d="M32.7 22.8997C32.9 23.1997 33.0999 23.3997 33.2999 23.5997C33.8999 24.1997 34.5999 24.5997 35.2999 24.7997C35.3999 24.5997 35.4 24.2997 35.4 23.7997C35.4 23.3997 35.2999 22.8997 35.0999 22.4997C34.8999 22.0997 34.5999 21.5997 34.2999 21.1997C34.1999 21.6997 34.2 22.3997 34.4 23.0997C34.4 23.1997 34.3999 23.2997 34.2999 23.3997C34.1999 23.4997 34.1 23.4997 34 23.3997C34 23.2997 33.4 22.9997 32.7 22.8997Z" fill="#59AA47"/>
<path d="M32.4001 21.1999C32.3001 21.2999 32.2 21.2999 32.1 21.2999C32.1 21.2999 31.5 21.0999 30.9 21.0999H30.8C31 21.2999 31.3 21.4999 31.5 21.6999C32 22.0999 32.7 22.4999 33.6 22.4999C33.6 22.2999 33.7 21.8999 33.5 21.3999C33.4 20.9999 33.2001 20.4999 32.9001 20.0999C32.6001 19.6999 32.3 19.2999 31.9 18.8999C31.9 19.2999 32.0001 19.9999 32.4001 20.7999C32.5001 20.9999 32.5001 21.0999 32.4001 21.1999Z" fill="#59AA47"/>
<path d="M10.8 56.4H10.9C11 55.2 10.2 54.1 9.7 53.5C9.6 54.1 9.8 54.7 9.8 54.8C9.8 54.9 9.8 55 9.7 55.1C9.6 55.2 9.5 55.2 9.4 55.1C8.7 54.6 8 54.5 7.5 54.5C7.8 55 8.2 55.3 8.6 55.6C9 55.9 9.4 56.1 9.8 56.3C10.2 56.4 10.5 56.4 10.8 56.4Z" fill="#59AA47"/>
<path d="M9.1 54.1997C9.3 53.2997 9 52.4997 8.7 51.8997C8.6 51.6997 8.4 51.3997 8.3 51.1997C8.2 51.7997 8.2 52.3997 8.2 52.4997C8.2 52.5997 8.2 52.6997 8.1 52.6997C8 52.6997 7.9 52.6997 7.8 52.6997C7.1 52.1997 6.4 51.8997 6 51.8997C6.3 52.3997 6.6 52.7997 7 53.0997C7.4 53.3997 7.7 53.6997 8.1 53.8997C8.6 54.0997 8.9 54.1997 9.1 54.1997Z" fill="#59AA47"/>
<path d="M7.60005 51.7997C7.80005 51.0997 7.80005 50.2997 7.50005 49.4997C7.40005 49.1997 7.30005 48.9997 7.10005 48.6997C6.90005 49.3997 6.90005 49.9997 6.90005 49.9997C6.90005 50.0997 6.80005 50.1997 6.70005 50.1997C6.60005 50.1997 6.50005 50.1997 6.40005 50.0997C6.00005 49.6997 5.40005 49.3997 5.00005 49.2997C4.90005 49.2997 4.80005 49.1997 4.80005 49.1997C5.00005 49.6997 5.30005 50.1997 5.60005 50.4997C5.90005 50.8997 6.30005 51.1997 6.60005 51.3997C7.10005 51.6997 7.50005 51.7997 7.60005 51.7997Z" fill="#59AA47"/>
<path d="M6.40015 49.2997C7.00015 47.9997 6.60015 46.7997 6.30015 46.1997C6.00015 46.7997 5.90015 47.4997 5.90015 47.4997C5.90015 47.5997 5.80015 47.6997 5.70015 47.6997C5.60015 47.6997 5.50015 47.6997 5.40015 47.5997C4.90015 46.9997 4.40015 46.6997 4.10015 46.4997C4.00015 46.4997 3.90015 46.3997 3.90015 46.3997C4.50015 48.5997 5.90015 49.1997 6.40015 49.2997Z" fill="#59AA47"/>
<path d="M4.59995 46.1C4.99995 46.4 5.39995 46.6 5.49995 46.7C5.89995 45.9 6.09995 45.1 5.89995 44.3C5.79995 44 5.79995 43.8 5.59995 43.5C5.29995 44.1 5.09995 44.7 5.09995 44.8C5.09995 44.9 4.99995 45 4.89995 45C4.79995 45 4.69995 45 4.69995 44.9C4.19995 44.2 3.59995 43.8 3.19995 43.6C3.29995 44.2 3.49995 44.6 3.69995 45.1C3.99995 45.4 4.19995 45.8 4.59995 46.1Z" fill="#59AA47"/>
<path d="M4.7001 44C5.6001 42.8 5.5001 41.5 5.4001 40.9C5.0001 41.4 4.7001 42 4.7001 42C4.7001 42.1 4.6001 42.1 4.5001 42.2C4.4001 42.2 4.3001 42.1 4.3001 42.1C4.0001 41.4 3.6001 41 3.3001 40.7C3.2001 40.6 3.2001 40.6 3.1001 40.5C3.1001 42.8 4.3001 43.7 4.7001 44Z" fill="#59AA47"/>
<path d="M4.50016 41.2C5.00016 40.8 5.30016 40.2 5.40016 39.5C5.50015 38.9 5.50015 38.4 5.40016 38.1C4.90016 38.6 4.80016 39.2 4.80016 39.2C4.80016 39.3 4.70016 39.4 4.60015 39.4C4.50015 39.4 4.40016 39.3 4.40016 39.2C4.00016 38.5 3.60016 38 3.40016 37.7C3.30016 37.6 3.30016 37.6 3.20016 37.5C3.00016 39.9 4.00016 40.9 4.50016 41.2Z" fill="#59AA47"/>
<path d="M3.80005 37.3999C4.10005 37.8999 4.40005 38.0999 4.50005 38.1999C5.00005 37.6999 5.40005 36.9999 5.50005 36.0999C5.50005 35.7999 5.60005 35.4999 5.60005 35.1999C5.10005 35.5999 4.80005 36.1999 4.80005 36.1999C4.80005 36.2999 4.70005 36.2999 4.60005 36.2999C4.50005 36.2999 4.40005 36.1999 4.40005 36.0999C4.20005 35.2999 3.80005 34.6999 3.50005 34.3999C3.40005 34.9999 3.40005 35.4999 3.50005 35.9999C3.50005 36.5999 3.60005 36.9999 3.80005 37.3999Z" fill="#59AA47"/>
<path d="M4.09995 34.5996C4.29995 34.9996 4.59995 35.2996 4.69995 35.3996C5.29995 34.8996 5.69995 34.1996 5.89995 33.2996C5.99995 33.0996 5.99995 32.7996 5.99995 32.4996C5.49995 32.8996 5.09995 33.3996 5.09995 33.4996C4.99995 33.5996 4.89995 33.5996 4.89995 33.5996C4.79995 33.5996 4.69995 33.4996 4.69995 33.3996C4.49995 32.5996 4.09995 31.9996 3.79995 31.5996C3.69995 32.1996 3.69995 32.6996 3.69995 33.1996C3.79995 33.6996 3.89995 34.1996 4.09995 34.5996Z" fill="#59AA47"/>
<path d="M5.10015 32.5998C5.90015 32.0998 6.40015 31.4998 6.60015 30.6998C6.70015 30.4998 6.70015 30.1998 6.80015 29.8998C6.20015 30.1998 5.80015 30.7998 5.80015 30.7998C5.70015 30.8998 5.60015 30.8998 5.50015 30.8998C5.40015 30.8998 5.30015 30.7998 5.30015 30.6998C5.20015 29.7998 4.90015 29.1998 4.70015 28.7998C4.50015 29.2998 4.40015 29.8998 4.40015 30.2998C4.40015 30.7998 4.50015 31.1998 4.60015 31.6998C4.80015 32.1998 5.00015 32.4998 5.10015 32.5998Z" fill="#59AA47"/>
<path d="M5.80005 29.8996C5.90005 29.8996 5.90005 29.8996 5.80005 29.8996C6.60005 29.4996 7.20005 28.8996 7.60005 28.1996C7.70005 27.9996 7.80005 27.6996 7.90005 27.4996C7.30005 27.7996 6.80005 28.1996 6.80005 28.1996C6.70005 28.2996 6.60005 28.2996 6.50005 28.1996C6.40005 28.1996 6.40005 28.0996 6.40005 27.9996C6.40005 27.0996 6.20005 26.4996 6.00005 26.0996C5.80005 26.5996 5.60005 27.0996 5.50005 27.5996C5.40005 28.0996 5.40005 28.4996 5.50005 28.9996C5.50005 29.3996 5.70005 29.7996 5.80005 29.8996Z" fill="#59AA47"/>
<path d="M6.9001 27.2999C7.6001 27.0999 8.3001 26.5999 8.8001 25.8999C9.0001 25.5999 9.2001 25.2999 9.3001 25.0999C8.5001 25.1999 8.0001 25.6999 8.0001 25.6999C7.9001 25.7999 7.8001 25.7999 7.7001 25.6999C7.6001 25.5999 7.6001 25.4999 7.6001 25.3999C7.8001 24.4999 7.6001 23.8999 7.5001 23.3999C7.2001 23.8999 7.0001 24.3999 6.8001 24.7999C6.7001 25.2999 6.6001 25.6999 6.6001 26.1999C6.6001 26.7999 6.8001 27.1999 6.9001 27.2999Z" fill="#59AA47"/>
<path d="M8.30011 24.8C9.50011 24.6 10.4001 23.5 10.8001 22.9C10.1001 23 9.60011 23.3 9.60011 23.3C9.50011 23.4 9.40011 23.4 9.30011 23.3C9.20011 23.2 9.20011 23.1 9.20011 23C9.50011 22.2 9.40011 21.5 9.30011 21C7.90011 22.9 8.10011 24.3 8.30011 24.8Z" fill="#59AA47"/>
<path d="M10 22.5C10.8 22.5 11.5 22.1 12 21.7C12.2 21.5 12.5 21.3 12.7 21.1C12.1 21.1 11.5 21.3 11.5 21.3C11.4 21.3 11.3 21.3 11.2 21.2C11.1 21.1 11.1 21 11.2 20.9C11.6 20.1 11.7 19.4 11.7 19C11.3 19.4 10.9 19.8 10.6 20.2C10.3 20.6 10.1 21 10 21.5C9.90005 21.9 9.90005 22.3 10 22.5C9.90005 22.5 9.90005 22.5 10 22.5Z" fill="#59AA47"/>
<path d="M17.1001 32.9999C17.2001 33.1999 17.5001 33.1999 17.8001 33.1999H21.0001C19.1001 31.9999 18.4001 32.1999 17.1001 32.7999C17.1001 32.8999 17.1001 32.8999 17.1001 32.9999Z" fill="#EF4123"/>
<path d="M24.9001 31.5C24.6001 31.4 24.3001 31.3 24.1001 31.2C23.1001 30.8 22.3001 30.2 22.2001 30.1C22.0001 30 22.0001 29.7 22.1001 29.5C22.3001 29.3 22.6001 29.3 22.8001 29.4C22.8001 29.4 23.5001 30 24.4001 30.3C24.6001 30.4 24.9001 30.4 25.1001 30.5C25.5001 30.6 26.0001 30.7 26.4001 30.9C26.3001 30.4 26.2001 29.9 26.1001 29.5C24.8001 29.2 23.8001 28.4 23.7001 28.3C23.6001 28.2 23.5001 28.1 23.5001 28C23.5001 27.9 23.5001 27.8 23.6001 27.7C23.8001 27.5 24.1001 27.5 24.3001 27.6C24.3001 27.6 25.0001 28.2 25.8001 28.5C25.5001 27.2 25.0001 26.1 24.4001 24.9C24.0001 24.1 23.3001 23.5 22.5001 23.2C21.9001 23 21.4001 23 21.4001 23C21.4001 23 19.9001 23 18.9001 24.2C18.7001 24.4 18.2001 24.9 18.2001 25.4C18.2001 25.6 18.2001 25.8 18.4001 25.9C18.5001 25.9 18.7001 26 19.1001 25.7C19.2001 25.6 19.3001 25.6 19.3001 25.5C19.5001 25.4 19.8001 25.4 19.9001 25.6C20.1001 25.8 20.0001 26.1 19.8001 26.2C19.7001 26.3 19.7001 26.3 19.6001 26.3C19.4001 26.5 19.0001 26.8 18.6001 27.4C18.0001 28.2 17.3001 29.5 16.9001 31.5V31.6C18.2001 31 19.3001 30.8 21.6001 32.3C22.5001 32.9 23.6001 32.9 23.8001 32.9H24.8001C25.1001 32.9 25.8001 32.9 26.2001 32.5C26.3001 32.4 26.3001 32.4 26.3001 32.3C26.5001 32 26.0001 31.8 24.9001 31.5Z" fill="#EF4123"/>
<path d="M20.3 49.7C20.4 49.6 20.6 49.4 20.6 49.3C20.6 49.2 20.6 49.2 20.5 49.1C20.4 49 20.3 49 20.1 49C19.9 49 19.6 49.2 19.2 49.5C18.9 49.7 18.5 50 18.5 50.4C18.5 50.5 18.6 50.6 18.6 50.6C18.8 50.7 19.2 50.7 19.4 50.7C19.6 50.3 19.9 50 20.3 49.7Z" fill="#FCBC80"/>
<path d="M21.9 50.3C21.9 50.3 21.8999 50.2 21.7999 50.1C21.7999 50.1 21.6 49.9 21.1 50.2C20.7 50.4 20.4 50.7 20.2 51C20.3 51.1 20.4 51.1 20.4 51.1C20.8 51.2 21.3 50.8 21.5 50.7C21.7 50.6 21.9 50.4 21.9 50.3Z" fill="#FCBC80"/>
<path d="M17.0001 48C16.6001 48 16.1001 48.2 15.9001 48.5C15.7001 48.7 15.8001 48.8 15.8001 48.9C15.8001 49 16.0001 49 16.2001 49.1C16.3001 49.1 16.3001 49.1 16.4001 49.1C16.5001 48.7 16.8001 48.4 17.0001 48.2C17.1001 48.1 17.1001 48.1 17.2001 48C17.1001 48 17.1001 48 17.0001 48Z" fill="#FCBC80"/>
<path d="M17.2001 49.4996C17.2001 49.5996 17.2001 49.7996 17.6001 49.8996C17.7001 49.8996 17.7001 49.8996 17.8001 49.8996C17.9001 49.4996 18.2001 49.0996 18.8001 48.6996C18.9001 48.6996 18.9001 48.5996 19.0001 48.4996V48.3996C19.0001 48.2996 18.9001 48.2996 18.8001 48.1996C18.7001 48.1996 18.6001 48.0996 18.5001 48.0996C18.2001 48.0996 17.9001 48.2996 17.6001 48.5996C17.3001 49.0996 17.1001 49.2996 17.2001 49.4996Z" fill="#FCBC80"/>
<path d="M27.1 48.6996C27.3 48.6996 27.5 48.5996 27.6 48.4996C27.7 48.3996 27.8 48.1996 27.8 48.0996C27.6 47.7996 26.8001 46.8996 25.7001 46.1996C25.3001 45.8996 24.8 45.5996 24.3 45.3996C23.8 45.1996 23.3 45.0996 22.9 45.2996C22.8 45.2996 22.6 45.3996 22.4 45.5996C22.3 45.6996 22.1 45.7996 21.9 45.8996C21.4 46.1996 20.8 46.3996 20.2 46.3996C19.7 46.3996 19.1 46.4996 18.8 45.8996C18.6 45.5996 18.5 45.2996 18.6 44.8996C18.7 44.5996 19.1 44.3996 19.6 44.1996C19.8 44.0996 20 43.9996 20.2 43.8996C20.4 43.7996 20.6 43.5996 20.7 43.4996C20.9 43.3996 21.1 43.1996 21.4 42.9996C21.5 42.8996 21.7 42.7996 21.8 42.7996C21.6 42.7996 21.5 42.7996 21.3 42.6996C20.5 42.5996 20 42.8996 19.2 43.4996C18.5 43.9996 17.2 44.3996 15 44.7996C13 45.1996 10.2 45.5996 6.80005 45.9996C6.90005 46.3996 7.00005 46.7996 7.10005 47.0996C7.50005 48.4996 8.10005 49.7996 8.70005 50.8996C9.90005 50.3996 12.9 48.9996 15.2 47.7996C15.7 47.3996 16.4 47.0996 16.9 47.1996C17 47.1996 17.5 47.2996 17.8 47.4996C18.2 47.3996 18.6 47.3996 18.9 47.5996C19.3 47.7996 19.4 47.9996 19.5 48.1996C20 48.0996 20.4 48.0996 20.8 48.4996C21 48.6996 21.2 48.8996 21.2 49.1996C21.7 49.0996 22 49.2996 22.2 49.4996C22.5 49.7996 22.6 50.1996 22.6 50.3996C22.6 50.5996 22.5 50.6996 22.4 50.8996C22.6 50.8996 22.9 50.8996 23.1 50.7996C23.2 50.7996 23.2 50.6996 23.3 50.6996C23.2 50.4996 23 50.1996 22.7 49.8996C22.6 49.7996 22.6 49.6996 22.6 49.5996C22.6 49.4996 22.7 49.3996 22.7 49.2996C22.9 49.1996 23.1 49.1996 23.3 49.2996C23.7 49.7996 23.9 50.1996 24 50.3996C24.2001 50.3996 24.4 50.3996 24.5 50.1996C24.6 50.0996 24.6 49.9996 24.7001 49.8996C24.7001 49.7996 24.5 49.5996 24.3 49.2996C24.1 48.9996 23.6 48.5996 23.4 48.4996C23.3 48.3996 23.3001 48.2996 23.2001 48.1996C23.2001 48.0996 23.2 47.9996 23.3 47.8996C23.4 47.7996 23.5 47.7996 23.6 47.6996C23.7 47.6996 23.8 47.6996 23.9 47.7996C23.9 47.7996 24.6 48.2996 25 48.6996C25.3 48.9996 25.4 49.2996 25.5 49.4996C25.8 49.4996 26 49.3996 26.2001 49.1996C26.2001 49.0996 26.3 49.0996 26.3 48.9996C26 48.5996 25.2 47.5996 24.3 47.1996C24.2 47.1996 24.1 47.0996 24.1 46.9996C24.1 46.8996 24.1 46.7996 24.1 46.6996C24.1 46.5996 24.2 46.4996 24.3 46.4996C24.4 46.4996 24.5 46.4996 24.6 46.4996C25.9 47.1996 26.8 48.2996 27.1 48.6996Z" fill="#FCBC80"/>
<path d="M21.9 44.8997C22.2 44.6997 22.4 44.5997 22.7 44.4997C24.1 44.0997 25.5 44.9997 26.2 45.4997C27.2 46.1997 28 46.9997 28.4 47.3997C28.4 47.3997 28.4 47.3997 28.5 47.4997C28.6 47.5997 28.9 47.8997 29.2 48.0997C30.9 49.3997 33.5 50.4997 34.6 50.9997C35.3 49.7997 35.8 48.3997 36.3 46.9997C36.4 46.6997 36.5 46.2997 36.6 45.9997C34.4 45.8997 32.1 45.3997 30.6 44.9997C28.8 44.5997 27.5 44.1997 27.4 44.0997C27 43.9997 26.7 43.8997 26.4 43.7997C25.4 43.3997 24.8 43.1997 24 43.1997C23.9 43.1997 23.8 43.1997 23.7 43.1997C23.6 43.1997 23.5 43.1997 23.4 43.1997C22.7 43.1997 22.3 43.1997 21.9 43.4997C21.6 43.6997 21.4 43.8997 21.3 43.9997C21.1 44.0997 21 44.2997 20.7 44.4997C20.5 44.5997 20.3 44.6997 20.1 44.7997C19.9 44.8997 19.6 44.9997 19.5 45.0997C19.5 45.0997 19.5 45.1997 19.6 45.2997C19.7 45.3997 19.9 45.3997 20.3 45.3997C20.6 45.3997 21.2 45.2997 21.6 44.9997C21.7 45.0997 21.8 44.9997 21.9 44.8997Z" fill="#FCBC80"/>
</svg>
